SplineFontDB: 3.2
FontName: Inconsolata-UltraCondensed
FullName: Inconsolata Ultra Condensed
FamilyName: Inconsolata Ultra Condensed
Weight: Book
Copyright: Copyright 2006 The Inconsolata Project Authors (https://github.com/cyrealtype/Inconsolata)
Version: 3.000; ttfautohint (v1.8.3)
ItalicAngle: 0
UnderlinePosition: -297
UnderlineWidth: 102
Ascent: 1802
Descent: 246
InvalidEm: 0
sfntRevision: 0x00030000
LayerCount: 2
Layer: 0 1 "Back" 1
Layer: 1 1 "Fore" 0
XUID: [1021 282 -1687062340 12206]
StyleMap: 0x0040
FSType: 0
OS2Version: 4
OS2_WeightWidthSlopeOnly: 0
OS2_UseTypoMetrics: 1
CreationTime: 1576097233
ModificationTime: 1732392373
PfmFamily: 81
TTFWeight: 400
TTFWidth: 1
LineGap: 0
VLineGap: 0
Panose: 0 0 0 0 0 0 0 0 0 0
OS2TypoAscent: 1759
OS2TypoAOffset: 0
OS2TypoDescent: -389
OS2TypoDOffset: 0
OS2TypoLinegap: 0
OS2WinAscent: 2056
OS2WinAOffset: 0
OS2WinDescent: 930
OS2WinDOffset: 0
HheadAscent: 1759
HheadAOffset: 0
HheadDescent: -389
HheadDOffset: 0
OS2SubXSize: 1331
OS2SubYSize: 1229
OS2SubXOff: 0
OS2SubYOff: 154
OS2SupXSize: 1331
OS2SupYSize: 1229
OS2SupXOff: 0
OS2SupYOff: 717
OS2StrikeYSize: 102
OS2StrikeYPos: 561
OS2CapHeight: 1276
OS2XHeight: 936
OS2Vendor: 'CYRE'
OS2CodePages: 60000193.cdd40000
OS2UnicodeRanges: a00000ff.0000f9eb.00000020.00000000
Lookup: 1 0 0 "'aalt' Access All Alternates in Latin lookup 0" { "'aalt' Access All Alternates in Latin lookup 0 subtable"  } ['aalt' ('DFLT' <'dflt' > 'latn' <'AZE ' 'CAT ' 'CRT ' 'KAZ ' 'MOL ' 'ROM ' 'TAT ' 'TRK ' 'dflt' > ) ]
Lookup: 3 0 0 "'aalt' Access All Alternates in Latin lookup 1" { "'aalt' Access All Alternates in Latin lookup 1 subtable"  } ['aalt' ('DFLT' <'dflt' > 'latn' <'AZE ' 'CAT ' 'CRT ' 'KAZ ' 'MOL ' 'ROM ' 'TAT ' 'TRK ' 'dflt' > ) ]

StartChar: A
Encoding: 65 65 1
Width: 512
VWidth: 2441
GlyphClass: 2
Flags: HW
AnchorPoint: "Anchor-3" 415 0 basechar 0
AnchorPoint: "Anchor-2" 255 0 basechar 0
AnchorPoint: "Anchor-0" 255 1521 basechar 0
LayerCount: 2
Fore
SplineSet
255 1076 m 1,0,-1
 192 576 l 1,1,-1
 316 576 l 1,2,-1
 255 1076 l 1,0,-1
388 0 m 1,3,-1
 333 445 l 1,4,-1
 175 445 l 1,5,-1
 120 0 l 1,6,-1
 15 0 l 1,7,-1
 230 1547 l 1,8,-1
 280 1547 l 1,9,-1
 495 0 l 1,10,-1
 388 0 l 1,3,-1
EndSplineSet
Substitution2: "Single Substitution lookup 29 subtable" ordfeminine
Substitution2: "'aalt' Access All Alternates in Latin lookup 0 subtable" ordfeminine
EndChar

StartChar: AE
Encoding: 198 198 26
Width: 512
VWidth: 2441
GlyphClass: 1
Flags: HW
LayerCount: 2
Fore
SplineSet
176 547 m 1,0,-1
 245 547 l 1,1,-1
 279 1377 l 1,2,-1
 271 1377 l 1,3,-1
 176 547 l 1,0,-1
3 0 m 1,4,-1
 199 1523 l 1,5,-1
 483 1523 l 1,6,-1
 483 1386 l 1,7,-1
 357 1386 l 1,8,-1
 357 864 l 1,9,-1
 457 864 l 1,10,-1
 457 722 l 1,11,-1
 357 722 l 1,12,-1
 357 137 l 1,13,-1
 481 137 l 1,14,-1
 481 0 l 1,15,-1
 245 0 l 1,16,-1
 245 420 l 1,17,-1
 161 420 l 1,18,-1
 107 0 l 1,19,-1
 3 0 l 1,4,-1
EndSplineSet
EndChar

StartChar: B
Encoding: 66 66 28
Width: 512
VWidth: 2441
GlyphClass: 2
Flags: HW
AnchorPoint: "Anchor-2" 293 0 basechar 0
AnchorPoint: "Anchor-0" 293 1521 basechar 0
LayerCount: 2
Fore
SplineSet
176 137 m 1,0,-1
 277 137 l 2,1,2
 344 137 344 137 380.5 207.5 c 128,-1,3
 417 278 417 278 417 437 c 0,4,5
 417 574 417 574 375 663 c 128,-1,6
 333 752 333 752 257 752 c 2,7,-1
 176 752 l 1,8,-1
 176 137 l 1,0,-1
176 886 m 1,9,-1
 253 886 l 2,10,11
 340 886 340 886 365.5 957 c 128,-1,12
 391 1028 391 1028 391 1132 c 0,13,14
 391 1232 391 1232 363 1309 c 128,-1,15
 335 1386 335 1386 264 1386 c 2,16,-1
 176 1386 l 1,17,-1
 176 886 l 1,9,-1
56 0 m 1,18,-1
 56 1521 l 1,19,-1
 264 1521 l 2,20,21
 327 1521 327 1521 382.5 1488.5 c 128,-1,22
 438 1456 438 1456 471.5 1376 c 128,-1,23
 505 1296 505 1296 505 1153 c 0,24,25
 505 990 505 990 480.5 920 c 128,-1,26
 456 850 456 850 395 815 c 1,27,28
 451 780 451 780 493.5 685.5 c 128,-1,29
 536 591 536 591 536 427 c 0,30,31
 536 210 536 210 470.5 105 c 128,-1,32
 405 0 405 0 262 0 c 2,33,-1
 56 0 l 1,18,-1
EndSplineSet
EndChar

StartChar: C
Encoding: 67 67 29
Width: 512
VWidth: 2441
GlyphClass: 2
Flags: HW
AnchorPoint: "Anchor-2" 317 0 basechar 0
AnchorPoint: "Anchor-0" 306 1521 basechar 0
LayerCount: 2
Fore
SplineSet
321 -24 m 0,0,1
 246 -24 246 -24 184 47.5 c 128,-1,2
 122 119 122 119 85.5 289 c 128,-1,3
 49 459 49 459 47 752 c 0,4,5
 47 994 47 994 71.5 1148 c 128,-1,6
 96 1302 96 1302 137 1386 c 128,-1,7
 178 1470 178 1470 227 1501.5 c 128,-1,8
 276 1533 276 1533 323 1533 c 0,9,10
 400 1533 400 1533 452.5 1477 c 128,-1,11
 505 1421 505 1421 527 1302 c 1,12,-1
 458 1216 l 1,13,-1
 442 1197 l 1,14,-1
 431 1209 l 1,15,16
 429 1228 429 1228 432 1252.5 c 128,-1,17
 435 1277 435 1277 422 1314 c 0,18,19
 400 1363 400 1363 375 1377 c 128,-1,20
 350 1391 350 1391 321 1391 c 0,21,22
 252 1391 252 1391 206.5 1245 c 128,-1,23
 161 1099 161 1099 161 764 c 0,24,25
 161 440 161 440 210 278.5 c 128,-1,26
 259 117 259 117 325 117 c 0,27,28
 368 117 368 117 397 155 c 128,-1,29
 426 193 426 193 449 266 c 1,30,-1
 518 159 l 1,31,32
 482 64 482 64 436 20 c 128,-1,33
 390 -24 390 -24 321 -24 c 0,0,1
EndSplineSet
EndChar

StartChar: D
Encoding: 68 68 36
Width: 512
VWidth: 2441
GlyphClass: 2
Flags: HW
AnchorPoint: "Anchor-4" 290 762 basechar 0
AnchorPoint: "Anchor-2" 290 0 basechar 0
AnchorPoint: "Anchor-0" 255 1521 basechar 0
LayerCount: 2
Fore
SplineSet
186 135 m 1,0,-1
 213 135 l 2,1,2
 319 135 319 135 370.5 299.5 c 128,-1,3
 422 464 422 464 422 743 c 0,4,5
 422 931 422 931 404.5 1074.5 c 128,-1,6
 387 1218 387 1218 344 1301 c 128,-1,7
 301 1384 301 1384 228 1384 c 2,8,-1
 186 1384 l 1,9,-1
 186 135 l 1,0,-1
58 -2 m 1,10,-1
 58 1521 l 1,11,-1
 232 1521 l 2,12,13
 325 1521 325 1521 381.5 1473.5 c 128,-1,14
 438 1426 438 1426 473 1326 c 128,-1,15
 508 1226 508 1226 523 1091.5 c 128,-1,16
 538 957 538 957 538 752 c 0,17,18
 538 393 538 393 462.5 195.5 c 128,-1,19
 387 -2 387 -2 218 -2 c 2,20,-1
 58 -2 l 1,10,-1
EndSplineSet
EndChar

StartChar: Eth
Encoding: 208 208 37
Width: 512
VWidth: 2441
GlyphClass: 1
Flags: HW
LayerCount: 2
Fore
SplineSet
187 135 m 1,0,-1
 218 135 l 2,1,2
 318 135 318 135 361.5 297 c 128,-1,3
 405 459 405 459 405 747 c 0,4,5
 405 1040 405 1040 361.5 1211 c 128,-1,6
 318 1382 318 1382 228 1382 c 2,7,-1
 187 1382 l 1,8,-1
 187 876 l 1,9,-1
 264 876 l 1,10,-1
 264 734 l 1,11,-1
 187 734 l 1,12,-1
 187 135 l 1,0,-1
77 -2 m 1,13,-1
 77 734 l 1,14,-1
 32 734 l 1,15,-1
 32 876 l 1,16,-1
 77 876 l 1,17,-1
 77 1521 l 1,18,-1
 232 1521 l 2,19,20
 298 1521 298 1521 344 1479.5 c 128,-1,21
 390 1438 390 1438 419 1373.5 c 128,-1,22
 448 1309 448 1309 464 1237 c 0,23,24
 479 1179 479 1179 495.5 1064.5 c 128,-1,25
 512 950 512 950 512 755 c 0,26,27
 512 345 512 345 435 171.5 c 128,-1,28
 358 -2 358 -2 220 -2 c 2,29,-1
 77 -2 l 1,13,-1
EndSplineSet
EndChar

StartChar: E
Encoding: 69 69 42
Width: 512
VWidth: 2441
GlyphClass: 2
Flags: HW
AnchorPoint: "Anchor-3" 550 24 basechar 0
AnchorPoint: "Anchor-2" 305 0 basechar 0
AnchorPoint: "Anchor-0" 322 1521 basechar 0
LayerCount: 2
Fore
SplineSet
66 0 m 1,0,-1
 66 1523 l 1,1,-1
 542 1523 l 1,2,-1
 542 1386 l 1,3,-1
 191 1386 l 1,4,-1
 191 862 l 1,5,-1
 476 862 l 1,6,-1
 476 725 l 1,7,-1
 191 725 l 1,8,-1
 191 137 l 1,9,-1
 540 137 l 1,10,-1
 540 0 l 1,11,-1
 66 0 l 1,0,-1
EndSplineSet
EndChar

StartChar: uni01B8
Encoding: 440 440 65
Width: 512
VWidth: 2441
GlyphClass: 1
Flags: HW
LayerCount: 2
Fore
SplineSet
327 -27 m 0,0,1
 208 -27 208 -27 141.5 89 c 128,-1,2
 75 205 75 205 75 420 c 0,3,4
 75 637 75 637 139 760 c 128,-1,5
 203 883 203 883 300 904 c 1,6,-1
 107 1384 l 1,7,-1
 107 1521 l 1,8,-1
 480 1521 l 1,9,-1
 480 1384 l 1,10,-1
 226 1384 l 1,11,-1
 412 908 l 1,12,-1
 412 781 l 1,13,14
 395.389830508 782.661016949 395.389830508 782.661016949 380.046538351 782.661016949 c 0,15,16
 330.728813559 782.661016949 330.728813559 782.661016949 294.5 765.5 c 0,17,18
 247 743 247 743 223.5 666 c 128,-1,19
 200 589 200 589 200 432 c 0,20,21
 200 257 200 257 233 184.5 c 128,-1,22
 266 112 266 112 337 112 c 0,23,24
 393 112 393 112 427 161 c 1,25,26
 446 196 446 196 449 215.5 c 128,-1,27
 452 235 452 235 447 252 c 1,28,-1
 454 268 l 1,29,-1
 476 256 l 1,30,-1
 525 119 l 1,31,32
 486 33 486 33 435.5 3 c 128,-1,33
 385 -27 385 -27 327 -27 c 0,0,1
EndSplineSet
EndChar

StartChar: F
Encoding: 70 70 66
Width: 512
VWidth: 2441
GlyphClass: 2
Flags: HW
AnchorPoint: "Anchor-2" 305 0 basechar 0
AnchorPoint: "Anchor-0" 305 1521 basechar 0
LayerCount: 2
Fore
SplineSet
95 0 m 1,0,-1
 95 1523 l 1,1,-1
 535 1523 l 1,2,-1
 535 1386 l 1,3,-1
 219 1386 l 1,4,-1
 219 888 l 1,5,-1
 466 888 l 1,6,-1
 466 755 l 1,7,-1
 219 755 l 1,8,-1
 219 0 l 1,9,-1
 95 0 l 1,0,-1
EndSplineSet
EndChar

StartChar: G
Encoding: 71 71 67
Width: 512
VWidth: 2441
GlyphClass: 2
Flags: HW
AnchorPoint: "Anchor-2" 301 0 basechar 0
AnchorPoint: "Anchor-0" 311 1521 basechar 0
LayerCount: 2
Fore
SplineSet
313 -24 m 0,0,1
 188 -24 188 -24 114.5 164 c 128,-1,2
 41 352 41 352 41 743 c 0,3,4
 40.8367346939 763.734693878 40.8367346939 763.734693878 40.8367346939 783.822990421 c 0,5,6
 40.8367346939 1009.81632653 40.8367346939 1009.81632653 61.5 1154 c 0,7,8
 84 1311 84 1311 125 1394 c 128,-1,9
 166 1477 166 1477 214.5 1507.5 c 128,-1,10
 263 1538 263 1538 311 1538 c 0,11,12
 393 1538 393 1538 447 1473.5 c 128,-1,13
 501 1409 501 1409 518 1314 c 1,14,-1
 453 1237 l 1,15,-1
 437 1218 l 1,16,-1
 426 1230 l 1,17,18
 424 1251 424 1251 423.5 1273.5 c 128,-1,19
 423 1296 423 1296 406 1330 c 0,20,21
 370 1398 370 1398 308 1400 c 0,22,23
 265 1400 265 1400 230 1342 c 128,-1,24
 195 1284 195 1284 174.5 1148.5 c 128,-1,25
 154 1013 154 1013 154 778 c 0,26,27
 154 461 154 461 198 286.5 c 128,-1,28
 242 112 242 112 305 112 c 0,29,30
 333 112 333 112 359 128 c 128,-1,31
 385 144 385 144 406 181 c 1,32,-1
 406 589 l 1,33,-1
 296 589 l 1,34,-1
 296 720 l 1,35,-1
 521 720 l 1,36,-1
 521 122 l 1,37,38
 471 43 471 43 419 9.5 c 128,-1,39
 367 -24 367 -24 313 -24 c 0,0,1
EndSplineSet
EndChar

StartChar: H
Encoding: 72 72 74
Width: 512
VWidth: 2441
GlyphClass: 2
Flags: HW
AnchorPoint: "Anchor-4" 599 762 basechar 0
AnchorPoint: "Anchor-2" 599 0 basechar 0
AnchorPoint: "Anchor-0" 599 1521 basechar 0
LayerCount: 2
Fore
SplineSet
60 1521 m 1,0,-1
 194 1521 l 1,1,-1
 194 1504 l 1,2,3
 187 1490 187 1490 185 1473 c 128,-1,4
 183 1456 183 1456 183 1414 c 2,5,-1
 183 867 l 1,6,-1
 403 867 l 1,7,-1
 403 1521 l 1,8,-1
 540 1521 l 1,9,-1
 540 1504 l 1,10,11
 533 1490 533 1490 530.5 1473 c 128,-1,12
 528 1456 528 1456 528 1414 c 2,13,-1
 528 0 l 1,14,-1
 403 0 l 1,15,-1
 403 730 l 1,16,-1
 183 730 l 1,17,-1
 183 0 l 1,18,-1
 60 0 l 1,19,-1
 60 1521 l 1,0,-1
EndSplineSet
EndChar

StartChar: Hbar
Encoding: 294 294 75
Width: 512
VWidth: 2441
GlyphClass: 2
Flags: HW
AnchorPoint: "Anchor-4" 493 762 basechar 0
AnchorPoint: "Anchor-2" 493 0 basechar 0
AnchorPoint: "Anchor-0" 493 1521 basechar 0
LayerCount: 2
Fore
SplineSet
147 867 m 1,0,-1
 329 867 l 1,1,-1
 329 1214 l 1,2,-1
 147 1214 l 1,3,-1
 147 867 l 1,0,-1
1 1214 m 1,4,-1
 1 1351 l 1,5,-1
 45 1351 l 1,6,-1
 45 1521 l 1,7,-1
 156 1521 l 1,8,-1
 156 1504 l 1,9,10
 150 1490 150 1490 148.5 1473 c 128,-1,11
 147 1456 147 1456 147 1414 c 2,12,-1
 147 1351 l 1,13,-1
 329 1351 l 1,14,-1
 329 1521 l 1,15,-1
 443 1521 l 1,16,-1
 443 1504 l 1,17,18
 437 1490 437 1490 435 1473 c 128,-1,19
 433 1456 433 1456 433 1414 c 2,20,-1
 433 1351 l 1,21,-1
 481 1351 l 1,22,-1
 481 1214 l 1,23,-1
 433 1214 l 1,24,-1
 433 0 l 1,25,-1
 329 0 l 1,26,-1
 329 730 l 1,27,-1
 147 730 l 1,28,-1
 147 0 l 1,29,-1
 45 0 l 1,30,-1
 45 1214 l 1,31,-1
 1 1214 l 1,4,-1
EndSplineSet
EndChar

StartChar: I
Encoding: 73 73 79
Width: 512
VWidth: 2441
GlyphClass: 2
Flags: HW
AnchorPoint: "Anchor-3" 432 0 basechar 0
AnchorPoint: "Anchor-2" 308 0 basechar 0
AnchorPoint: "Anchor-0" 293 1521 basechar 0
LayerCount: 2
Fore
SplineSet
100 0 m 1,0,-1
 100 137 l 1,1,-1
 232 137 l 1,2,-1
 232 1384 l 1,3,-1
 103 1384 l 1,4,-1
 103 1521 l 1,5,-1
 486 1521 l 1,6,-1
 486 1384 l 1,7,-1
 356 1384 l 1,8,-1
 356 135 l 1,9,-1
 494 135 l 1,10,-1
 494 0 l 1,11,-1
 100 0 l 1,0,-1
EndSplineSet
EndChar

StartChar: J
Encoding: 74 74 94
Width: 512
VWidth: 2441
GlyphClass: 2
Flags: HW
AnchorPoint: "Anchor-2" 277 0 basechar 0
AnchorPoint: "Anchor-0" 370 1521 basechar 0
LayerCount: 2
Fore
SplineSet
214 -27 m 0,0,1
 104 -27 104 -27 44 98 c 1,2,-1
 92 263 l 1,3,-1
 99 288 l 1,4,-1
 113 284 l 1,5,6
 123.486486486 267.793611794 123.486486486 267.793611794 123.486486486 234.321402484 c 0,7,8
 123.486486486 204.054054054 123.486486486 204.054054054 141 170 c 0,9,10
 175.363636364 116.981818182 175.363636364 116.981818182 212.619173554 116.981818182 c 0,11,12
 213.309090909 116.981818182 213.309090909 116.981818182 214 117 c 0,13,14
 253 117 253 117 278.5 206.5 c 128,-1,15
 304 296 304 296 304 508 c 2,16,-1
 304 1384 l 1,17,-1
 174 1384 l 1,18,-1
 174 1521 l 1,19,-1
 524 1521 l 1,20,-1
 524 1384 l 1,21,-1
 423 1384 l 1,22,-1
 423 510 l 2,23,24
 423 303 423 303 396.5 185.5 c 128,-1,25
 370 68 370 68 322 20.5 c 128,-1,26
 274 -27 274 -27 214 -27 c 0,0,1
EndSplineSet
EndChar

StartChar: K
Encoding: 75 75 96
Width: 512
VWidth: 2441
GlyphClass: 1
Flags: HW
LayerCount: 2
Fore
SplineSet
211 725 m 1,0,-1
 166 598 l 1,1,-1
 166 0 l 1,2,-1
 51 0 l 1,3,-1
 51 1521 l 1,4,-1
 185 1521 l 1,5,-1
 185 1504 l 1,6,7
 172 1490 172 1490 169 1473 c 128,-1,8
 166 1456 166 1456 166 1414 c 2,9,-1
 166 830 l 1,10,-1
 398 1533 l 1,11,12
 409 1528 409 1528 439 1524.5 c 128,-1,13
 469 1521 469 1521 484 1521 c 2,14,-1
 514 1521 l 1,15,-1
 288 845 l 1,16,-1
 531 0 l 1,17,-1
 407 -10 l 1,18,-1
 211 725 l 1,0,-1
EndSplineSet
EndChar

StartChar: uni0198
Encoding: 408 408 98
Width: 512
VWidth: 2441
GlyphClass: 1
Flags: HW
LayerCount: 2
Fore
SplineSet
56 1521 m 1,0,-1
 189 1521 l 1,1,-1
 189 1504 l 1,2,3
 176 1490 176 1490 173 1473 c 128,-1,4
 170 1456 170 1456 170 1414 c 2,5,-1
 170 845 l 1,6,7
 242 1120 242 1120 296 1268 c 128,-1,8
 350 1416 350 1416 397 1473.5 c 128,-1,9
 444 1531 444 1531 491 1531 c 0,10,11
 513 1531 513 1531 528 1521 c 1,12,-1
 528 1321 l 1,13,-1
 521 1321 l 1,14,15
 514 1335 514 1335 507 1345 c 128,-1,16
 500 1355 500 1355 481 1358 c 2,17,-1
 475 1358 l 2,18,19
 460 1358 460 1358 438.5 1324.5 c 128,-1,20
 417 1291 417 1291 379 1188.5 c 128,-1,21
 341 1086 341 1086 276 881 c 1,22,-1
 536 0 l 1,23,-1
 410 -10 l 1,24,-1
 219 696 l 1,25,26
 197 621 197 621 170 532 c 1,27,-1
 170 0 l 1,28,-1
 56 0 l 1,29,-1
 56 1521 l 1,0,-1
EndSplineSet
EndChar

StartChar: L
Encoding: 76 76 99
Width: 512
VWidth: 2441
GlyphClass: 2
Flags: HW
AnchorPoint: "Anchor-4" 132 762 basechar 0
AnchorPoint: "Anchor-2" 305 0 basechar 0
AnchorPoint: "Anchor-1" 219 1116 basechar 0
AnchorPoint: "Anchor-0" 244 1521 basechar 0
LayerCount: 2
Fore
SplineSet
70 1521 m 1,0,-1
 217 1521 l 1,1,-1
 217 1504 l 1,2,3
 203 1490 203 1490 199.5 1473 c 128,-1,4
 196 1456 196 1456 196 1414 c 2,5,-1
 196 151 l 1,6,-1
 547 151 l 1,7,-1
 547 0 l 1,8,-1
 70 0 l 1,9,-1
 70 1521 l 1,0,-1
EndSplineSet
EndChar

StartChar: uni01C7
Encoding: 455 455 100
Width: 512
VWidth: 2380
GlyphClass: 1
Flags: HW
LayerCount: 2
Fore
SplineSet
68 98 m 1
 68 1521 l 1
 201 1521 l 1
 202 1506 202 1506 198 1502 c 0
 194 1498 194 1498 190 1489 c 0
 186 1480 186 1480 185 1443 c 2
 185 227 l 1
 331 227 l 1
 331 226 331 226 331 98 c 1
 68 98 l 1
336 -246 m 0
 279 -246 279 -246 232 -218 c 0
 185 -190 185 -190 146 -139 c 1
 224 -6 l 1
 238 -22 238 -22 232 -35 c 0
 226 -48 226 -48 255 -78 c 0
 266 -88 266 -88 280 -96 c 0
 294 -104 294 -104 322 -104 c 0
 365 -104 365 -104 387 -24 c 0
 409 56 409 56 409 253 c 2
 409 1393 l 1
 297 1393 l 1
 297 1521 l 1
 525 1521 l 1
 525 256 l 1
 525.280701754 236.771929825 525.280701754 236.771929825 525.280701754 218.331794398 c 0,0,0
 525.280701754 -26 525.280701754 -26 476 -132 c 0
 423 -246 423 -246 336 -246 c 0
EndSplineSet
EndChar

StartChar: Lcaron
Encoding: 317 317 102
Width: 512
VWidth: 2441
GlyphClass: 2
Flags: HW
AnchorPoint: "Anchor-4" 132 762 basechar 0
AnchorPoint: "Anchor-2" 305 0 basechar 0
AnchorPoint: "Anchor-1" 219 1116 basechar 0
AnchorPoint: "Anchor-0" 244 1521 basechar 0
LayerCount: 2
Fore
SplineSet
412 1016 m 1,0,-1
 368 1057 l 1,1,2
 395 1108 395 1108 413.5 1156 c 128,-1,3
 432 1204 432 1204 432 1240 c 0,4,5
 432 1282 432 1282 408 1308.5 c 128,-1,6
 384 1335 384 1335 384 1389 c 0,7,8
 384 1438 384 1438 403 1466 c 128,-1,9
 422 1494 422 1494 452 1494 c 0,10,11
 473 1494 473 1494 499 1464.5 c 128,-1,12
 525 1435 525 1435 525 1365 c 0,13,14
 525 1286 525 1286 494 1204.5 c 128,-1,15
 463 1123 463 1123 412 1016 c 1,0,-1
70 1521 m 1,16,-1
 217 1521 l 1,17,-1
 217 1504 l 1,18,19
 203 1490 203 1490 199.5 1473 c 128,-1,20
 196 1456 196 1456 196 1414 c 2,21,-1
 196 151 l 1,22,-1
 547 151 l 1,23,-1
 547 0 l 1,24,-1
 70 0 l 1,25,-1
 70 1521 l 1,16,-1
EndSplineSet
EndChar

StartChar: uni01C8
Encoding: 456 456 106
Width: 512
VWidth: 2362
GlyphClass: 1
Flags: HW
LayerCount: 2
Fore
SplineSet
267 -246 m 0,0,1
 203 -246 203 -246 160.5 -207.5 c 128,-1,2
 118 -169 118 -169 87 -116 c 1,3,-1
 163 34 l 1,4,5
 174 19 174 19 174 1 c 128,-1,6
 174 -17 174 -17 180.5 -39 c 128,-1,7
 187 -61 187 -61 218 -93 c 0,8,9
 233 -108 233 -108 244.5 -108 c 128,-1,10
 256 -108 256 -108 274 -108 c 0,11,12
 299 -108 299 -108 327.5 -93 c 128,-1,13
 356 -78 356 -78 376 -16.5 c 128,-1,14
 396 45 396 45 396 181 c 2,15,-1
 396 1036 l 1,16,-1
 238 1036 l 1,17,-1
 238 1156 l 1,18,-1
 496 1156 l 1,19,-1
 496 189 l 2,20,21
 496 -49 496 -49 429.5 -147.5 c 128,-1,22
 363 -246 363 -246 267 -246 c 0,0,1
58 140 m 1,23,-1
 58 1525 l 1,24,-1
 180 1525 l 1,25,26
 180 1503 180 1503 176 1486.5 c 128,-1,27
 172 1470 172 1470 172 1449 c 2,28,-1
 172 276 l 1,29,-1
 333 276 l 1,30,-1
 333 140 l 1,31,-1
 58 140 l 1,23,-1
431 1394 m 128,-1,33
 402 1394 402 1394 381 1419.5 c 128,-1,34
 360 1445 360 1445 360 1481 c 0,35,36
 360 1519 360 1519 380.5 1544.5 c 128,-1,37
 401 1570 401 1570 431 1570 c 0,38,39
 460 1570 460 1570 482.5 1544.5 c 128,-1,40
 505 1519 505 1519 505 1481 c 0,41,42
 505 1445 505 1445 482.5 1419.5 c 128,-1,32
 460 1394 460 1394 431 1394 c 128,-1,33
EndSplineSet
EndChar

StartChar: Lslash
Encoding: 321 321 108
Width: 512
VWidth: 2441
GlyphClass: 1
Flags: HW
LayerCount: 2
Fore
SplineSet
69 0 m 1,0,-1
 69 589 l 1,1,-1
 22 550 l 1,2,-1
 22 706 l 1,3,-1
 69 747 l 1,4,-1
 69 1521 l 1,5,-1
 193 1521 l 2,6,7
 202 1521 202 1521 202 1516 c 0,8,9
 202 1506 202 1506 194.5 1489 c 128,-1,10
 187 1472 187 1472 185 1438 c 2,11,-1
 185 806 l 1,12,-1
 350 937 l 2,13,14
 370 951 370 951 380 962 c 1,15,-1
 380 799 l 1,16,-1
 185 650 l 1,17,-1
 185 151 l 1,18,-1
 502 151 l 1,19,-1
 502 0 l 1,20,-1
 69 0 l 1,0,-1
EndSplineSet
EndChar

StartChar: M
Encoding: 77 77 109
Width: 512
VWidth: 2441
GlyphClass: 2
Flags: HW
AnchorPoint: "Anchor-2" 283 0 basechar 0
AnchorPoint: "Anchor-0" 283 1521 basechar 0
LayerCount: 2
Fore
SplineSet
43 0 m 1,0,-1
 43 1521 l 1,1,-1
 133 1521 l 1,2,-1
 283 850 l 1,3,-1
 435 1523 l 1,4,-1
 523 1523 l 1,5,-1
 523 0 l 1,6,-1
 422 0 l 1,7,-1
 422 1074 l 1,8,-1
 292 535 l 1,9,-1
 263 535 l 1,10,-1
 144 1067 l 1,11,-1
 144 0 l 1,12,-1
 43 0 l 1,0,-1
EndSplineSet
EndChar

StartChar: N
Encoding: 78 78 111
Width: 512
VWidth: 2441
GlyphClass: 2
Flags: HW
AnchorPoint: "Anchor-2" 283 0 basechar 0
AnchorPoint: "Anchor-0" 283 1521 basechar 0
LayerCount: 2
Fore
SplineSet
52 1521 m 1,0,-1
 158 1521 l 1,1,-1
 410 466 l 1,2,-1
 410 1521 l 1,3,-1
 532 1521 l 1,4,-1
 532 1504 l 1,5,6
 519 1490 519 1490 515.5 1473 c 128,-1,7
 512 1456 512 1456 512 1414 c 2,8,-1
 512 0 l 1,9,-1
 419 0 l 1,10,-1
 154 1123 l 1,11,-1
 154 0 l 1,12,-1
 52 0 l 1,13,-1
 52 1521 l 1,0,-1
EndSplineSet
EndChar

StartChar: Eng
Encoding: 330 330 117
Width: 512
VWidth: 2344
GlyphClass: 2
Flags: HW
AnchorPoint: "Anchor-2" 273 159 basechar 0
AnchorPoint: "Anchor-0" 273 1521 basechar 0
LayerCount: 2
Fore
SplineSet
405 1521 m 1,0,-1
 509 1521 l 1,1,2
 509 1508 509 1508 506 1497 c 128,-1,3
 503 1486 503 1486 503 1462 c 2,4,-1
 503 159 l 2,5,6
 503 6 503 6 480 -82.5 c 128,-1,7
 457 -171 457 -171 415.5 -208.5 c 128,-1,8
 374 -246 374 -246 324 -246 c 0,9,10
 272 -246 272 -246 227 -192 c 1,11,-1
 267 -56 l 1,12,13
 280 -65 280 -65 285 -86.5 c 128,-1,14
 290 -108 290 -108 326 -108 c 0,15,16
 376 -108 376 -108 389.5 -31.5 c 128,-1,17
 403 45 403 45 405 207 c 1,18,-1
 151 1164 l 1,19,-1
 151 159 l 1,20,-1
 50 159 l 1,21,-1
 50 1521 l 1,22,-1
 157 1521 l 1,23,-1
 405 576 l 1,24,-1
 405 1521 l 1,0,-1
EndSplineSet
EndChar

StartChar: O
Encoding: 79 79 120
Width: 512
VWidth: 2441
GlyphClass: 2
Flags: HW
AnchorPoint: "Anchor-4" 269 762 basechar 0
AnchorPoint: "Anchor-3" 308 24 basechar 0
AnchorPoint: "Anchor-2" 269 0 basechar 0
AnchorPoint: "Anchor-1" 407 1426 basechar 0
AnchorPoint: "Anchor-0" 269 1521 basechar 0
LayerCount: 2
Fore
SplineSet
269 110 m 0,0,1
 308 110 308 110 337 161 c 128,-1,2
 366 212 366 212 383.5 350.5 c 128,-1,3
 401 489 401 489 401 752 c 0,4,5
 401 1006 401 1006 383.5 1145 c 128,-1,6
 366 1284 366 1284 337 1339 c 128,-1,7
 308 1394 308 1394 269 1394 c 0,8,9
 232 1394 232 1394 201.5 1339 c 128,-1,10
 171 1284 171 1284 153.5 1145 c 128,-1,11
 136 1006 136 1006 136 752 c 0,12,13
 136 489 136 489 153.5 350.5 c 128,-1,14
 171 212 171 212 201.5 161 c 128,-1,15
 232 110 232 110 269 110 c 0,0,1
269 -27 m 128,-1,17
 191 -27 191 -27 137.5 43.5 c 128,-1,18
 84 114 84 114 56 284 c 128,-1,19
 28 454 28 454 28 752 c 0,20,21
 28 1043 28 1043 56 1212.5 c 128,-1,22
 84 1382 84 1382 138 1456.5 c 128,-1,23
 192 1531 192 1531 269 1531 c 0,24,25
 347 1531 347 1531 400 1456.5 c 128,-1,26
 453 1382 453 1382 480.5 1212 c 128,-1,27
 508 1042 508 1042 508 752 c 0,28,29
 508 454 508 454 480.5 284 c 128,-1,30
 453 114 453 114 400 43.5 c 128,-1,16
 347 -27 347 -27 269 -27 c 128,-1,17
EndSplineSet
Substitution2: "Single Substitution lookup 29 subtable" ordmasculine
Substitution2: "'aalt' Access All Alternates in Latin lookup 0 subtable" ordmasculine
EndChar

StartChar: Oslash
Encoding: 216 216 148
Width: 512
VWidth: 2441
GlyphClass: 2
Flags: HW
AnchorPoint: "Anchor-4" 269 762 basechar 0
AnchorPoint: "Anchor-3" 308 24 basechar 0
AnchorPoint: "Anchor-2" 269 0 basechar 0
AnchorPoint: "Anchor-1" 407 1426 basechar 0
AnchorPoint: "Anchor-0" 269 1521 basechar 0
LayerCount: 2
Fore
SplineSet
269 110 m 0,0,1
 308 110 308 110 337 161 c 128,-1,2
 366 212 366 212 383.5 350.5 c 128,-1,3
 401 489 401 489 401 752 c 0,4,5
 401 871 401 871 397 965.5 c 128,-1,6
 393 1060 393 1060 386 1128 c 1,7,-1
 181 205 l 1,8,9
 200 151 200 151 221.5 130.5 c 128,-1,10
 243 110 243 110 269 110 c 0,0,1
136 752 m 0,11,12
 136 642 136 642 139 555 c 128,-1,13
 142 468 142 468 148 403 c 1,14,-1
 349 1311 l 1,15,16
 332 1357 332 1357 313 1375.5 c 128,-1,17
 294 1394 294 1394 269 1394 c 0,18,19
 232 1394 232 1394 201.5 1339 c 128,-1,20
 171 1284 171 1284 153.5 1145 c 128,-1,21
 136 1006 136 1006 136 752 c 0,11,12
115 -103 m 1,22,-1
 45 -63 l 1,23,-1
 91 139 l 1,24,25
 60 230 60 230 44 379.5 c 128,-1,26
 28 529 28 529 28 752 c 0,27,28
 28 1043 28 1043 56 1212.5 c 128,-1,29
 84 1382 84 1382 138 1456.5 c 128,-1,30
 192 1531 192 1531 269 1531 c 0,31,32
 338 1531 338 1531 386 1477 c 1,33,-1
 427 1665 l 1,34,-1
 494 1621 l 1,35,-1
 440 1377 l 1,36,37
 475 1286 475 1286 491.5 1133.5 c 128,-1,38
 508 981 508 981 508 752 c 0,39,40
 508 454 508 454 480.5 284 c 128,-1,41
 453 114 453 114 400 43.5 c 128,-1,42
 347 -27 347 -27 269 -27 c 0,43,44
 193 -27 193 -27 144 35 c 1,45,-1
 115 -103 l 1,22,-1
EndSplineSet
EndChar

StartChar: OE
Encoding: 338 338 154
Width: 512
VWidth: 2441
GlyphClass: 1
Flags: HW
LayerCount: 2
Fore
SplineSet
181 126 m 0,0,1
 204 126 204 126 215.5 180.5 c 128,-1,2
 227 235 227 235 234 315 c 1,3,-1
 234 1184 l 1,4,5
 230 1287 230 1287 217 1347 c 128,-1,6
 204 1407 204 1407 173 1407 c 0,7,8
 155 1407 155 1407 142 1349 c 128,-1,9
 129 1291 129 1291 122 1151 c 128,-1,10
 115 1011 115 1011 115 764 c 0,11,12
 115 464 115 464 129.5 295 c 128,-1,13
 144 126 144 126 181 126 c 0,0,1
157 -17 m 0,14,15
 124 -17 124 -17 98 17 c 128,-1,16
 72 51 72 51 52 136.5 c 128,-1,17
 32 222 32 222 20.5 374.5 c 128,-1,18
 9 527 9 527 9 762 c 0,19,20
 9 1060 9 1060 27.5 1230 c 128,-1,21
 46 1400 46 1400 79.5 1471.5 c 128,-1,22
 113 1543 113 1543 161 1543 c 0,23,24
 184 1543 184 1543 200.5 1527.5 c 128,-1,25
 217 1512 217 1512 236 1463 c 1,26,-1
 236 1523 l 1,27,-1
 489 1523 l 1,28,-1
 489 1386 l 1,29,-1
 339 1386 l 1,30,-1
 339 864 l 1,31,-1
 470 864 l 1,32,-1
 470 722 l 1,33,-1
 339 722 l 1,34,-1
 339 135 l 1,35,-1
 487 135 l 1,36,-1
 487 0 l 1,37,-1
 234 0 l 1,38,-1
 234 66 l 1,39,40
 218 20 218 20 200 1.5 c 128,-1,41
 182 -17 182 -17 157 -17 c 0,14,15
EndSplineSet
EndChar

StartChar: P
Encoding: 80 80 155
Width: 512
VWidth: 2441
GlyphClass: 2
Flags: HW
AnchorPoint: "Anchor-2" 107 0 basechar 0
AnchorPoint: "Anchor-0" 291 1521 basechar 0
LayerCount: 2
Fore
SplineSet
180 806 m 1,0,-1
 275 806 l 2,1,2
 350 806 350 806 387 886.5 c 128,-1,3
 424 967 424 967 424 1094 c 0,4,5
 424 1245 424 1245 385.5 1314.5 c 128,-1,6
 347 1384 347 1384 275 1384 c 2,7,-1
 180 1384 l 1,8,-1
 180 806 l 1,0,-1
60 0 m 1,9,-1
 60 1521 l 1,10,-1
 278 1521 l 2,11,12
 540.003787879 1521 540.003787879 1521 540.003787879 1102.19091483 c 0,13,14
 540.003787879 884.005655513 540.003787879 884.005655513 468 776.5 c 128,-1,15
 396 669 396 669 284 669 c 2,16,-1
 180 669 l 1,17,-1
 180 0 l 1,18,-1
 60 0 l 1,9,-1
EndSplineSet
EndChar

StartChar: Thorn
Encoding: 222 222 156
Width: 512
VWidth: 2441
GlyphClass: 1
Flags: HW
LayerCount: 2
Fore
SplineSet
170 522 m 1,0,-1
 281 522 l 2,1,2
 359 522 359 522 390 605.5 c 128,-1,3
 421 689 421 689 421 801 c 128,-1,4
 421 913 421 913 388 999.5 c 128,-1,5
 355 1086 355 1086 272 1086 c 2,6,-1
 170 1086 l 1,7,-1
 170 522 l 1,0,-1
56 0 m 1,8,-1
 56 1521 l 1,9,-1
 181 1521 l 2,10,11
 183 1519 183 1519 183 1514 c 0,12,13
 183 1507 183 1507 176.5 1491 c 128,-1,14
 170 1475 170 1475 170 1453 c 2,15,-1
 170 1223 l 1,16,-1
 296 1223 l 2,17,18
 374 1223 374 1223 426.5 1168 c 128,-1,19
 479 1113 479 1113 507.5 1018 c 128,-1,20
 536 923 536 923 536 806 c 0,21,22
 536 631 536 631 471 514.5 c 128,-1,23
 406 398 406 398 281 398 c 2,24,-1
 170 398 l 1,25,-1
 170 0 l 1,26,-1
 56 0 l 1,8,-1
EndSplineSet
EndChar

StartChar: Q
Encoding: 81 81 157
Width: 512
VWidth: 2391
GlyphClass: 2
Flags: HW
AnchorPoint: "Anchor-2" 272 83 basechar 0
AnchorPoint: "Anchor-0" 272 1522 basechar 0
LayerCount: 2
Fore
SplineSet
278 198 m 0,0,1
 339 198 339 198 373 328 c 128,-1,2
 407 458 407 458 407 762 c 0,3,4
 407 1004 407 1004 388.5 1146.5 c 128,-1,5
 370 1289 370 1289 339.5 1349 c 128,-1,6
 309 1409 309 1409 274 1409 c 0,7,8
 226 1409 226 1409 183.5 1276 c 128,-1,9
 141 1143 141 1143 141 830 c 0,10,11
 141 594 141 594 158.5 455.5 c 128,-1,12
 176 317 176 317 207.5 257.5 c 128,-1,13
 239 198 239 198 278 198 c 0,0,1
435 -245 m 1,14,15
 423.149068323 -246.00621118 423.149068323 -246.00621118 412.0043594 -246.00621118 c 0,16,17
 323.465838509 -246.00621118 323.465838509 -246.00621118 279.5 -182.5 c 0,18,19
 230 -111 230 -111 230 67 c 1,20,21
 169 95 169 95 125 171 c 128,-1,22
 81 247 81 247 56 396 c 128,-1,23
 31 545 31 545 31 795 c 0,24,25
 31 1088 31 1088 64.5 1249.5 c 128,-1,26
 98 1411 98 1411 152.5 1474.5 c 128,-1,27
 207 1538 207 1538 272 1538 c 0,28,29
 339 1538 339 1538 392.5 1472.5 c 128,-1,30
 446 1407 446 1407 478.5 1247.5 c 128,-1,31
 511 1088 511 1088 511 801 c 0,32,33
 511 550 511 550 490 397 c 128,-1,34
 469 244 469 244 429.5 168 c 128,-1,35
 390 92 390 92 326 67 c 1,36,37
 330 -10 330 -10 338 -60.5 c 128,-1,38
 346 -111 346 -111 392 -111 c 2,39,-1
 481 -106 l 1,40,-1
 479 -245 l 1,41,-1
 435 -245 l 1,14,15
EndSplineSet
EndChar

StartChar: R
Encoding: 82 82 158
Width: 512
VWidth: 2441
GlyphClass: 2
Flags: HW
AnchorPoint: "Anchor-2" 294 0 basechar 0
AnchorPoint: "Anchor-0" 294 1521 basechar 0
LayerCount: 2
Fore
SplineSet
186 815 m 1,0,-1
 278 815 l 2,1,2
 332 815 332 815 369.5 887.5 c 128,-1,3
 407 960 407 960 407 1101 c 0,4,5
 407 1252 407 1252 369.5 1318 c 128,-1,6
 332 1384 332 1384 278 1384 c 2,7,-1
 186 1384 l 1,8,-1
 186 815 l 1,0,-1
65 0 m 1,9,-1
 65 1521 l 1,10,-1
 268 1521 l 2,11,12
 398 1521 398 1521 461.5 1408.5 c 128,-1,13
 525 1296 525 1296 525 1101 c 0,14,15
 525 940 525 940 484.5 829 c 128,-1,16
 444 718 444 718 374 691 c 1,17,-1
 545 0 l 1,18,-1
 424 0 l 1,19,-1
 247 678 l 1,20,-1
 186 678 l 1,21,-1
 186 0 l 1,22,-1
 65 0 l 1,9,-1
EndSplineSet
EndChar

StartChar: S
Encoding: 83 83 166
Width: 512
VWidth: 2441
GlyphClass: 2
Flags: HW
AnchorPoint: "Anchor-2" 294 0 basechar 0
AnchorPoint: "Anchor-0" 310 1521 basechar 0
LayerCount: 2
Fore
SplineSet
294 -24 m 0,0,1
 223 -24 223 -24 164 16 c 128,-1,2
 105 56 105 56 62 144 c 1,3,-1
 105 322 l 1,4,-1
 110 347 l 1,5,-1
 127 342 l 1,6,7
 139 325 139 325 135.5 294 c 0,8,9
 134.871794872 288.435897436 134.871794872 288.435897436 134.871794872 282.678500986 c 0,10,11
 134.871794872 256.358974359 134.871794872 256.358974359 148 226 c 0,12,13
 175 175 175 175 211.5 143.5 c 128,-1,14
 248 112 248 112 296 112 c 0,15,16
 362 112 362 112 395 179.5 c 128,-1,17
 428 247 428 247 428 391 c 0,18,19
 428 449 428 449 422.5 499.5 c 128,-1,20
 417 550 417 550 388.5 603.5 c 128,-1,21
 360 657 360 657 289 718 c 0,22,23
 172 811 172 811 129 926.5 c 128,-1,24
 86 1042 86 1042 86 1165 c 0,25,26
 86 1370 86 1370 146.5 1455 c 128,-1,27
 207 1540 207 1540 312 1540 c 0,28,29
 441 1540 441 1540 517 1374 c 1,30,-1
 470 1223 l 1,31,-1
 463 1199 l 1,32,-1
 449 1206 l 1,33,34
 440 1225 440 1225 443 1253 c 0,35,36
 443.428571429 1257 443.428571429 1257 443.428571429 1261.18367347 c 0,37,38
 443.428571429 1286.28571429 443.428571429 1286.28571429 428 1318 c 0,39,40
 380 1404 380 1404 305 1404 c 0,41,42
 246 1404 246 1404 224.5 1354 c 128,-1,43
 203 1304 203 1304 203 1177 c 0,44,45
 203 1082 203 1082 231.5 999 c 128,-1,46
 260 916 260 916 355 834 c 0,47,48
 465 743 465 743 503.5 640.5 c 128,-1,49
 542 538 542 538 542 415 c 0,50,51
 542 222 542 222 484 99 c 128,-1,52
 426 -24 426 -24 294 -24 c 0,0,1
EndSplineSet
EndChar

StartChar: uni1E9E
Encoding: 7838 7838 177
Width: 512
VWidth: 2441
GlyphClass: 1
Flags: HW
LayerCount: 2
Fore
SplineSet
322 -24 m 0,0,1
 252 -24 252 -24 201 37 c 1,2,-1
 238 170 l 1,3,4
 277 114 277 114 315 114 c 0,5,6
 371 114 371 114 395 197.5 c 128,-1,7
 419 281 419 281 419 464 c 0,8,9
 419 623 419 623 395.5 708.5 c 128,-1,10
 372 794 372 794 279 794 c 2,11,-1
 244 794 l 1,12,-1
 244 925 l 1,13,-1
 383 1223 l 1,14,15
 383 1293 383 1293 376 1358 c 128,-1,16
 369 1423 369 1423 347.5 1465 c 128,-1,17
 326 1507 326 1507 281 1507 c 0,18,19
 229 1507 229 1507 199.5 1426 c 128,-1,20
 170 1345 170 1345 170 1160 c 2,21,-1
 170 0 l 1,22,-1
 54 0 l 1,23,-1
 54 1128 l 2,24,25
 54 1338 54 1338 84.5 1447 c 128,-1,26
 115 1556 115 1556 167.5 1594.5 c 128,-1,27
 220 1633 220 1633 281 1633 c 0,28,29
 387 1633 387 1633 442 1521 c 128,-1,30
 497 1409 497 1409 497 1204 c 1,31,-1
 340 918 l 1,32,33
 448 894 448 894 491 776.5 c 128,-1,34
 534 659 534 659 534 442 c 0,35,36
 534 195 534 195 478 85.5 c 128,-1,37
 422 -24 422 -24 322 -24 c 0,0,1
EndSplineSet
EndChar

StartChar: T
Encoding: 84 84 179
Width: 512
VWidth: 2441
GlyphClass: 2
Flags: HW
AnchorPoint: "Anchor-4" 271 762 basechar 0
AnchorPoint: "Anchor-2" 278 0 basechar 0
AnchorPoint: "Anchor-0" 278 1521 basechar 0
LayerCount: 2
Fore
SplineSet
216 0 m 1,0,-1
 216 1386 l 1,1,-1
 36 1386 l 1,2,-1
 36 1523 l 1,3,-1
 516 1523 l 1,4,-1
 516 1386 l 1,5,-1
 329 1386 l 1,6,-1
 329 0 l 1,7,-1
 216 0 l 1,0,-1
EndSplineSet
EndChar

StartChar: Tbar
Encoding: 358 358 180
Width: 512
VWidth: 2441
GlyphClass: 2
Flags: HW
AnchorPoint: "Anchor-4" 271 762 basechar 0
AnchorPoint: "Anchor-2" 278 0 basechar 0
AnchorPoint: "Anchor-0" 278 1521 basechar 0
LayerCount: 2
Fore
SplineSet
216 0 m 1,0,-1
 216 694 l 1,1,-1
 98 694 l 1,2,-1
 98 830 l 1,3,-1
 216 830 l 1,4,-1
 216 1386 l 1,5,-1
 36 1386 l 1,6,-1
 36 1523 l 1,7,-1
 516 1523 l 1,8,-1
 516 1386 l 1,9,-1
 329 1386 l 1,10,-1
 329 830 l 1,11,-1
 458 830 l 1,12,-1
 458 694 l 1,13,-1
 329 694 l 1,14,-1
 329 0 l 1,15,-1
 216 0 l 1,0,-1
EndSplineSet
EndChar

StartChar: U
Encoding: 85 85 186
Width: 512
VWidth: 2441
GlyphClass: 2
Flags: HW
AnchorPoint: "Anchor-3" 358 24 basechar 0
AnchorPoint: "Anchor-2" 297 0 basechar 0
AnchorPoint: "Anchor-1" 539 1521 basechar 0
AnchorPoint: "Anchor-0" 297 1521 basechar 0
LayerCount: 2
Fore
SplineSet
299 -27 m 0,0,1
 154 -27 154 -27 106.5 96 c 128,-1,2
 59 219 59 219 59 476 c 2,3,-1
 59 1521 l 1,4,-1
 202 1521 l 1,5,-1
 202 1504 l 1,6,7
 188 1490 188 1490 184.5 1473 c 128,-1,8
 181 1456 181 1456 181 1414 c 2,9,-1
 181 473 l 2,10,11
 181 285 181 285 207 194 c 0,12,13
 232.440860215 104.956989247 232.440860215 104.956989247 296.179789571 104.956989247 c 0,14,15
 297.580645161 104.956989247 297.580645161 104.956989247 299 105 c 0,16,17
 367 107 367 107 392 206 c 128,-1,18
 417 305 417 305 417 480 c 2,19,-1
 417 1521 l 1,20,-1
 539 1521 l 1,21,-1
 539 484 l 2,22,23
 539 203 539 203 483.5 88 c 128,-1,24
 428 -27 428 -27 299 -27 c 0,0,1
EndSplineSet
EndChar

StartChar: V
Encoding: 86 86 209
Width: 512
VWidth: 2441
GlyphClass: 2
Flags: HW
AnchorPoint: "Anchor-2" 266 0 basechar 0
AnchorPoint: "Anchor-0" 266 1521 basechar 0
LayerCount: 2
Fore
SplineSet
238 -10 m 1,0,-1
 28 1523 l 1,1,-1
 135 1523 l 1,2,-1
 275 452 l 1,3,-1
 404 1521 l 1,4,-1
 508 1521 l 1,5,-1
 300 -10 l 1,6,-1
 238 -10 l 1,0,-1
EndSplineSet
EndChar

StartChar: W
Encoding: 87 87 210
Width: 512
VWidth: 2441
GlyphClass: 2
Flags: HW
AnchorPoint: "Anchor-2" 253 0 basechar 0
AnchorPoint: "Anchor-0" 259 1521 basechar 0
LayerCount: 2
Fore
SplineSet
111 0 m 1,0,-1
 11 1521 l 1,1,-1
 103 1521 l 1,2,-1
 150 615 l 1,3,-1
 237 1409 l 1,4,-1
 280 1409 l 1,5,-1
 363 615 l 1,6,-1
 406 1521 l 1,7,-1
 491 1521 l 1,8,-1
 391 0 l 1,9,-1
 344 0 l 1,10,-1
 253 920 l 1,11,-1
 162 0 l 1,12,-1
 111 0 l 1,0,-1
EndSplineSet
EndChar

StartChar: X
Encoding: 88 88 215
Width: 512
VWidth: 2441
GlyphClass: 2
Flags: HW
AnchorPoint: "Anchor-2" 283 0 basechar 0
AnchorPoint: "Anchor-0" 283 1521 basechar 0
LayerCount: 2
Fore
SplineSet
47 0 m 1,0,-1
 220 776 l 1,1,-1
 52 1523 l 1,2,-1
 164 1523 l 1,3,-1
 283 994 l 1,4,-1
 404 1523 l 1,5,-1
 505 1523 l 1,6,-1
 345 778 l 1,7,-1
 527 0 l 1,8,-1
 415 0 l 1,9,-1
 283 554 l 1,10,-1
 155 0 l 1,11,-1
 47 0 l 1,0,-1
EndSplineSet
EndChar

StartChar: Y
Encoding: 89 89 216
Width: 512
VWidth: 2441
GlyphClass: 2
Flags: HW
AnchorPoint: "Anchor-2" 278 0 basechar 0
AnchorPoint: "Anchor-0" 269 1521 basechar 0
LayerCount: 2
Fore
SplineSet
222 0 m 1,0,-1
 222 576 l 1,1,-1
 31 1521 l 1,2,-1
 142 1521 l 1,3,-1
 278 827 l 1,4,-1
 405 1521 l 1,5,-1
 511 1521 l 1,6,-1
 332 576 l 1,7,-1
 332 0 l 1,8,-1
 222 0 l 1,0,-1
EndSplineSet
EndChar

StartChar: Z
Encoding: 90 90 226
Width: 512
VWidth: 2441
GlyphClass: 2
Flags: HW
AnchorPoint: "Anchor-2" 312 0 basechar 0
AnchorPoint: "Anchor-0" 301 1521 basechar 0
LayerCount: 2
Fore
SplineSet
58 110 m 1,0,-1
 398 1384 l 1,1,-1
 71 1384 l 1,2,-1
 71 1521 l 1,3,-1
 520 1521 l 1,4,-1
 520 1411 l 1,5,-1
 183 137 l 1,6,-1
 436 137 l 2,7,8
 476 137 476 137 492 142 c 128,-1,9
 508 147 508 147 522 161 c 1,10,-1
 538 161 l 1,11,-1
 538 0 l 1,12,-1
 58 0 l 1,13,-1
 58 110 l 1,0,-1
EndSplineSet
EndChar

StartChar: a
Encoding: 97 97 232
Width: 512
VWidth: 2441
GlyphClass: 2
Flags: HW
AnchorPoint: "Anchor-3" 499 0 basechar 0
AnchorPoint: "Anchor-2" 261 0 basechar 0
AnchorPoint: "Anchor-0" 300 1097 basechar 0
LayerCount: 2
Fore
SplineSet
160 300 m 0,0,1
 160 202 160 202 189 157 c 128,-1,2
 218 112 218 112 261 112 c 0,3,4
 335 112 335 112 379 219.5 c 128,-1,5
 423 327 423 327 428 535 c 1,6,7
 377 545 377 545 342 545 c 0,8,9
 255 545 255 545 207.5 492 c 128,-1,10
 160 439 160 439 160 300 c 0,0,1
252 -27 m 0,11,12
 157 -27 157 -27 106.5 68 c 128,-1,13
 56 163 56 163 56 298 c 0,14,15
 56 449 56 449 89.5 532 c 128,-1,16
 123 615 123 615 186 646.5 c 128,-1,17
 249 678 249 678 335 678 c 0,18,19
 356 678 356 678 379 674.5 c 128,-1,20
 402 671 402 671 428 664 c 1,21,22
 426 794 426 794 415 865.5 c 128,-1,23
 404 937 404 937 374 967 c 128,-1,24
 344 997 344 997 286 997 c 0,25,26
 216 997 216 997 145 908 c 1,27,-1
 95 1025 l 1,28,29
 182 1139 182 1139 293 1140 c 0,30,31
 383 1140 383 1140 435 1095 c 128,-1,32
 487 1050 487 1050 511.5 931.5 c 128,-1,33
 536 813 536 813 536 594 c 2,34,-1
 536 0 l 1,35,-1
 432 0 l 1,36,-1
 432 170 l 1,37,38
 400 48 400 48 350 10.5 c 128,-1,39
 300 -27 300 -27 252 -27 c 0,11,12
EndSplineSet
Substitution2: "Single Substitution lookup 29 subtable" ordfeminine
Substitution2: "'aalt' Access All Alternates in Latin lookup 0 subtable" ordfeminine
EndChar

StartChar: ae
Encoding: 230 230 257
Width: 512
VWidth: 2441
GlyphClass: 1
Flags: HW
LayerCount: 2
Fore
SplineSet
144 107 m 0,0,1
 170 107 170 107 179 166.5 c 128,-1,2
 188 226 188 226 189 323 c 128,-1,3
 190 420 190 420 190 532 c 1,4,5
 137 522 137 522 120 474.5 c 128,-1,6
 103 427 103 427 103 298 c 0,7,8
 103 195 103 195 112.5 151 c 128,-1,9
 122 107 122 107 144 107 c 0,0,1
288 678 m 1,10,-1
 377 689 l 1,11,12
 377 843 377 843 371.5 923.5 c 128,-1,13
 366 1004 366 1004 344 1004 c 0,14,15
 312 1004 312 1004 300 919 c 128,-1,16
 288 834 288 834 288 678 c 1,10,-1
130 -27 m 0,17,18
 60 -27 60 -27 29.5 68 c 128,-1,19
 -1 163 -1 163 -1 300 c 0,20,21
 -1 432 -1 432 16 506.5 c 128,-1,22
 33 581 33 581 74.5 617.5 c 128,-1,23
 116 654 116 654 190 669 c 1,24,25
 190 828 190 828 180.5 916 c 128,-1,26
 171 1004 171 1004 130 1004 c 0,27,28
 108 1004 108 1004 92 983 c 128,-1,29
 76 962 76 962 61 925 c 1,30,-1
 23 1030 l 1,31,32
 40 1079 40 1079 69.5 1109.5 c 128,-1,33
 99 1140 99 1140 136 1140 c 0,34,35
 172 1140 172 1140 200.5 1098.5 c 128,-1,36
 229 1057 229 1057 243 1006 c 1,37,38
 253 1062 253 1062 285.5 1101 c 128,-1,39
 318 1140 318 1140 348 1140 c 0,40,41
 416 1140 416 1140 445.5 1026.5 c 128,-1,42
 475 913 475 913 475 654 c 2,43,-1
 475 566 l 1,44,-1
 288 552 l 1,45,-1
 288 427 l 2,46,47
 288 285 288 285 304 192.5 c 128,-1,48
 320 100 320 100 364 100 c 0,49,50
 388 100 388 100 407 125.5 c 128,-1,51
 426 151 426 151 437 184 c 1,52,-1
 479 79 l 1,53,54
 462 33 462 33 432 3 c 128,-1,55
 402 -27 402 -27 366 -27 c 0,56,57
 328 -27 328 -27 288.5 9.5 c 128,-1,58
 249 46 249 46 237 107 c 1,59,60
 223 46 223 46 194.5 9.5 c 128,-1,61
 166 -27 166 -27 130 -27 c 0,17,18
EndSplineSet
EndChar

StartChar: b
Encoding: 98 98 259
Width: 512
VWidth: 2441
GlyphClass: 2
Flags: HW
AnchorPoint: "Anchor-2" 574 0 basechar 0
AnchorPoint: "Anchor-0" 574 1116 basechar 0
LayerCount: 2
Fore
SplineSet
305 119 m 0,0,1
 333 119 333 119 357 130.5 c 128,-1,2
 381 142 381 142 398.5 184 c 128,-1,3
 416 226 416 226 426 315.5 c 128,-1,4
 436 405 436 405 436 559 c 0,5,6
 436 745 436 745 421 838.5 c 128,-1,7
 406 932 406 932 379.5 966.5 c 128,-1,8
 353 1001 353 1001 315 1001 c 0,9,10
 278 1001 278 1001 247 962 c 128,-1,11
 216 923 216 923 196.5 825 c 128,-1,12
 177 727 177 727 177 554 c 0,13,14
 177 322 177 322 208 220.5 c 128,-1,15
 239 119 239 119 305 119 c 0,0,1
324 -27 m 0,16,17
 278 -27 278 -27 233 18 c 128,-1,18
 188 63 188 63 175 147 c 1,19,-1
 163 0 l 1,20,-1
 66 0 l 1,21,-1
 66 1624 l 1,22,-1
 188 1624 l 1,23,-1
 188 1607 l 1,24,25
 181 1593 181 1593 179 1575.5 c 128,-1,26
 177 1558 177 1558 177 1516 c 2,27,-1
 177 945 l 1,28,29
 203 1052 203 1052 254 1097 c 128,-1,30
 305 1142 305 1142 342 1142 c 0,31,32
 406 1142 406 1142 451 1098.5 c 128,-1,33
 496 1055 496 1055 521 931.5 c 128,-1,34
 546 808 546 808 546 569 c 0,35,36
 546 325 546 325 514 196.5 c 128,-1,37
 482 68 482 68 430.5 20.5 c 128,-1,38
 379 -27 379 -27 324 -27 c 0,16,17
EndSplineSet
EndChar

StartChar: c
Encoding: 99 99 261
Width: 512
VWidth: 2441
GlyphClass: 2
Flags: HW
AnchorPoint: "Anchor-2" 339 0 basechar 0
AnchorPoint: "Anchor-0" 339 1116 basechar 0
LayerCount: 2
Fore
SplineSet
337 -27 m 0,0,1
 62 -27 62 -27 62 557 c 0,2,3
 62 781 62 781 102.5 906.5 c 128,-1,4
 143 1032 143 1032 206 1084.5 c 128,-1,5
 269 1137 269 1137 334 1137 c 0,6,7
 489 1137 489 1137 542 976 c 1,8,-1
 487 869 l 1,9,-1
 478 848 l 1,10,-1
 463 855 l 1,11,12
 456 874 456 874 454.5 899.5 c 128,-1,13
 453 925 453 925 432 960 c 1,14,15
 391 1009 391 1009 332 1009 c 0,16,17
 301 1009 301 1009 264 970.5 c 128,-1,18
 227 932 227 932 202 834.5 c 128,-1,19
 177 737 177 737 177 557 c 0,20,21
 177 301 177 301 218.5 203 c 128,-1,22
 260 105 260 105 341 105 c 0,23,24
 382 105 382 105 419 132 c 128,-1,25
 456 159 456 159 487 219 c 1,26,-1
 532 91 l 1,27,28
 496 30 496 30 445 1.5 c 128,-1,29
 394 -27 394 -27 337 -27 c 0,0,1
EndSplineSet
EndChar

StartChar: d
Encoding: 100 100 268
Width: 512
VWidth: 2441
GlyphClass: 2
Flags: HW
AnchorPoint: "Anchor-4" 418 1340 basechar 0
AnchorPoint: "Anchor-2" 291 0 basechar 0
AnchorPoint: "Anchor-1" 544 1116 basechar 0
AnchorPoint: "Anchor-0" 291 1116 basechar 0
LayerCount: 2
Fore
SplineSet
275 114 m 0,0,1
 310 114 310 114 337.5 155 c 128,-1,2
 365 196 365 196 381 293.5 c 128,-1,3
 397 391 397 391 397 564 c 0,4,5
 397 811 397 811 361.5 905 c 128,-1,6
 326 999 326 999 279 999 c 0,7,8
 237 999 237 999 210 967 c 128,-1,9
 183 935 183 935 168.5 848.5 c 128,-1,10
 154 762 154 762 154 596 c 0,11,12
 154 386 154 386 171.5 282.5 c 128,-1,13
 189 179 189 179 217 146.5 c 128,-1,14
 245 114 245 114 275 114 c 0,0,1
251 -24 m 0,15,16
 209 -24 209 -24 172.5 -1.5 c 128,-1,17
 136 21 136 21 108.5 85 c 128,-1,18
 81 149 81 149 64.5 266.5 c 128,-1,19
 48 384 48 384 48 569 c 0,20,21
 48 809 48 809 76 932 c 128,-1,22
 104 1055 104 1055 152.5 1098.5 c 128,-1,23
 201 1142 201 1142 263 1142 c 0,24,25
 376 1142 376 1142 397 969 c 1,26,-1
 397 1624 l 1,27,-1
 528 1624 l 1,28,-1
 528 1607 l 1,29,30
 514 1593 514 1593 511 1575.5 c 128,-1,31
 508 1558 508 1558 508 1516 c 2,32,-1
 508 173 l 2,33,34
 508 129 508 129 509 86.5 c 128,-1,35
 510 44 510 44 519 0 c 1,36,-1
 414 0 l 1,37,38
 405 30 405 30 398.5 66.5 c 128,-1,39
 392 103 392 103 392 147 c 1,40,41
 374 77 374 77 338 26.5 c 128,-1,42
 302 -24 302 -24 251 -24 c 0,15,16
EndSplineSet
EndChar

StartChar: eth
Encoding: 240 240 269
Width: 512
VWidth: 2441
GlyphClass: 1
Flags: HW
LayerCount: 2
Fore
SplineSet
292 100 m 0,0,1
 331 100 331 100 361 133 c 128,-1,2
 391 166 391 166 407 266 c 128,-1,3
 423 366 423 366 423 566 c 0,4,5
 423 803 423 803 383 909.5 c 128,-1,6
 344.095890411 1013.08219178 344.095890411 1013.08219178 292.894351661 1013.08219178 c 0,0,0
 291.452054795 1013.08219178 291.452054795 1013.08219178 290 1013 c 0,7,8
 244 1013 244 1013 212.5 972.5 c 128,-1,9
 181 932 181 932 164.5 836 c 128,-1,10
 148 740 148 740 148 566 c 0,11,12
 148 382 148 382 166.5 281.5 c 128,-1,13
 185 181 185 181 216.5 140.5 c 128,-1,14
 248 100 248 100 292 100 c 0,0,1
292 -30 m 0,15,16
 226 -30 226 -30 170 21.5 c 128,-1,17
 114 73 114 73 80 198.5 c 128,-1,18
 46 324 46 324 46 545 c 0,19,20
 46 771 46 771 74.5 901.5 c 128,-1,21
 103 1032 103 1032 155.5 1086 c 128,-1,22
 208 1140 208 1140 277 1140 c 0,23,24
 316 1140 316 1140 348 1123 c 128,-1,25
 380 1106 380 1106 400 1055 c 1,26,27
 387 1125 387 1125 366 1202 c 128,-1,28
 345 1279 345 1279 311 1347 c 1,29,-1
 190 1272 l 1,30,-1
 148 1377 l 1,31,-1
 263 1445 l 1,32,33
 237 1491 237 1491 210 1530.5 c 128,-1,34
 183 1570 183 1570 151 1601 c 1,35,-1
 263 1640 l 1,36,37
 315 1577 315 1577 362 1489 c 1,38,-1
 476 1560 l 1,39,-1
 510 1453 l 1,40,-1
 407 1400 l 1,41,42
 451 1297 451 1297 476 1184.5 c 128,-1,43
 501 1072 501 1072 513.5 935.5 c 128,-1,44
 526 799 526 799 526 617 c 0,45,46
 526 361 526 361 499.5 221 c 128,-1,47
 473 81 473 81 420.5 25.5 c 128,-1,48
 368 -30 368 -30 292 -30 c 0,15,16
EndSplineSet
EndChar

StartChar: dcaron
Encoding: 271 271 270
Width: 512
VWidth: 2441
GlyphClass: 1
Flags: HW
LayerCount: 2
Fore
SplineSet
193 114 m 0,0,1
 211 114 211 114 230.5 151 c 128,-1,2
 250 188 250 188 262.5 286 c 128,-1,3
 275 384 275 384 275 564 c 0,4,5
 275 734 275 734 262.5 828.5 c 128,-1,6
 250 923 250 923 233 961 c 128,-1,7
 216 999 216 999 202 999 c 0,8,9
 172 999 172 999 153 971 c 128,-1,10
 134 943 134 943 125.5 857 c 128,-1,11
 117 771 117 771 117 596 c 0,12,13
 117 430 117 430 124.5 332.5 c 128,-1,14
 132 235 132 235 143.5 188.5 c 128,-1,15
 155 142 155 142 169 128 c 128,-1,16
 183 114 183 114 193 114 c 0,0,1
172 -24 m 0,17,18
 140 -24 140 -24 114 -3.5 c 128,-1,19
 88 17 88 17 69 78 c 128,-1,20
 50 139 50 139 39.5 257.5 c 128,-1,21
 29 376 29 376 29 569 c 0,22,23
 29 755 29 755 38.5 868 c 128,-1,24
 48 981 48 981 67 1041 c 128,-1,25
 86 1101 86 1101 114 1121.5 c 128,-1,26
 142 1142 142 1142 180 1142 c 0,27,28
 264 1142 264 1142 273 974 c 1,29,-1
 273 1624 l 1,30,-1
 387 1624 l 1,31,-1
 387 1607 l 1,32,33
 375 1593 375 1593 371 1575.5 c 128,-1,34
 367 1558 367 1558 367 1516 c 2,35,-1
 367 173 l 2,36,37
 367 129 367 129 368.5 86.5 c 128,-1,38
 370 44 370 44 376 0 c 1,39,-1
 288 0 l 1,40,41
 282 27 282 27 275 62.5 c 128,-1,42
 268 98 268 98 268 142 c 1,43,44
 256 74 256 74 232 25 c 128,-1,45
 208 -24 208 -24 172 -24 c 0,17,18
461 1631 m 0,46,47
 480 1631 480 1631 494.5 1599.5 c 128,-1,48
 509 1568 509 1568 509 1504 c 0,49,50
 509 1429 509 1429 493 1337 c 128,-1,51
 477 1245 477 1245 435 1140 c 1,52,-1
 393 1177 l 1,53,54
 409 1219 409 1219 426 1274.5 c 128,-1,55
 443 1330 443 1330 443 1382 c 0,56,57
 443 1419 443 1419 425 1445.5 c 128,-1,58
 408.8 1469.35 408.8 1469.35 408.8 1521.145 c 0,0,0
 408.8 1526.9 408.8 1526.9 409 1533 c 0,59,60
 411 1577 411 1577 425.5 1604 c 128,-1,61
 440 1631 440 1631 461 1631 c 0,46,47
EndSplineSet
EndChar

StartChar: e
Encoding: 101 101 274
Width: 512
VWidth: 2441
GlyphClass: 2
Flags: HW
AnchorPoint: "Anchor-3" 400 24 basechar 0
AnchorPoint: "Anchor-2" 356 0 basechar 0
AnchorPoint: "Anchor-0" 307 1116 basechar 0
LayerCount: 2
Fore
SplineSet
174 664 m 1,0,-1
 416 664 l 1,1,2
 416 857 416 857 395.5 937.5 c 128,-1,3
 375 1018 375 1018 305 1018 c 0,4,5
 261 1018 261 1018 235.5 989 c 128,-1,6
 210 960 210 960 196.5 883 c 128,-1,7
 183 806 183 806 174 664 c 1,0,-1
326 -24 m 0,8,9
 185 -24 185 -24 120.5 106.5 c 128,-1,10
 56 237 56 237 56 554 c 0,11,12
 56 873 56 873 116.5 1007.5 c 128,-1,13
 177 1142 177 1142 310 1142 c 0,14,15
 384 1142 384 1142 434.5 1096 c 128,-1,16
 485 1050 485 1050 510.5 935 c 128,-1,17
 536 820 536 820 536 613 c 0,18,19
 536 589 536 589 536 573 c 128,-1,20
 536 557 536 557 533 538 c 1,21,-1
 171 538 l 1,22,23
 173 370 173 370 188 275.5 c 128,-1,24
 203 181 203 181 237 144 c 128,-1,25
 271 107 271 107 330 107 c 0,26,27
 381 107 381 107 408.5 135 c 128,-1,28
 436 163 436 163 453 205 c 1,29,-1
 520 122 l 1,30,31
 486 56 486 56 437.5 16 c 128,-1,32
 389 -24 389 -24 326 -24 c 0,8,9
EndSplineSet
EndChar

StartChar: uni029A
Encoding: 666 666 296
Width: 512
VWidth: 2441
GlyphClass: 1
Flags: HW
LayerCount: 2
Fore
SplineSet
276 112 m 0,0,1
 327 112 327 112 357 151.5 c 128,-1,2
 387 191 387 191 402.5 288.5 c 128,-1,3
 418 386 418 386 418 561 c 128,-1,4
 418 736 418 736 401.5 834 c 128,-1,5
 385 932 385 932 356 970.5 c 128,-1,6
 327 1009 327 1009 283 1009 c 0,7,8
 192 1009 192 1009 192 827 c 0,9,10
 192 759 192 759 215.5 711.5 c 128,-1,11
 239 664 239 664 283 664 c 0,12,13
 290 664 290 664 296.5 664 c 128,-1,14
 303 664 303 664 310 666 c 1,15,-1
 310 527 l 1,16,17
 299 529 299 529 290 532 c 128,-1,18
 281 535 281 535 269 535 c 0,19,20
 225 535 225 535 193.5 482 c 128,-1,21
 162 429 162 429 162 335 c 0,22,23
 163 112 163 112 276 112 c 0,0,1
276 -19 m 0,24,25
 176 -17 176 -17 112.5 81 c 128,-1,26
 49 179 49 179 49 349 c 0,27,28
 49 452 49 452 80 523 c 128,-1,29
 111 594 111 594 157 615 c 1,30,31
 122 657 122 657 102 714 c 128,-1,32
 82 771 82 771 82 840 c 0,33,34
 82 991 82 991 142 1065.5 c 128,-1,35
 202 1140 202 1140 285 1140 c 0,36,37
 415 1140 415 1140 472 1004.5 c 128,-1,38
 529 869 529 869 529 559 c 128,-1,39
 529 249 529 249 466.5 114 c 128,-1,40
 404.912408759 -19.0291970803 404.912408759 -19.0291970803 279.723267089 -19.0291970803 c 0,0,0
 277.868613139 -19.0291970803 277.868613139 -19.0291970803 276 -19 c 0,24,25
EndSplineSet
EndChar

StartChar: f
Encoding: 102 102 300
Width: 512
VWidth: 2441
GlyphClass: 1
Flags: HW
LayerCount: 2
Fore
SplineSet
135 1001 m 1,0,-1
 39 1001 l 1,1,-1
 39 1116 l 1,2,-1
 135 1116 l 1,3,-1
 135 1209 l 2,4,5
 135 1433 135 1433 198.5 1535.5 c 128,-1,6
 262 1638 262 1638 343 1638 c 0,7,8
 389 1638 389 1638 441.5 1600.5 c 128,-1,9
 494 1563 494 1563 519 1484 c 1,10,-1
 467 1382 l 1,11,-1
 454 1360 l 1,12,-1
 442 1370 l 1,13,14
 440 1389 440 1389 439.5 1414.5 c 128,-1,15
 439 1440 439 1440 421 1475 c 1,16,17
 388 1521 388 1521 346 1521 c 0,18,19
 298 1521 298 1521 267 1444 c 128,-1,20
 236 1367 236 1367 236 1209 c 2,21,-1
 236 1116 l 1,22,-1
 386 1116 l 1,23,-1
 386 1001 l 1,24,-1
 236 1001 l 1,25,-1
 236 0 l 1,26,-1
 135 0 l 1,27,-1
 135 1001 l 1,0,-1
EndSplineSet
EndChar

StartChar: g
Encoding: 103 103 301
Width: 512
VWidth: 2298
GlyphClass: 2
Flags: HW
AnchorPoint: "Anchor-2" 284 -225 basechar 0
AnchorPoint: "Anchor-0" 254 1120 basechar 0
LayerCount: 2
Fore
SplineSet
154 28 m 0,0,1
 154 -46 154 -46 189 -83 c 128,-1,2
 224 -120 224 -120 278 -120 c 0,3,4
 345 -120 345 -120 367 -80 c 128,-1,5
 389 -40 389 -40 389 30 c 0,6,7
 389 102 389 102 370.5 137.5 c 128,-1,8
 352 173 352 173 294 173 c 0,9,10
 229 173 229 173 184 190 c 1,11,12
 167 159 167 159 160.5 123.5 c 128,-1,13
 154 88 154 88 154 28 c 0,0,1
254 586 m 128,-1,15
 302 586 302 586 316 646 c 128,-1,16
 330 706 330 706 330 812 c 128,-1,17
 330 918 330 918 316 978 c 128,-1,18
 302 1038 302 1038 254 1038 c 128,-1,19
 206 1038 206 1038 192 978 c 128,-1,20
 178 918 178 918 178 812 c 128,-1,21
 178 706 178 706 192 646 c 128,-1,14
 206 586 206 586 254 586 c 128,-1,15
254 464 m 0,22,23
 219 464 219 464 191 482 c 1,24,25
 176 445 176 445 176 403 c 0,26,27
 176 351 176 351 200 326 c 128,-1,28
 224 301 224 301 311 301 c 0,29,30
 411 301 411 301 452 231.5 c 128,-1,31
 493 162 493 162 493 53 c 0,32,33
 493 -23 493 -23 472.5 -92 c 128,-1,34
 452 -161 452 -161 405 -203.5 c 128,-1,35
 358 -246 358 -246 278 -246 c 0,36,37
 174 -246 174 -246 112 -182 c 128,-1,38
 50 -118 50 -118 50 10 c 0,39,40
 50 91 50 91 71.5 147.5 c 128,-1,41
 93 204 93 204 126 231 c 1,42,43
 83 279 83 279 83 366 c 0,44,45
 83 414 83 414 98 458.5 c 128,-1,46
 113 503 113 503 135 544 c 1,47,48
 81 637 81 637 80 812 c 0,49,50
 80 973 80 973 127 1065.5 c 128,-1,51
 174 1158 174 1158 254 1158 c 0,52,53
 337 1158 337 1158 385 1060 c 1,54,55
 433.550458716 1148.11009174 433.550458716 1148.11009174 499.076256207 1148.11009174 c 0,56,57
 506.431192661 1148.11009174 506.431192661 1148.11009174 514 1147 c 1,58,-1
 526 1019 l 1,59,60
 493 1025 493 1025 465 1016 c 128,-1,61
 437 1007 437 1007 412 977 c 1,62,63
 427 905 427 905 428 812 c 0,64,65
 428 651 428 651 382.5 557.5 c 128,-1,66
 337 464 337 464 254 464 c 0,22,23
EndSplineSet
EndChar

StartChar: h
Encoding: 104 104 308
Width: 512
VWidth: 2441
GlyphClass: 2
Flags: HW
AnchorPoint: "Anchor-4" 159 1340 basechar 0
AnchorPoint: "Anchor-2" 305 0 basechar 0
AnchorPoint: "Anchor-0" 144 1624 basechar 0
LayerCount: 2
Fore
SplineSet
75 1624 m 1,0,-1
 207 1624 l 1,1,-1
 207 1607 l 1,2,3
 193 1593 193 1593 189.5 1575.5 c 128,-1,4
 186 1558 186 1558 186 1516 c 2,5,-1
 186 943 l 1,6,7
 248.686567164 1142.00497512 248.686567164 1142.00497512 354.936412465 1142.00497512 c 0,8,9
 355.467661692 1142.00497512 355.467661692 1142.00497512 356 1142 c 0,10,11
 419 1142 419 1142 460 1101 c 128,-1,12
 501 1060 501 1060 520.5 958.5 c 128,-1,13
 540 857 540 857 540 676 c 2,14,-1
 540 0 l 1,15,-1
 429 0 l 1,16,-1
 429 671 l 2,17,18
 429 846 429 846 409 928.5 c 128,-1,19
 389 1011 389 1011 340 1011 c 0,20,21
 284 1011 284 1011 235 908.5 c 128,-1,22
 186 806 186 806 186 643 c 2,23,-1
 186 0 l 1,24,-1
 75 0 l 1,25,-1
 75 1624 l 1,0,-1
EndSplineSet
EndChar

StartChar: i
Encoding: 105 105 313
Width: 512
VWidth: 2441
GlyphClass: 2
Flags: HW
AnchorPoint: "Anchor-3" 424 0 basechar 0
AnchorPoint: "Anchor-2" 308 0 basechar 0
AnchorPoint: "Anchor-0" 308 1477 basechar 0
LayerCount: 2
Fore
SplineSet
112 0 m 1,0,-1
 112 132 l 1,1,-1
 256 132 l 1,2,-1
 256 983 l 1,3,-1
 119 983 l 1,4,-1
 119 1116 l 1,5,-1
 368 1116 l 1,6,-1
 368 132 l 1,7,-1
 498 132 l 1,8,-1
 498 0 l 1,9,-1
 112 0 l 1,0,-1
305 1379 m 0,10,11
 273 1379 273 1379 249.5 1407 c 128,-1,12
 226 1435 226 1435 226 1475 c 0,13,14
 226 1517 226 1517 249.5 1544.5 c 128,-1,15
 273 1572 273 1572 305 1572 c 0,16,17
 340 1572 340 1572 363 1544 c 128,-1,18
 386 1516 386 1516 386 1475 c 0,19,20
 386 1436 386 1436 363 1407.5 c 128,-1,21
 340 1379 340 1379 305 1379 c 0,10,11
EndSplineSet
Substitution2: "'locl' Localized Forms in Latin lookup 18 subtable" i.loclTRK
Substitution2: "'locl' Localized Forms in Latin lookup 17 subtable" i.loclTRK
Substitution2: "'locl' Localized Forms in Latin lookup 16 subtable" i.loclTRK
Substitution2: "'locl' Localized Forms in Latin lookup 15 subtable" i.loclTRK
Substitution2: "'locl' Localized Forms in Latin lookup 14 subtable" i.loclTRK
Substitution2: "Single Substitution lookup 4 subtable" dotlessi
Substitution2: "Single Substitution lookup 3 subtable" dotlessi
AlternateSubs2: "'aalt' Access All Alternates in Latin lookup 1 subtable" dotlessi i.loclTRK
EndChar

StartChar: dotlessi
Encoding: 305 305 314
Width: 512
VWidth: 2441
GlyphClass: 2
Flags: HW
AnchorPoint: "Anchor-3" 424 0 basechar 0
AnchorPoint: "Anchor-2" 308 0 basechar 0
AnchorPoint: "Anchor-0" 308 1116 basechar 0
LayerCount: 2
Fore
SplineSet
112 0 m 1,0,-1
 112 132 l 1,1,-1
 256 132 l 1,2,-1
 256 983 l 1,3,-1
 119 983 l 1,4,-1
 119 1116 l 1,5,-1
 368 1116 l 1,6,-1
 368 132 l 1,7,-1
 498 132 l 1,8,-1
 498 0 l 1,9,-1
 112 0 l 1,0,-1
EndSplineSet
EndChar

StartChar: j
Encoding: 106 106 329
Width: 512
VWidth: 2362
GlyphClass: 2
Flags: HW
AnchorPoint: "Anchor-2" 309 -282 basechar 0
AnchorPoint: "Anchor-0" 396 1486 basechar 0
LayerCount: 2
Fore
SplineSet
225 -246 m 0,0,1
 176 -246 176 -246 127 -221.5 c 128,-1,2
 78 -197 78 -197 45 -148 c 1,3,-1
 104 -27 l 1,4,-1
 113 -6 l 1,5,-1
 127 -13 l 1,6,7
 134 -30 134 -30 136 -51.5 c 128,-1,8
 138 -73 138 -73 160 -104 c 1,9,10
 185 -126 185 -126 227 -127 c 0,11,12
 329 -127 329 -127 329 181 c 2,13,-1
 329 1036 l 1,14,-1
 127 1036 l 1,15,-1
 127 1157 l 1,16,-1
 429 1157 l 1,17,-1
 429 189 l 2,18,19
 429 20 429 20 405.5 -74.5 c 128,-1,20
 382 -169 382 -169 337.5 -207.5 c 128,-1,21
 293 -246 293 -246 225 -246 c 0,0,1
393 1396 m 0,22,23
 364 1396 364 1396 343 1422 c 128,-1,24
 322 1448 322 1448 322 1483 c 0,25,26
 322 1521 322 1521 343.5 1546.5 c 128,-1,27
 365 1572 365 1572 393 1572 c 0,28,29
 424 1572 424 1572 445.5 1546.5 c 128,-1,30
 467 1521 467 1521 467 1483 c 0,31,32
 467 1447 467 1447 445.5 1421.5 c 128,-1,33
 424 1396 424 1396 393 1396 c 0,22,23
EndSplineSet
Substitution2: "Single Substitution lookup 4 subtable" uni0237
Substitution2: "Single Substitution lookup 3 subtable" uni0237
Substitution2: "'aalt' Access All Alternates in Latin lookup 0 subtable" uni0237
EndChar

StartChar: uni0237
Encoding: 567 567 330
Width: 512
VWidth: 2286
GlyphClass: 2
Flags: HW
AnchorPoint: "Anchor-2" 300 -281 basechar 0
AnchorPoint: "Anchor-0" 385 1116 basechar 0
LayerCount: 2
Fore
SplineSet
218 -246 m 0,0,1
 171 -246 171 -246 123.5 -222.5 c 128,-1,2
 76 -199 76 -199 43 -151 c 1,3,-1
 101 -33 l 1,4,-1
 110 -13 l 1,5,-1
 123 -19 l 1,6,7
 129 -36 129 -36 131.5 -57 c 128,-1,8
 134 -78 134 -78 155 -108 c 1,9,10
 179 -129 179 -129 220 -130 c 0,11,12
 319 -130 319 -130 319 168 c 2,13,-1
 319 999 l 1,14,-1
 123 999 l 1,15,-1
 123 1116 l 1,16,-1
 416 1116 l 1,17,-1
 416 177 l 2,18,19
 416 13 416 13 393.5 -79 c 128,-1,20
 371 -171 371 -171 327.5 -208.5 c 128,-1,21
 284 -246 284 -246 218 -246 c 0,0,1
EndSplineSet
EndChar

StartChar: k
Encoding: 107 107 332
Width: 512
VWidth: 2441
GlyphClass: 2
Flags: HW
AnchorPoint: "Anchor-2" 278 0 basechar 0
AnchorPoint: "Anchor-0" 111 1624 basechar 0
LayerCount: 2
Fore
SplineSet
221 529 m 1,0,-1
 167 398 l 1,1,-1
 161 0 l 1,2,-1
 59 0 l 1,3,-1
 59 1624 l 1,4,-1
 182 1624 l 1,5,-1
 182 1607 l 1,6,7
 169 1593 169 1593 165 1575.5 c 128,-1,8
 161 1558 161 1558 161 1516 c 2,9,-1
 161 601 l 1,10,-1
 398 1121 l 1,11,12
 411 1116 411 1116 434.5 1112.5 c 128,-1,13
 458 1109 458 1109 473 1109 c 2,14,-1
 503 1109 l 1,15,-1
 289 647 l 1,16,-1
 539 0 l 1,17,-1
 432 -10 l 1,18,-1
 221 529 l 1,0,-1
EndSplineSet
EndChar

StartChar: kgreenlandic
Encoding: 312 312 334
Width: 512
VWidth: 2441
GlyphClass: 2
Flags: HW
AnchorPoint: "Anchor-2" 284 0 basechar 0
AnchorPoint: "Anchor-0" 118 1116 basechar 0
LayerCount: 2
Fore
SplineSet
221 529 m 1,0,-1
 167 398 l 1,1,-1
 161 0 l 1,2,-1
 59 0 l 1,3,-1
 59 1116 l 1,4,-1
 182 1116 l 1,5,-1
 182 1099 l 1,6,7
 169 1085 169 1085 165 1067.5 c 128,-1,8
 161 1050 161 1050 161 1009 c 2,9,-1
 161 601 l 1,10,-1
 398 1121 l 1,11,12
 411 1116 411 1116 434.5 1112.5 c 128,-1,13
 458 1109 458 1109 473 1109 c 2,14,-1
 503 1109 l 1,15,-1
 289 647 l 1,16,-1
 539 0 l 1,17,-1
 432 -10 l 1,18,-1
 221 529 l 1,0,-1
EndSplineSet
EndChar

StartChar: l
Encoding: 108 108 335
Width: 512
VWidth: 2441
GlyphClass: 2
Flags: HW
AnchorPoint: "Anchor-4" 308 559 basechar 0
AnchorPoint: "Anchor-2" 308 0 basechar 0
AnchorPoint: "Anchor-1" 589 1116 basechar 0
AnchorPoint: "Anchor-0" 308 1624 basechar 0
LayerCount: 2
Fore
SplineSet
98 0 m 1,0,-1
 98 132 l 1,1,-1
 254 132 l 1,2,-1
 254 1491 l 1,3,-1
 105 1491 l 1,4,-1
 105 1624 l 1,5,-1
 364 1624 l 1,6,-1
 364 132 l 1,7,-1
 515 132 l 1,8,-1
 515 0 l 1,9,-1
 98 0 l 1,0,-1
EndSplineSet
EndChar

StartChar: ldot
Encoding: 320 320 339
Width: 512
VWidth: 2441
GlyphClass: 1
Flags: HW
LayerCount: 2
Fore
SplineSet
478 703 m 128,-1,1
 441 703 441 703 416 735 c 128,-1,2
 391 767 391 767 391 811 c 128,-1,3
 391 855 391 855 416.5 886.5 c 128,-1,4
 442 918 442 918 478 918 c 0,5,6
 515 918 515 918 540.5 886.5 c 128,-1,7
 566 855 566 855 566 811 c 128,-1,8
 566 767 566 767 540.5 735 c 128,-1,0
 515 703 515 703 478 703 c 128,-1,1
86 0 m 1,9,-1
 86 132 l 1,10,-1
 224 132 l 1,11,-1
 224 1491 l 1,12,-1
 93 1491 l 1,13,-1
 93 1624 l 1,14,-1
 335 1624 l 1,15,-1
 335 132 l 1,16,-1
 503 132 l 1,17,-1
 503 0 l 1,18,-1
 86 0 l 1,9,-1
EndSplineSet
EndChar

StartChar: uni01C9
Encoding: 457 457 341
Width: 512
VWidth: 2368
GlyphClass: 1
Flags: HW
LayerCount: 2
Fore
SplineSet
275 -246 m 0,0,1
 226 -246 226 -246 185 -217 c 128,-1,2
 144 -188 144 -188 120 -146 c 1,3,-1
 178 -12 l 1,4,5
 187 -27 187 -27 186.5 -37.5 c 128,-1,6
 186 -48 186 -48 194 -61.5 c 128,-1,7
 202 -75 202 -75 229 -101 c 0,8,9
 242 -112 242 -112 254.5 -116 c 128,-1,10
 267 -120 267 -120 282 -120 c 0,11,12
 339 -120 339 -120 367 -54 c 128,-1,13
 395 12 395 12 395 182 c 2,14,-1
 395 1039 l 1,15,-1
 239 1039 l 1,16,-1
 239 1160 l 1,17,-1
 495 1160 l 1,18,-1
 495 190 l 2,19,20
 495 20 495 20 468.5 -74.5 c 128,-1,21
 442 -169 442 -169 392.5 -206.5 c 128,-1,22
 343 -244 343 -244 275 -246 c 0,0,1
428 1401 m 0,23,24
 399 1401 399 1401 378.5 1426.5 c 128,-1,25
 358 1452 358 1452 358 1488 c 0,26,27
 358 1526 358 1526 379 1551.5 c 128,-1,28
 400 1577 400 1577 428 1577 c 0,29,30
 459 1577 459 1577 480.5 1551.5 c 128,-1,31
 502 1526 502 1526 502 1488 c 0,32,33
 502 1452 502 1452 480.5 1426.5 c 128,-1,34
 459 1401 459 1401 428 1401 c 0,23,24
22 141 m 1,35,-1
 22 262 l 1,36,-1
 87 262 l 1,37,-1
 87 1503 l 1,38,-1
 29 1503 l 1,39,-1
 29 1624 l 1,40,-1
 186 1624 l 1,41,-1
 186 262 l 1,42,-1
 313 262 l 1,43,-1
 313 141 l 1,44,-1
 22 141 l 1,35,-1
EndSplineSet
EndChar

StartChar: lslash
Encoding: 322 322 343
Width: 512
VWidth: 2441
GlyphClass: 1
Flags: HW
LayerCount: 2
Fore
SplineSet
98 0 m 1,0,-1
 98 132 l 1,1,-1
 249 132 l 1,2,-1
 249 685 l 1,3,-1
 166 620 l 1,4,-1
 166 778 l 1,5,-1
 249 845 l 1,6,-1
 249 1491 l 1,7,-1
 105 1491 l 1,8,-1
 105 1624 l 1,9,-1
 364 1624 l 1,10,-1
 364 906 l 1,11,-1
 461 986 l 1,12,-1
 461 820 l 1,13,-1
 364 745 l 1,14,-1
 364 132 l 1,15,-1
 515 132 l 1,16,-1
 515 0 l 1,17,-1
 98 0 l 1,0,-1
EndSplineSet
EndChar

StartChar: m
Encoding: 109 109 344
Width: 512
VWidth: 2441
GlyphClass: 2
Flags: HW
AnchorPoint: "Anchor-2" 280 0 basechar 0
AnchorPoint: "Anchor-0" 548 1116 basechar 0
LayerCount: 2
Fore
SplineSet
42 0 m 1,0,-1
 42 1116 l 1,1,-1
 144 1116 l 1,2,-1
 144 1006 l 1,3,4
 157 1067 157 1067 177 1104.5 c 128,-1,5
 197 1142 197 1142 226 1142 c 0,6,7
 259 1142 259 1142 281 1096 c 128,-1,8
 303 1050 303 1050 309 979 c 1,9,10
 322 1052 322 1052 353.5 1097 c 128,-1,11
 385 1142 385 1142 420 1142 c 0,12,13
 470 1142 470 1142 498 1065 c 0,14,15
 521.757575758 999.666666667 521.757575758 999.666666667 521.757575758 895.457300275 c 0,16,17
 521.757575758 876.848484848 521.757575758 876.848484848 521 857 c 1,18,-1
 521 0 l 1,19,-1
 418 0 l 1,20,-1
 418 792 l 2,21,22
 418 895 418 895 417 943 c 128,-1,23
 416 991 416 991 410.5 1007 c 128,-1,24
 405 1023 405 1023 393 1023 c 0,25,26
 374 1023 374 1023 360.5 977.5 c 128,-1,27
 347 932 347 932 340 866.5 c 128,-1,28
 333 801 333 801 333 737 c 2,29,-1
 333 0 l 1,30,-1
 230 0 l 1,31,-1
 230 776 l 2,32,33
 230 915 230 915 227 966.5 c 128,-1,34
 224 1018 224 1018 201 1018 c 0,35,36
 186 1018 186 1018 165 943.5 c 128,-1,37
 144 869 144 869 144 745 c 2,38,-1
 144 0 l 1,39,-1
 42 0 l 1,0,-1
EndSplineSet
EndChar

StartChar: n
Encoding: 110 110 346
Width: 512
VWidth: 2441
GlyphClass: 2
Flags: HW
AnchorPoint: "Anchor-2" 317 0 basechar 0
AnchorPoint: "Anchor-0" 324 1116 basechar 0
LayerCount: 2
Fore
SplineSet
75 0 m 1,0,-1
 75 1116 l 1,1,-1
 186 1116 l 1,2,-1
 186 943 l 1,3,4
 248.686567164 1142.00497512 248.686567164 1142.00497512 362.85700849 1142.00497512 c 0,5,6
 363.427860697 1142.00497512 363.427860697 1142.00497512 364 1142 c 0,7,8
 422 1142 422 1142 461.5 1108 c 128,-1,9
 501 1074 501 1074 520.5 978.5 c 128,-1,10
 540 883 540 883 540 701 c 2,11,-1
 540 0 l 1,12,-1
 429 0 l 1,13,-1
 429 696 l 2,14,15
 429 871 429 871 409 941 c 128,-1,16
 389 1011 389 1011 340 1011 c 0,17,18
 284 1011 284 1011 235 918 c 128,-1,19
 186 825 186 825 186 666 c 2,20,-1
 186 0 l 1,21,-1
 75 0 l 1,0,-1
EndSplineSet
EndChar

StartChar: eng
Encoding: 331 331 352
Width: 512
VWidth: 2288
GlyphClass: 1
Flags: HW
LayerCount: 2
Fore
SplineSet
282 -246 m 0,0,1
 222 -246 222 -246 179 -188 c 1,2,-1
 216 -65 l 1,3,4
 227 -67 227 -67 231 -81 c 128,-1,5
 235 -95 235 -95 245 -109.5 c 128,-1,6
 255 -124 255 -124 284 -124 c 0,7,8
 338 -124 338 -124 359.5 -30 c 128,-1,9
 381 64 381 64 381 230 c 2,10,-1
 381 726 l 2,11,12
 381 851 381 851 371.5 915 c 128,-1,13
 362 979 362 979 343.5 1001.5 c 128,-1,14
 325 1024 325 1024 300 1024 c 0,15,16
 248 1024 248 1024 205 932.5 c 128,-1,17
 162 841 162 841 162 701 c 2,18,-1
 162 133 l 1,19,-1
 64 133 l 1,20,-1
 64 1119 l 1,21,-1
 162 1119 l 1,22,-1
 162 966 l 1,23,24
 193 1057 193 1057 226 1099.5 c 128,-1,25
 259 1142 259 1142 315 1142 c 0,26,27
 358 1142 358 1142 395 1110 c 128,-1,28
 432 1078 432 1078 453.5 989.5 c 128,-1,29
 475 901 475 901 475 730 c 2,30,-1
 475 254 l 2,31,32
 475 67 475 67 451.5 -42 c 128,-1,33
 428 -151 428 -151 384 -198.5 c 128,-1,34
 340 -246 340 -246 282 -246 c 0,0,1
EndSplineSet
EndChar

StartChar: o
Encoding: 111 111 355
Width: 512
VWidth: 2441
GlyphClass: 2
Flags: HW
AnchorPoint: "Anchor-4" 287 559 basechar 0
AnchorPoint: "Anchor-3" 328 24 basechar 0
AnchorPoint: "Anchor-2" 287 0 basechar 0
AnchorPoint: "Anchor-1" 410 1065 basechar 0
AnchorPoint: "Anchor-0" 287 1116 basechar 0
LayerCount: 2
Fore
SplineSet
287 112 m 128,-1,1
 350 112 350 112 383.5 213.5 c 128,-1,2
 417 315 417 315 417 561 c 0,3,4
 417 815 417 815 382.5 912 c 128,-1,5
 348 1009 348 1009 287 1009 c 0,6,7
 228 1009 228 1009 191 912 c 128,-1,8
 154 815 154 815 154 561 c 0,9,10
 154 314 154 314 189 213 c 128,-1,0
 224 112 224 112 287 112 c 128,-1,1
287 -19 m 0,11,12
 217 -19 217 -19 162 37 c 128,-1,13
 107 93 107 93 76.5 220 c 128,-1,14
 46 347 46 347 46 559 c 0,15,16
 46 774 46 774 76.5 901 c 128,-1,17
 107 1028 107 1028 162 1084 c 128,-1,18
 217 1140 217 1140 287 1140 c 128,-1,19
 357 1140 357 1140 410.5 1084 c 128,-1,20
 464 1028 464 1028 495 901 c 128,-1,21
 526 774 526 774 526 559 c 0,22,23
 526 242 526 242 460 111.5 c 128,-1,24
 394 -19 394 -19 287 -19 c 0,11,12
EndSplineSet
Substitution2: "Single Substitution lookup 29 subtable" ordmasculine
Substitution2: "'aalt' Access All Alternates in Latin lookup 0 subtable" ordmasculine
EndChar

StartChar: oslash
Encoding: 248 248 383
Width: 512
VWidth: 2441
GlyphClass: 2
Flags: HW
AnchorPoint: "Anchor-4" 287 559 basechar 0
AnchorPoint: "Anchor-3" 328 24 basechar 0
AnchorPoint: "Anchor-2" 287 0 basechar 0
AnchorPoint: "Anchor-1" 410 1065 basechar 0
AnchorPoint: "Anchor-0" 287 1116 basechar 0
LayerCount: 2
Fore
SplineSet
287 112 m 0,0,1
 350 112 350 112 383.5 213.5 c 128,-1,2
 417 315 417 315 417 561 c 0,3,4
 417 747 417 747 396 852 c 1,5,-1
 211 161 l 1,6,7
 241 112 241 112 287 112 c 0,0,1
154 561 m 0,8,9
 154 395 154 395 171 296 c 1,10,-1
 352 974 l 1,11,12
 324 1009 324 1009 287 1009 c 0,13,14
 228 1009 228 1009 191 912 c 128,-1,15
 154 815 154 815 154 561 c 0,8,9
139 -114 m 1,16,-1
 68 -91 l 1,17,-1
 118 100 l 1,18,19
 84 166 84 166 65 279.5 c 128,-1,20
 46 393 46 393 46 559 c 0,21,22
 46 774 46 774 76.5 901 c 128,-1,23
 107 1028 107 1028 162 1084 c 128,-1,24
 217 1140 217 1140 287 1140 c 0,25,26
 344 1140 344 1140 387 1106 c 1,27,-1
 426 1250 l 1,28,-1
 496 1225 l 1,29,-1
 446 1037 l 1,30,31
 483 969 483 969 504.5 853 c 128,-1,32
 526 737 526 737 526 559 c 0,33,34
 526 242 526 242 459.5 111.5 c 128,-1,35
 393 -19 393 -19 287 -19 c 0,36,37
 224 -19 224 -19 176 21 c 1,38,-1
 139 -114 l 1,16,-1
EndSplineSet
EndChar

StartChar: oe
Encoding: 339 339 389
Width: 512
VWidth: 2441
GlyphClass: 1
Flags: HW
LayerCount: 2
Fore
SplineSet
151 110 m 128,-1,1
 170 110 170 110 181 141.5 c 128,-1,2
 192 173 192 173 192 217 c 0,3,4
 192 222 192 222 191 235.5 c 128,-1,5
 190 249 190 249 188 273 c 0,6,7
 176 446 176 446 176 581 c 0,8,9
 176 723 176 723 181 795 c 128,-1,10
 186 867 186 867 186 883 c 0,11,12
 186 929 186 929 177 966.5 c 128,-1,13
 168 1004 168 1004 149 1004 c 0,14,15
 136 1004 136 1004 120.5 965.5 c 128,-1,16
 105 927 105 927 96 836 c 128,-1,17
 87 745 87 745 87 583 c 0,18,19
 87 402 87 402 94.5 299 c 128,-1,20
 102 196 102 196 117 153 c 128,-1,0
 132 110 132 110 151 110 c 128,-1,1
269 678 m 1,21,-1
 387 678 l 1,22,23
 387 851 387 851 377 933.5 c 128,-1,24
 367 1016 367 1016 323 1016 c 0,25,26
 286 1016 286 1016 277.5 926.5 c 128,-1,27
 269 837 269 837 269 678 c 1,21,-1
355 -30 m 0,28,29
 284 -30 284 -30 239 56 c 1,30,31
 198 -27 198 -27 141 -27 c 0,32,33
 117 -27 117 -27 91.5 -4 c 128,-1,34
 66 19 66 19 44.5 80.5 c 128,-1,35
 23 142 23 142 9 256.5 c 128,-1,36
 -5 371 -5 371 -5 557 c 0,37,38
 -5 783 -5 783 13.5 909 c 128,-1,39
 32 1035 32 1035 67 1086 c 128,-1,40
 102 1137 102 1137 149 1137 c 0,41,42
 208 1137 208 1137 241 1039 c 1,43,44
 278 1137 278 1137 340 1137 c 0,45,46
 381 1137 381 1137 410 1097 c 128,-1,47
 439 1057 439 1057 455 960.5 c 128,-1,48
 471 864 471 864 471 691 c 2,49,-1
 471 540 l 1,50,-1
 267 540 l 1,51,52
 269 367 269 367 277.5 271 c 128,-1,53
 286 175 286 175 303.5 139 c 128,-1,54
 321 103 321 103 347 103 c 0,55,56
 377 103 377 103 400.5 132 c 128,-1,57
 424 161 424 161 441 207 c 1,58,-1
 475 103 l 1,59,60
 424 -30 424 -30 355 -30 c 0,28,29
EndSplineSet
EndChar

StartChar: p
Encoding: 112 112 390
Width: 512
VWidth: 2304
GlyphClass: 2
Flags: HW
AnchorPoint: "Anchor-2" 295 119 basechar 0
AnchorPoint: "Anchor-0" 295 1118 basechar 0
LayerCount: 2
Fore
SplineSet
292 213 m 0,0,1
 319 213 319 213 341 226.5 c 128,-1,2
 363 240 363 240 378.5 280 c 128,-1,3
 394 320 394 320 402.5 401 c 128,-1,4
 411 482 411 482 411 620 c 0,5,6
 411 787 411 787 398.5 871.5 c 128,-1,7
 386 956 386 956 360 986 c 128,-1,8
 334 1016 334 1016 295 1016 c 0,9,10
 241 1016 241 1016 200.5 917 c 128,-1,11
 160 818 160 818 160 585 c 0,12,13
 162 377 162 377 196.5 295 c 128,-1,14
 231 213 231 213 292 213 c 0,0,1
61 -246 m 1,15,-1
 61 1118 l 1,16,-1
 160 1118 l 1,17,-1
 160 966 l 1,18,19
 177 1041 177 1041 217.5 1090.5 c 128,-1,20
 258 1140 258 1140 311 1140 c 0,21,22
 357 1140 357 1140 392.5 1121.5 c 128,-1,23
 428 1103 428 1103 456 1050.5 c 128,-1,24
 484 998 484 998 497.5 896.5 c 128,-1,25
 511 795 511 795 511 626 c 0,26,27
 511 416 511 416 487 300 c 128,-1,28
 463 184 463 184 417 138 c 128,-1,29
 371 92 371 92 306 92 c 0,30,31
 256 92 256 92 216.5 134 c 128,-1,32
 177 176 177 176 160 250 c 1,33,-1
 160 -246 l 1,34,-1
 61 -246 l 1,15,-1
EndSplineSet
EndChar

StartChar: thorn
Encoding: 254 254 391
Width: 512
VWidth: 2374
GlyphClass: 1
Flags: HW
LayerCount: 2
Fore
SplineSet
301 226 m 0,0,1
 328 226 328 226 350.5 239.5 c 128,-1,2
 373 253 373 253 389 294.5 c 128,-1,3
 405 336 405 336 413.5 419 c 128,-1,4
 422 502 422 502 422 644 c 0,5,6
 422 815 422 815 409.5 902 c 128,-1,7
 397 989 397 989 370 1020 c 128,-1,8
 343 1051 343 1051 303 1051 c 0,9,10
 247 1051 247 1051 206 949.5 c 128,-1,11
 165 848 165 848 165 608 c 0,12,13
 167 394 167 394 202.5 310 c 128,-1,14
 238 226 238 226 301 226 c 0,0,1
63 1624 m 1,15,-1
 184 1624 l 1,16,-1
 184 1608 l 1,17,18
 171 1595 171 1595 168 1579 c 128,-1,19
 165 1563 165 1563 165 1525 c 2,20,-1
 165 999 l 1,21,22
 183 1076 183 1076 224.5 1127 c 128,-1,23
 266 1178 266 1178 319 1178 c 0,24,25
 366 1178 366 1178 403 1159.5 c 128,-1,26
 440 1141 440 1141 468.5 1086.5 c 128,-1,27
 497 1032 497 1032 511.5 928 c 128,-1,28
 526 824 526 824 526 650 c 0,29,30
 526 434 526 434 501 315 c 128,-1,31
 476 196 476 196 429 149 c 128,-1,32
 382 102 382 102 315 102 c 0,33,34
 263 102 263 102 222.5 144.5 c 128,-1,35
 182 187 182 187 165 264 c 1,36,-1
 165 -246 l 1,37,-1
 63 -246 l 1,38,-1
 63 1624 l 1,15,-1
EndSplineSet
EndChar

StartChar: q
Encoding: 113 113 392
Width: 512
VWidth: 2305
GlyphClass: 1
Flags: HW
LayerCount: 2
Fore
SplineSet
267 226 m 0,0,1
 324 226 324 226 358 327 c 128,-1,2
 392 428 392 428 392 647 c 0,3,4
 392 853 392 853 356.5 940 c 128,-1,5
 321 1027 321 1027 271 1027 c 0,6,7
 204 1027 204 1027 173 938.5 c 128,-1,8
 142 850 142 850 142 629 c 0,9,10
 142 414 142 414 171 320 c 128,-1,11
 200 226 200 226 267 226 c 0,0,1
394 -246 m 1,12,-1
 394 251 l 1,13,14
 373 168 373 168 337.5 131.5 c 128,-1,15
 304.696202532 97.7721518987 304.696202532 97.7721518987 259.511296267 97.7721518987 c 0,0,0
 255.797468354 97.7721518987 255.797468354 97.7721518987 252 98 c 0,16,17
 145 102 145 102 93.5 228.5 c 128,-1,18
 42 355 42 355 42 622 c 0,19,20
 42 791 42 791 58.5 893.5 c 128,-1,21
 75 996 75 996 104 1051 c 128,-1,22
 133 1106 133 1106 173 1126 c 128,-1,23
 213 1146 213 1146 258 1146 c 0,24,25
 317 1146 317 1146 348.5 1096 c 128,-1,26
 380 1046 380 1046 396 966 c 1,27,-1
 396 1119 l 1,28,-1
 492 1119 l 1,29,-1
 492 -246 l 1,30,-1
 394 -246 l 1,12,-1
EndSplineSet
EndChar

StartChar: r
Encoding: 114 114 393
Width: 512
VWidth: 2441
GlyphClass: 2
Flags: HW
AnchorPoint: "Anchor-2" 323 0 basechar 0
AnchorPoint: "Anchor-0" 367 1118 basechar 0
LayerCount: 2
Fore
SplineSet
83 1116 m 1,0,-1
 208 1116 l 1,1,-1
 205 930 l 1,2,3
 234 1040 234 1040 292 1091 c 128,-1,4
 350 1142 350 1142 406 1142 c 0,5,6
 505 1142 505 1142 563 1020 c 1,7,-1
 524 883 l 1,8,-1
 519 859 l 1,9,-1
 502 864 l 1,10,11
 493 883 493 883 492 911 c 128,-1,12
 491 939 491 939 466 972 c 0,13,14
 429 1016 429 1016 399 1016 c 0,15,16
 360 1016 360 1016 314 968 c 128,-1,17
 268 920 268 920 236.5 826 c 128,-1,18
 205 732 205 732 205 591 c 2,19,-1
 205 -2 l 1,20,-1
 83 -2 l 1,21,-1
 83 1116 l 1,0,-1
EndSplineSet
EndChar

StartChar: uni027B
Encoding: 635 635 399
Width: 512
VWidth: 2281
GlyphClass: 1
Flags: HW
LayerCount: 2
Fore
SplineSet
407 -246 m 0,0,1
 378 -246 378 -246 342 -220.5 c 128,-1,2
 306 -195 306 -195 283 -132 c 128,-1,3
 260 -69 260 -69 260 46 c 2,4,-1
 263 276 l 1,5,6
 245 190 245 190 211 150 c 128,-1,7
 177 110 177 110 134 110 c 0,8,9
 101 110 101 110 74.5 126 c 128,-1,10
 48 142 48 142 22 196 c 1,11,-1
 52 316 l 1,12,-1
 57 338 l 1,13,-1
 66 336 l 1,14,15
 70 321 70 321 71 304.5 c 128,-1,16
 72 288 72 288 82 271 c 0,17,18
 102 243 102 243 138 243 c 0,19,20
 186 243 186 243 223 327 c 128,-1,21
 260 411 260 411 260 596 c 2,22,-1
 260 1118 l 1,23,-1
 365 1118 l 1,24,-1
 365 46 l 2,25,26
 365 -114 365 -114 419 -114 c 0,27,28
 429 -114 429 -114 439.5 -109 c 128,-1,29
 450 -104 450 -104 456 -94 c 0,30,31
 464 -81 464 -81 466.5 -68 c 128,-1,32
 469 -55 469 -55 477 -53 c 1,33,-1
 502 -186 l 1,34,35
 482 -221 482 -221 460 -233.5 c 128,-1,36
 438 -246 438 -246 407 -246 c 0,0,1
EndSplineSet
EndChar

StartChar: uni024D
Encoding: 589 589 402
Width: 512
VWidth: 2441
GlyphClass: 2
Flags: HW
AnchorPoint: "Anchor-2" 299 0 basechar 0
AnchorPoint: "Anchor-0" 339 1118 basechar 0
LayerCount: 2
Fore
SplineSet
40 420 m 1,0,-1
 40 557 l 1,1,-1
 76 557 l 1,2,-1
 76 1116 l 1,3,-1
 192 1116 l 1,4,-1
 190 930 l 1,5,6
 217 1040 217 1040 270.5 1091 c 128,-1,7
 324 1142 324 1142 375 1142 c 0,8,9
 467 1142 467 1142 520 1020 c 1,10,-1
 484 883 l 1,11,-1
 480 859 l 1,12,-1
 465 864 l 1,13,14
 456 883 456 883 455 911 c 128,-1,15
 454 939 454 939 431 972 c 0,16,17
 397 1016 397 1016 369 1016 c 0,18,19
 333 1016 333 1016 290.5 968 c 128,-1,20
 248 920 248 920 219 826 c 128,-1,21
 190 732 190 732 190 591 c 2,22,-1
 190 557 l 1,23,-1
 341 557 l 1,24,-1
 341 420 l 1,25,-1
 190 420 l 1,26,-1
 190 -2 l 1,27,-1
 76 -2 l 1,28,-1
 76 420 l 1,29,-1
 40 420 l 1,0,-1
EndSplineSet
EndChar

StartChar: s
Encoding: 115 115 403
Width: 512
VWidth: 2441
GlyphClass: 1
Flags: HW
LayerCount: 2
Fore
SplineSet
284 -24 m 0,0,1
 186 -24 186 -24 133.5 9 c 128,-1,2
 81 42 81 42 49 86 c 1,3,-1
 103 215 l 1,4,-1
 110 237 l 1,5,-1
 124 232 l 1,6,7
 131 215 131 215 135 191.5 c 128,-1,8
 139 168 139 168 161 139 c 1,9,10
 191 115 191 115 222.5 105 c 128,-1,11
 254 95 254 95 286 95 c 0,12,13
 342 95 342 95 376 149 c 128,-1,14
 410 203 410 203 410 300 c 0,15,16
 410 370 410 370 388 415.5 c 128,-1,17
 366 461 366 461 296 508 c 0,18,19
 193 578 193 578 133 650 c 128,-1,20
 73 722 73 722 73 855 c 0,21,22
 73 979 73 979 129.5 1060.5 c 128,-1,23
 186 1142 186 1142 303 1142 c 0,24,25
 471 1142 471 1142 525 991 c 1,26,-1
 466 876 l 1,27,-1
 457 855 l 1,28,-1
 442 862 l 1,29,30
 435 881 435 881 437.5 908 c 0,31,32
 437.777777778 911 437.777777778 911 437.777777778 914.12345679 c 0,33,34
 437.777777778 939.111111111 437.777777778 939.111111111 420 972 c 1,35,36
 381.709090909 1025.01818182 381.709090909 1025.01818182 312.571239669 1025.01818182 c 0,37,38
 311.290909091 1025.01818182 311.290909091 1025.01818182 310 1025 c 0,39,40
 240 1025 240 1025 214 977.5 c 128,-1,41
 188 930 188 930 188 871 c 0,42,43
 188 815 188 815 199 780 c 128,-1,44
 210 745 210 745 241.5 713 c 128,-1,45
 273 681 273 681 333 634 c 0,46,47
 401 583 401 583 442.5 546.5 c 128,-1,48
 484 510 484 510 504.5 461 c 128,-1,49
 525 412 525 412 525 324 c 0,50,51
 525 138 525 138 457 57 c 128,-1,52
 389 -24 389 -24 284 -24 c 0,0,1
EndSplineSet
EndChar

StartChar: germandbls
Encoding: 223 223 414
Width: 512
VWidth: 2441
GlyphClass: 1
Flags: HW
LayerCount: 2
Fore
SplineSet
329 -24 m 0,0,1
 297 -24 297 -24 262.5 -9.5 c 128,-1,2
 228 5 228 5 203 35 c 1,3,-1
 241 166 l 1,4,5
 275 108 275 108 323 107 c 0,6,7
 357 107 357 107 378 157 c 128,-1,8
 399 207 399 207 410.5 290 c 128,-1,9
 422 373 422 373 422 471 c 0,10,11
 422 562 422 562 410.5 634 c 128,-1,12
 399 706 399 706 368.5 750 c 128,-1,13
 338 794 338 794 277 794 c 2,14,-1
 243 794 l 1,15,-1
 243 923 l 1,16,-1
 284 923 l 2,17,18
 370 923 370 923 370 1197 c 0,19,20
 370 1321 370 1321 348.5 1408.5 c 128,-1,21
 327 1496 327 1496 273 1496 c 0,22,23
 221 1496 221 1496 195.5 1368 c 128,-1,24
 170 1240 170 1240 170 1037 c 2,25,-1
 170 0 l 1,26,-1
 54 0 l 1,27,-1
 54 1032 l 2,28,29
 54 1264 54 1264 81 1395 c 128,-1,30
 108 1526 108 1526 155.5 1579.5 c 128,-1,31
 203 1633 203 1633 262 1633 c 0,32,33
 361 1633 361 1633 422.5 1528 c 128,-1,34
 484 1423 484 1423 484 1204 c 0,35,36
 484 1099 484 1099 466.5 1011 c 128,-1,37
 449 923 449 923 406 876 c 1,38,39
 464 837 464 837 499 741 c 128,-1,40
 534 645 534 645 534 442 c 0,41,42
 534 198 534 198 473.5 87 c 128,-1,43
 413 -24 413 -24 329 -24 c 0,0,1
EndSplineSet
EndChar

StartChar: t
Encoding: 116 116 415
Width: 512
VWidth: 2441
GlyphClass: 2
Flags: HW
AnchorPoint: "Anchor-4" 245 762 basechar 0
AnchorPoint: "Anchor-2" 339 0 basechar 0
AnchorPoint: "Anchor-1" 363 1116 basechar 0
AnchorPoint: "Anchor-0" 279 1433 basechar 0
LayerCount: 2
Fore
SplineSet
372 -30 m 0,0,1
 302 -30 302 -30 260 26.5 c 128,-1,2
 218 83 218 83 202.5 221 c 0,3,4
 190.780487805 325.341463415 190.780487805 325.341463415 190.780487805 491.996430696 c 0,5,6
 190.780487805 545.756097561 190.780487805 545.756097561 192 606 c 2,7,-1
 199 945 l 1,8,-1
 72 945 l 1,9,-1
 72 1076 l 1,10,-1
 201 1076 l 1,11,-1
 206 1402 l 1,12,-1
 324 1423 l 1,13,-1
 349 1428 l 1,14,-1
 351 1411 l 1,15,16
 342 1394 342 1394 333 1376 c 128,-1,17
 324 1358 324 1358 322 1316 c 2,18,-1
 312 1076 l 1,19,-1
 494 1076 l 1,20,-1
 494 945 l 1,21,-1
 314 945 l 1,22,-1
 305 594 l 2,23,24
 303.310344828 531.482758621 303.310344828 531.482758621 303.310344828 477.559453032 c 0,25,26
 303.310344828 308.086206897 303.310344828 308.086206897 320 223.5 c 0,27,28
 342 112 342 112 393 112 c 0,29,30
 434 112 434 112 467.5 148 c 128,-1,31
 501 184 501 184 523 215 c 1,32,-1
 552 81 l 1,33,34
 511 20 511 20 465.5 -5 c 128,-1,35
 420 -30 420 -30 372 -30 c 0,0,1
EndSplineSet
EndChar

StartChar: tbar
Encoding: 359 359 416
Width: 512
VWidth: 2441
GlyphClass: 2
Flags: HW
AnchorPoint: "Anchor-4" 245 762 basechar 0
AnchorPoint: "Anchor-2" 339 0 basechar 0
AnchorPoint: "Anchor-1" 363 1116 basechar 0
AnchorPoint: "Anchor-0" 279 1433 basechar 0
LayerCount: 2
Fore
SplineSet
372 -30 m 0,0,1
 305 -30 305 -30 263.5 20 c 128,-1,2
 222 70 222 70 205.5 194.5 c 0,3,4
 191.538461538 299.846153846 191.538461538 299.846153846 191.538461538 474.284023669 c 0,5,6
 191.538461538 506 191.538461538 506 192 540 c 1,7,-1
 74 540 l 1,8,-1
 74 676 l 1,9,-1
 194 676 l 1,10,-1
 199 945 l 1,11,-1
 72 945 l 1,12,-1
 72 1076 l 1,13,-1
 201 1076 l 1,14,-1
 206 1402 l 1,15,-1
 324 1423 l 1,16,-1
 349 1428 l 1,17,-1
 351 1411 l 1,18,19
 342 1394 342 1394 333 1376 c 128,-1,20
 324 1358 324 1358 322 1316 c 2,21,-1
 312 1076 l 1,22,-1
 494 1076 l 1,23,-1
 494 945 l 1,24,-1
 314 945 l 1,25,-1
 307 676 l 1,26,-1
 472 676 l 1,27,-1
 472 540 l 1,28,-1
 305 540 l 1,29,30
 304.074074074 497.407407407 304.074074074 497.407407407 304.074074074 459.307270233 c 0,31,32
 304.074074074 291.666666667 304.074074074 291.666666667 322 211 c 0,33,34
 344 112 344 112 393 112 c 0,35,36
 434 112 434 112 467.5 148 c 128,-1,37
 501 184 501 184 523 215 c 1,38,-1
 552 81 l 1,39,40
 511 20 511 20 465.5 -5 c 128,-1,41
 420 -30 420 -30 372 -30 c 0,0,1
EndSplineSet
EndChar

StartChar: u
Encoding: 117 117 423
Width: 512
VWidth: 2441
GlyphClass: 2
Flags: HW
AnchorPoint: "Anchor-3" 461 0 basechar 0
AnchorPoint: "Anchor-2" 273 0 basechar 0
AnchorPoint: "Anchor-1" 520 1116 basechar 0
AnchorPoint: "Anchor-0" 298 1116 basechar 0
LayerCount: 2
Fore
SplineSet
273 -27 m 0,0,1
 205 -27 205 -27 162 12 c 128,-1,2
 119 51 119 51 100 163 c 128,-1,3
 81 275 81 275 81 494 c 2,4,-1
 83 1116 l 1,5,-1
 205 1116 l 1,6,-1
 205 494 l 2,7,8
 205 352 205 352 211 272.5 c 128,-1,9
 217 193 217 193 229.5 157.5 c 128,-1,10
 242 122 242 122 257.5 113.5 c 128,-1,11
 273 105 273 105 296 105 c 0,12,13
 342 105 342 105 375 202.5 c 128,-1,14
 408 300 408 300 408 501 c 2,15,-1
 408 1116 l 1,16,-1
 529 1116 l 1,17,-1
 529 173 l 2,18,19
 529 129 529 129 530.5 86.5 c 128,-1,20
 532 44 532 44 542 0 c 1,21,-1
 429 0 l 1,22,23
 419 42 419 42 415.5 73.5 c 128,-1,24
 412 105 412 105 412 147 c 1,25,26
 398 72 398 72 367 22.5 c 128,-1,27
 336 -27 336 -27 273 -27 c 0,0,1
EndSplineSet
EndChar

StartChar: v
Encoding: 118 118 446
Width: 512
VWidth: 2441
GlyphClass: 2
Flags: HW
AnchorPoint: "Anchor-2" 293 0 basechar 0
AnchorPoint: "Anchor-0" 293 1116 basechar 0
LayerCount: 2
Fore
SplineSet
240 0 m 1,0,-1
 51 1116 l 1,1,-1
 161 1116 l 1,2,-1
 297 286 l 1,3,-1
 365 654 l 2,4,5
 391 789 391 789 403.5 903.5 c 128,-1,6
 416 1018 416 1018 425 1116 c 1,7,-1
 531 1116 l 1,8,9
 522 1013 522 1013 504.5 891 c 128,-1,10
 487 769 487 769 462 627 c 2,11,-1
 346 0 l 1,12,-1
 240 0 l 1,0,-1
EndSplineSet
EndChar

StartChar: w
Encoding: 119 119 447
Width: 512
VWidth: 2441
GlyphClass: 2
Flags: HW
AnchorPoint: "Anchor-2" 257 0 basechar 0
AnchorPoint: "Anchor-0" 257 1116 basechar 0
LayerCount: 2
Fore
SplineSet
100 -2 m 1,0,-1
 16 1116 l 1,1,-1
 111 1116 l 1,2,-1
 169 286 l 1,3,-1
 218 913 l 1,4,-1
 310 913 l 1,5,-1
 377 286 l 1,6,7
 387 465 387 465 392 628.5 c 128,-1,8
 397 792 397 792 399 912 c 128,-1,9
 401 1032 401 1032 401 1079 c 2,10,-1
 401 1116 l 1,11,-1
 496 1116 l 1,12,13
 482 832 482 832 466.5 553.5 c 128,-1,14
 451 275 451 275 428 -2 c 1,15,-1
 316 -2 l 1,16,-1
 265 625 l 1,17,-1
 210 -2 l 1,18,-1
 100 -2 l 1,0,-1
EndSplineSet
EndChar

StartChar: x
Encoding: 120 120 452
Width: 512
VWidth: 2441
GlyphClass: 2
Flags: HW
AnchorPoint: "Anchor-2" 293 0 basechar 0
AnchorPoint: "Anchor-0" 293 1116 basechar 0
LayerCount: 2
Fore
SplineSet
54 0 m 1,0,-1
 234 566 l 1,1,-1
 58 1116 l 1,2,-1
 163 1116 l 1,3,-1
 290 727 l 1,4,-1
 409 1116 l 1,5,-1
 510 1116 l 1,6,-1
 346 573 l 1,7,-1
 534 0 l 1,8,-1
 424 0 l 1,9,-1
 290 410 l 1,10,-1
 163 0 l 1,11,-1
 54 0 l 1,0,-1
EndSplineSet
EndChar

StartChar: y
Encoding: 121 121 453
Width: 512
VWidth: 2286
GlyphClass: 2
Flags: HW
AnchorPoint: "Anchor-2" 410 129 basechar 0
AnchorPoint: "Anchor-0" 285 1116 basechar 0
LayerCount: 2
Fore
SplineSet
149 -246 m 0,0,1
 79 -246 79 -246 35 -162 c 1,2,-1
 70 -56 l 1,3,-1
 76 -35 l 1,4,-1
 89 -42 l 1,5,6
 100 -57 100 -57 104 -78 c 128,-1,7
 108 -99 108 -99 132 -126 c 1,8,9
 145 -130 145 -130 153 -130 c 0,10,11
 196 -130 196 -130 209 -60 c 128,-1,12
 222 10 222 10 243 142 c 1,13,-1
 249 172 l 1,14,-1
 56 1116 l 1,15,-1
 164 1116 l 1,16,-1
 294 446 l 1,17,-1
 339 723 l 2,18,19
 356 822 356 822 370.5 919.5 c 128,-1,20
 385 1017 385 1017 391 1116 c 1,21,-1
 494 1116 l 1,22,23
 486 1017 486 1017 469.5 915 c 128,-1,24
 453 813 453 813 436 712 c 2,25,-1
 313 18 l 2,26,27
 287 -126 287 -126 244 -186 c 128,-1,28
 201 -246 201 -246 149 -246 c 0,0,1
EndSplineSet
EndChar

StartChar: z
Encoding: 122 122 463
Width: 512
VWidth: 2441
GlyphClass: 2
Flags: HW
AnchorPoint: "Anchor-2" 359 0 basechar 0
AnchorPoint: "Anchor-0" 359 1116 basechar 0
LayerCount: 2
Fore
SplineSet
60 105 m 1,0,-1
 386 981 l 1,1,-1
 87 981 l 1,2,-1
 87 1116 l 1,3,-1
 510 1116 l 1,4,-1
 510 1011 l 1,5,-1
 192 132 l 1,6,-1
 434 132 l 2,7,8
 475 132 475 132 491.5 137 c 128,-1,9
 508 142 508 142 522 156 c 1,10,-1
 540 156 l 1,11,-1
 540 0 l 1,12,-1
 60 0 l 1,13,-1
 60 105 l 1,0,-1
EndSplineSet
EndChar

StartChar: u.i
Encoding: 65539 -1 468
Width: 512
VWidth: 2441
GlyphClass: 2
Flags: HW
AnchorPoint: "Anchor-3" 424 0 basechar 0
AnchorPoint: "Anchor-2" 252 0 basechar 0
AnchorPoint: "Anchor-1" 466 1116 basechar 0
AnchorPoint: "Anchor-0" 259 1116 basechar 0
LayerCount: 2
Fore
SplineSet
235 -27 m 0,0,1
 169 -27 169 -27 128.5 12 c 128,-1,2
 88 51 88 51 68.5 163 c 0,3,4
 50.8139534884 264.581395349 50.8139534884 264.581395349 50.8139534884 454.181719849 c 0,5,6
 50.8139534884 473.627906977 50.8139534884 473.627906977 51 494 c 2,7,-1
 54 1116 l 1,8,-1
 168 1116 l 1,9,-1
 168 494 l 2,10,11
 168 352 168 352 174.5 272.5 c 128,-1,12
 181 193 181 193 192 157.5 c 128,-1,13
 203 122 203 122 219 113.5 c 128,-1,14
 235 105 235 105 254 105 c 0,15,16
 298 105 298 105 329.5 202.5 c 128,-1,17
 361 300 361 300 361 501 c 2,18,-1
 361 1116 l 1,19,-1
 478 1116 l 1,20,-1
 478 173 l 2,21,22
 478 129 478 129 479 86.5 c 128,-1,23
 480 44 480 44 489 0 c 1,24,-1
 384 0 l 1,25,26
 374 42 374 42 370 73.5 c 128,-1,27
 366 105 366 105 366 147 c 1,28,29
 352 72 352 72 322.5 22.5 c 128,-1,30
 293 -27 293 -27 235 -27 c 0,0,1
EndSplineSet
EndChar

StartChar: r.serif
Encoding: 65540 -1 469
Width: 512
VWidth: 2441
GlyphClass: 1
Flags: HW
LayerCount: 2
Fore
SplineSet
94 -2 m 1,0,-1
 94 130 l 1,1,-1
 153 130 l 1,2,-1
 153 983 l 1,3,-1
 96 983 l 1,4,-1
 96 1116 l 1,5,-1
 276 1116 l 1,6,-1
 274 927 l 1,7,8
 301 1020 301 1020 338.5 1080 c 128,-1,9
 376 1140 376 1140 434 1140 c 0,10,11
 515 1140 515 1140 574 1020 c 1,12,-1
 534 852 l 1,13,14
 518 857 518 857 510 880.5 c 128,-1,15
 502 904 502 904 494 932 c 128,-1,16
 486 960 486 960 468.5 980.5 c 128,-1,17
 451 1001 451 1001 415 1001 c 0,18,19
 382 1001 382 1001 349 938.5 c 128,-1,20
 316 876 316 876 295 776 c 128,-1,21
 274 676 274 676 274 561 c 2,22,-1
 274 130 l 1,23,-1
 367 130 l 1,24,-1
 367 -2 l 1,25,-1
 94 -2 l 1,0,-1
EndSplineSet
EndChar

StartChar: ordfeminine
Encoding: 170 170 470
Width: 512
VWidth: 2441
GlyphClass: 1
Flags: HW
LayerCount: 2
Fore
SplineSet
93 513 m 1,0,-1
 520 513 l 1,1,-1
 520 393 l 1,2,-1
 93 393 l 1,3,-1
 93 513 l 1,0,-1
210 892 m 0,4,5
 210 748 210 748 278 747 c 0,6,7
 381 747 381 747 386 1062 c 1,8,9
 359 1067 359 1067 333 1067 c 0,10,11
 275 1067 275 1067 242.5 1029.5 c 128,-1,12
 210 992 210 992 210 892 c 0,4,5
263 632 m 0,13,14
 195 632 195 632 157 705 c 128,-1,15
 119 778 119 778 119 883 c 0,16,17
 119 1058 119 1058 177 1119.5 c 128,-1,18
 235 1181 235 1181 327 1181 c 0,19,20
 351 1181 351 1181 386 1174 c 1,21,22
 384 1318 384 1318 366.5 1367 c 128,-1,23
 349 1416 349 1416 291 1416 c 0,24,25
 240 1416 240 1416 191 1351 c 1,26,-1
 147 1442 l 1,27,28
 179 1484 179 1484 215.5 1508.5 c 128,-1,29
 252 1533 252 1533 300 1533 c 0,30,31
 368 1533 368 1533 406.5 1499 c 128,-1,32
 445 1465 445 1465 461.5 1373 c 128,-1,33
 478 1281 478 1281 478 1109 c 2,34,-1
 478 652 l 1,35,-1
 391 652 l 1,36,-1
 391 771 l 1,37,38
 370 685 370 685 335 658.5 c 128,-1,39
 300 632 300 632 263 632 c 0,13,14
EndSplineSet
EndChar

StartChar: ordmasculine
Encoding: 186 186 471
Width: 512
VWidth: 2441
GlyphClass: 1
Flags: HW
LayerCount: 2
Fore
SplineSet
93 513 m 1,0,-1
 520 513 l 1,1,-1
 520 393 l 1,2,-1
 93 393 l 1,3,-1
 93 513 l 1,0,-1
308 750 m 0,4,5
 357 750 357 750 379 824.5 c 128,-1,6
 401 899 401 899 401 1084 c 0,7,8
 401 1277 401 1277 377.5 1349 c 128,-1,9
 354 1421 354 1421 308 1421 c 0,10,11
 264 1421 264 1421 238 1349 c 128,-1,12
 212 1277 212 1277 212 1084 c 0,13,14
 212 898 212 898 237 824 c 128,-1,15
 262 750 262 750 308 750 c 0,4,5
308 638 m 128,-1,17
 222 638 222 638 168 734 c 128,-1,18
 114 830 114 830 114 1081 c 0,19,20
 114 1254 114 1254 138.5 1352.5 c 128,-1,21
 163 1451 163 1451 207.5 1492 c 128,-1,22
 252 1533 252 1533 308 1533 c 128,-1,23
 364 1533 364 1533 406.5 1492 c 128,-1,24
 449 1451 449 1451 473.5 1353 c 128,-1,25
 498 1255 498 1255 498 1081 c 0,26,27
 498 829 498 829 446 733.5 c 128,-1,16
 394 638 394 638 308 638 c 128,-1,17
EndSplineSet
EndChar

StartChar: uni2124
Encoding: 8484 8484 473
Width: 512
VWidth: 2441
GlyphClass: 1
Flags: HW
LayerCount: 2
Fore
SplineSet
471 1416 m 1,0,-1
 405 1416 l 1,1,-1
 128 103 l 1,2,-1
 192 103 l 1,3,-1
 471 1416 l 1,0,-1
538 1521 m 1,4,-1
 538 1402 l 1,5,-1
 264 103 l 1,6,-1
 436 103 l 2,7,8
 476 103 476 103 492 107.5 c 128,-1,9
 508 112 508 112 522 126 c 1,10,-1
 538 126 l 1,11,-1
 538 0 l 1,12,-1
 58 0 l 1,13,-1
 58 119 l 1,14,-1
 336 1416 l 1,15,-1
 60 1416 l 1,16,-1
 60 1521 l 1,17,-1
 538 1521 l 1,4,-1
EndSplineSet
EndChar

StartChar: zero
Encoding: 48 48 474
Width: 512
VWidth: 2441
GlyphClass: 1
Flags: HW
LayerCount: 2
Fore
SplineSet
298 110 m 0,0,1
 355 110 355 110 386 261 c 128,-1,2
 417 412 417 412 417 752 c 0,3,4
 417 847 417 847 415 930 c 1,5,-1
 196 361 l 1,6,7
 212 229 212 229 239.5 169.5 c 128,-1,8
 267 110 267 110 298 110 c 0,0,1
177 752 m 0,9,10
 177 635 177 635 182 535 c 1,11,-1
 403 1113 l 1,12,13
 374 1394 374 1394 298 1394 c 0,14,15
 248 1394 248 1394 212.5 1235 c 128,-1,16
 177 1076 177 1076 177 752 c 0,9,10
298 -27 m 0,17,18
 188 -27 188 -27 122.5 157.5 c 128,-1,19
 57 342 57 342 57 752 c 0,20,21
 57 1150 57 1150 123 1340.5 c 128,-1,22
 189 1531 189 1531 298 1531 c 0,23,24
 410 1531 410 1531 473.5 1340.5 c 128,-1,25
 537 1150 537 1150 537 752 c 0,26,27
 537 342 537 342 473.5 157.5 c 128,-1,28
 410 -27 410 -27 298 -27 c 0,17,18
EndSplineSet
Substitution2: "'ss02' Style Set 2 in Latin lookup 36 subtable" zero.ss02
Substitution2: "'zero' Slashed Zero in Latin lookup 33 subtable" zero.zero
Substitution2: "'frac' Diagonal Fractions in Latin lookup 24 subtable" zero.numr
Substitution2: "'dnom' Denominators in Latin lookup 22 subtable" zero.dnom
Substitution2: "'numr' Numerators in Latin lookup 21 subtable" zero.numr
Substitution2: "'sups' Superscript in Latin lookup 20 subtable" uni2070
Substitution2: "'subs' Subscript in Latin lookup 19 subtable" uni2080
AlternateSubs2: "'aalt' Access All Alternates in Latin lookup 1 subtable" zero.zero zero.ss02 uni2080 zero.dnom zero.numr uni2070
EndChar

StartChar: one
Encoding: 49 49 475
Width: 512
VWidth: 2441
GlyphClass: 1
Flags: HW
LayerCount: 2
Fore
SplineSet
261 0 m 1,0,-1
 261 1286 l 1,1,-1
 112 1197 l 1,2,-1
 93 1316 l 1,3,-1
 308 1523 l 1,4,-1
 386 1523 l 1,5,-1
 386 0 l 1,6,-1
 261 0 l 1,0,-1
EndSplineSet
Substitution2: "'frac' Diagonal Fractions in Latin lookup 24 subtable" one.numr
Substitution2: "'dnom' Denominators in Latin lookup 22 subtable" one.dnom
Substitution2: "'numr' Numerators in Latin lookup 21 subtable" one.numr
Substitution2: "'sups' Superscript in Latin lookup 20 subtable" uni00B9
Substitution2: "'subs' Subscript in Latin lookup 19 subtable" uni2081
AlternateSubs2: "'aalt' Access All Alternates in Latin lookup 1 subtable" uni2081 one.dnom one.numr uni00B9
EndChar

StartChar: two
Encoding: 50 50 476
Width: 512
VWidth: 2441
GlyphClass: 1
Flags: HW
LayerCount: 2
Fore
SplineSet
91 126 m 1,0,1
 201 350 201 350 269 519.5 c 128,-1,2
 337 689 337 689 372.5 826.5 c 128,-1,3
 408 964 408 964 410 1101 c 0,4,5
 410.757575758 1125.09090909 410.757575758 1125.09090909 410.757575758 1147.0697888 c 0,0,0
 410.757575758 1270.15151515 410.757575758 1270.15151515 387 1327 c 128,-1,6
 359 1394 359 1394 315 1394 c 0,7,8
 276 1394 276 1394 250 1372.5 c 128,-1,9
 224 1351 224 1351 203 1286 c 0,10,11
 191 1247 191 1247 191 1230.5 c 128,-1,12
 191 1214 191 1214 200 1193 c 1,13,-1
 196 1177 l 1,14,-1
 170 1184 l 1,15,-1
 66 1218 l 1,16,17
 103 1360 103 1360 160 1445.5 c 128,-1,18
 217 1531 217 1531 315 1531 c 0,19,20
 429 1531 429 1531 480.5 1423.5 c 128,-1,21
 532 1316 532 1316 532 1097 c 0,22,23
 532 862 532 862 446.5 631.5 c 128,-1,24
 361 401 361 401 235 137 c 1,25,-1
 429 137 l 2,26,27
 471 137 471 137 488 142 c 128,-1,28
 505 147 505 147 520 161 c 1,29,-1
 538 161 l 1,30,-1
 538 0 l 1,31,-1
 91 0 l 1,32,-1
 91 126 l 1,0,1
EndSplineSet
Substitution2: "'frac' Diagonal Fractions in Latin lookup 24 subtable" two.numr
Substitution2: "'dnom' Denominators in Latin lookup 22 subtable" two.dnom
Substitution2: "'numr' Numerators in Latin lookup 21 subtable" two.numr
Substitution2: "'sups' Superscript in Latin lookup 20 subtable" uni00B2
Substitution2: "'subs' Subscript in Latin lookup 19 subtable" uni2082
AlternateSubs2: "'aalt' Access All Alternates in Latin lookup 1 subtable" uni2082 two.dnom two.numr uni00B2
EndChar

StartChar: three
Encoding: 51 51 477
Width: 512
VWidth: 2441
GlyphClass: 1
Flags: HW
LayerCount: 2
Fore
SplineSet
293 -27 m 0,0,1
 207 -27 207 -27 156 30.5 c 128,-1,2
 105 88 105 88 63 173 c 1,3,-1
 161 244 l 1,4,-1
 181 259 l 1,5,-1
 191 247 l 1,6,7
 189 226 189 226 191 206 c 128,-1,8
 193 186 193 186 212 151 c 1,9,10
 247 107 247 107 288 107 c 0,11,12
 344 107 344 107 374.5 190 c 128,-1,13
 405 273 405 273 405 424 c 0,14,15
 405 597 405 597 357.5 673.5 c 128,-1,16
 319.844559585 734.14507772 319.844559585 734.14507772 246.053451099 734.14507772 c 0,0,0
 226.761658031 734.14507772 226.761658031 734.14507772 205 730 c 1,17,-1
 205 857 l 1,18,19
 288 857 288 857 324.5 900 c 128,-1,20
 361 943 361 943 370.5 1012 c 128,-1,21
 380 1081 380 1081 380 1160 c 0,22,23
 380 1282 380 1282 354.5 1339 c 128,-1,24
 329 1396 329 1396 288 1396 c 0,25,26
 256 1396 256 1396 230.5 1363 c 128,-1,27
 205 1330 205 1330 186 1272 c 1,28,-1
 86 1328 l 1,29,30
 125 1423 125 1423 174.5 1477 c 128,-1,31
 224 1531 224 1531 298 1531 c 0,32,33
 391 1531 391 1531 448 1436.5 c 128,-1,34
 505 1342 505 1342 505 1153 c 0,35,36
 505 1034 505 1034 478.5 942 c 128,-1,37
 452 850 452 850 391 811 c 1,38,39
 454 769 454 769 491.5 671 c 128,-1,40
 529 573 529 573 529 417 c 0,41,42
 529 210 529 210 466 91.5 c 128,-1,43
 403 -27 403 -27 293 -27 c 0,0,1
EndSplineSet
Substitution2: "'frac' Diagonal Fractions in Latin lookup 24 subtable" three.numr
Substitution2: "'dnom' Denominators in Latin lookup 22 subtable" three.dnom
Substitution2: "'numr' Numerators in Latin lookup 21 subtable" three.numr
Substitution2: "'sups' Superscript in Latin lookup 20 subtable" uni00B3
Substitution2: "'subs' Subscript in Latin lookup 19 subtable" uni2083
AlternateSubs2: "'aalt' Access All Alternates in Latin lookup 1 subtable" uni2083 three.dnom three.numr uni00B3
EndChar

StartChar: four
Encoding: 52 52 478
Width: 512
VWidth: 2441
GlyphClass: 1
Flags: HW
LayerCount: 2
Fore
SplineSet
188 517 m 1,0,-1
 359 517 l 1,1,-1
 359 1109 l 1,2,-1
 188 517 l 1,0,-1
359 0 m 1,3,-1
 359 380 l 1,4,-1
 69 380 l 1,5,-1
 69 498 l 1,6,-1
 376 1523 l 1,7,-1
 474 1523 l 1,8,-1
 474 515 l 1,9,-1
 549 515 l 1,10,-1
 549 378 l 1,11,-1
 474 378 l 1,12,-1
 474 0 l 1,13,-1
 359 0 l 1,3,-1
EndSplineSet
Substitution2: "'frac' Diagonal Fractions in Latin lookup 24 subtable" four.numr
Substitution2: "'dnom' Denominators in Latin lookup 22 subtable" four.dnom
Substitution2: "'numr' Numerators in Latin lookup 21 subtable" four.numr
Substitution2: "'sups' Superscript in Latin lookup 20 subtable" uni2074
Substitution2: "'subs' Subscript in Latin lookup 19 subtable" uni2084
AlternateSubs2: "'aalt' Access All Alternates in Latin lookup 1 subtable" uni2084 four.dnom four.numr uni2074
EndChar

StartChar: five
Encoding: 53 53 479
Width: 512
VWidth: 2441
GlyphClass: 1
Flags: HW
LayerCount: 2
Fore
SplineSet
305 -27 m 0,0,1
 237 -27 237 -27 171 21.5 c 128,-1,2
 105 70 105 70 66 184 c 1,3,-1
 151 254 l 1,4,-1
 168 268 l 1,5,-1
 179 254 l 1,6,7
 179 237 179 237 182.5 216.5 c 128,-1,8
 186 196 186 196 203 161 c 1,9,10
 247 107 247 107 303 107 c 0,11,12
 422 107 422 107 422 484 c 0,13,14
 422 672 422 672 390.5 763.5 c 128,-1,15
 359 855 359 855 303 855 c 0,16,17
 257 855 257 855 230 824.5 c 128,-1,18
 203 794 203 794 175 725 c 1,19,-1
 105 747 l 1,20,-1
 130 1521 l 1,21,-1
 515 1521 l 1,22,-1
 515 1384 l 1,23,-1
 249 1384 l 1,24,-1
 237 927 l 1,25,26
 258 951 258 951 285 966 c 128,-1,27
 312 981 312 981 345 981 c 0,28,29
 450 981 450 981 497.5 856.5 c 128,-1,30
 545 732 545 732 545 478 c 0,31,32
 545 -27 545 -27 305 -27 c 0,0,1
EndSplineSet
Substitution2: "'frac' Diagonal Fractions in Latin lookup 24 subtable" five.numr
Substitution2: "'dnom' Denominators in Latin lookup 22 subtable" five.dnom
Substitution2: "'numr' Numerators in Latin lookup 21 subtable" five.numr
Substitution2: "'sups' Superscript in Latin lookup 20 subtable" uni2075
Substitution2: "'subs' Subscript in Latin lookup 19 subtable" uni2085
AlternateSubs2: "'aalt' Access All Alternates in Latin lookup 1 subtable" uni2085 five.dnom five.numr uni2075
EndChar

StartChar: six
Encoding: 54 54 480
Width: 512
VWidth: 2441
GlyphClass: 1
Flags: HW
LayerCount: 2
Fore
SplineSet
324 114 m 0,0,1
 368 114 368 114 390 211 c 128,-1,2
 412 308 412 308 412 480 c 0,3,4
 412 664 412 664 390 748 c 128,-1,5
 368 832 368 832 322 832 c 0,6,7
 278 832 278 832 254 784.5 c 128,-1,8
 230 737 230 737 205 652 c 1,9,10
 202.666666667 607 202.666666667 607 202.666666667 563.333333333 c 0,0,0
 202.666666667 476 202.666666667 476 212 394 c 128,-1,11
 226 271 226 271 255.5 192.5 c 128,-1,12
 285 114 285 114 324 114 c 0,0,1
319 -24 m 0,13,14
 207 -24 207 -24 145 150 c 128,-1,15
 83 324 83 324 83 694 c 0,16,17
 83 1141 83 1141 149 1339.5 c 128,-1,18
 215 1538 215 1538 352 1538 c 0,19,20
 422 1538 422 1538 462.5 1500.5 c 128,-1,21
 503 1463 503 1463 527 1396 c 1,22,-1
 464 1277 l 1,23,-1
 457 1260 l 1,24,-1
 445 1265 l 1,25,26
 440 1282 440 1282 441 1302.5 c 128,-1,27
 442 1323 442 1323 427 1353 c 1,28,29
 395 1399 395 1399 354 1400 c 0,30,31
 330 1400 330 1400 305.5 1382.5 c 128,-1,32
 281 1365 281 1365 260.5 1312.5 c 128,-1,33
 240 1260 240 1260 227.5 1157.5 c 128,-1,34
 215 1055 215 1055 212 886 c 1,35,36
 242 932 242 932 272.5 956.5 c 128,-1,37
 303 981 303 981 352 981 c 0,38,39
 438 981 438 981 488 844.5 c 128,-1,40
 538 708 538 708 538 484 c 0,41,42
 538 258 538 258 482 117 c 128,-1,43
 426 -24 426 -24 319 -24 c 0,13,14
EndSplineSet
Substitution2: "'frac' Diagonal Fractions in Latin lookup 24 subtable" six.numr
Substitution2: "'dnom' Denominators in Latin lookup 22 subtable" six.dnom
Substitution2: "'numr' Numerators in Latin lookup 21 subtable" six.numr
Substitution2: "'sups' Superscript in Latin lookup 20 subtable" uni2076
Substitution2: "'subs' Subscript in Latin lookup 19 subtable" uni2086
AlternateSubs2: "'aalt' Access All Alternates in Latin lookup 1 subtable" uni2086 six.dnom six.numr uni2076
EndChar

StartChar: seven
Encoding: 55 55 481
Width: 512
VWidth: 2441
GlyphClass: 1
Flags: HW
LayerCount: 2
Fore
SplineSet
168 0 m 1,0,1
 222 349 222 349 272 698.5 c 128,-1,2
 322 1048 322 1048 386 1384 c 1,3,-1
 95 1384 l 1,4,-1
 95 1521 l 1,5,-1
 527 1521 l 1,6,-1
 527 1440 l 1,7,8
 459 1088 459 1088 404 727 c 128,-1,9
 349 366 349 366 300 0 c 1,10,-1
 168 0 l 1,0,1
EndSplineSet
Substitution2: "'frac' Diagonal Fractions in Latin lookup 24 subtable" seven.numr
Substitution2: "'dnom' Denominators in Latin lookup 22 subtable" seven.dnom
Substitution2: "'numr' Numerators in Latin lookup 21 subtable" seven.numr
Substitution2: "'sups' Superscript in Latin lookup 20 subtable" uni2077
Substitution2: "'subs' Subscript in Latin lookup 19 subtable" uni2087
AlternateSubs2: "'aalt' Access All Alternates in Latin lookup 1 subtable" uni2087 seven.dnom seven.numr uni2077
EndChar

StartChar: eight
Encoding: 56 56 482
Width: 512
VWidth: 2441
GlyphClass: 1
Flags: HW
LayerCount: 2
Fore
SplineSet
308 110 m 0,0,1
 357 110 357 110 387 188 c 128,-1,2
 417 266 417 266 417 393 c 0,3,4
 417 523 417 523 392.5 603 c 128,-1,5
 368 683 368 683 305 737 c 1,6,7
 251 691 251 691 223.5 610 c 128,-1,8
 196 529 196 529 196 401 c 0,9,10
 196 275 196 275 231 192.5 c 128,-1,11
 266 110 266 110 308 110 c 0,0,1
319 896 m 1,12,13
 363 945 363 945 379.5 1016.5 c 128,-1,14
 396 1088 396 1088 396 1174 c 0,15,16
 396 1279 396 1279 374 1341.5 c 128,-1,17
 352 1404 352 1404 310 1404 c 0,18,19
 266 1404 266 1404 246 1342.5 c 128,-1,20
 226 1281 226 1281 226 1181 c 0,21,22
 226 1069 226 1069 244.5 1013 c 128,-1,23
 263 957 263 957 319 896 c 1,12,13
305 -24 m 128,-1,25
 198 -24 198 -24 135.5 86 c 128,-1,26
 73 196 73 196 73 384 c 0,27,28
 73 694 73 694 215 823 c 1,29,30
 161 877 161 877 135.5 966 c 128,-1,31
 110 1055 110 1055 110 1165 c 0,32,33
 110 1338 110 1338 161 1439 c 128,-1,34
 212 1540 212 1540 312 1540 c 0,35,36
 417 1540 417 1540 465 1442.5 c 128,-1,37
 513 1345 513 1345 513 1179 c 0,38,39
 513 1069 513 1069 489.5 968 c 128,-1,40
 466 867 466 867 410 808 c 1,41,42
 540 689 540 689 540 393 c 0,43,44
 540 197 540 197 476 86.5 c 128,-1,24
 412 -24 412 -24 305 -24 c 128,-1,25
EndSplineSet
Substitution2: "'frac' Diagonal Fractions in Latin lookup 24 subtable" eight.numr
Substitution2: "'dnom' Denominators in Latin lookup 22 subtable" eight.dnom
Substitution2: "'numr' Numerators in Latin lookup 21 subtable" eight.numr
Substitution2: "'sups' Superscript in Latin lookup 20 subtable" uni2078
Substitution2: "'subs' Subscript in Latin lookup 19 subtable" uni2088
AlternateSubs2: "'aalt' Access All Alternates in Latin lookup 1 subtable" uni2088 eight.dnom eight.numr uni2078
EndChar

StartChar: nine
Encoding: 57 57 483
Width: 512
VWidth: 2441
GlyphClass: 1
Flags: HW
LayerCount: 2
Fore
SplineSet
200 1037 m 0,0,1
 200 893 200 893 234 804 c 128,-1,2
 268 715 268 715 310 715 c 0,3,4
 378 715 378 715 420 778 c 1,5,-1
 420 781 l 2,6,7
 420 1121 420 1121 394 1258.5 c 128,-1,8
 368 1396 368 1396 305 1396 c 0,9,10
 263 1396 263 1396 231.5 1315.5 c 128,-1,11
 200 1235 200 1235 200 1037 c 0,0,1
278 -24 m 0,12,13
 224 -24 224 -24 173 7.5 c 128,-1,14
 122 39 122 39 91 98 c 1,15,-1
 142 215 l 1,16,-1
 151 237 l 1,17,-1
 166 232 l 1,18,19
 173 213 173 213 177 188 c 128,-1,20
 181 163 181 163 205 132 c 1,21,22
 232 108 232 108 271 107 c 0,23,24
 327 107 327 107 358 181.5 c 128,-1,25
 389 256 389 256 402 378.5 c 128,-1,26
 415 501 415 501 417 638 c 1,27,28
 371 587 371 587 305 587 c 0,29,30
 210 587 210 587 146.5 709.5 c 128,-1,31
 83 832 83 832 83 1035 c 0,32,33
 83 1287 83 1287 147.5 1409 c 128,-1,34
 212 1531 212 1531 303 1531 c 0,35,36
 433 1531 433 1531 485.5 1376 c 128,-1,37
 538 1221 538 1221 538 886 c 0,38,39
 538 557 538 557 513.5 358 c 128,-1,40
 489 159 489 159 431 70 c 128,-1,41
 373 -19 373 -19 278 -24 c 0,12,13
EndSplineSet
Substitution2: "'frac' Diagonal Fractions in Latin lookup 24 subtable" nine.numr
Substitution2: "'dnom' Denominators in Latin lookup 22 subtable" nine.dnom
Substitution2: "'numr' Numerators in Latin lookup 21 subtable" nine.numr
Substitution2: "'sups' Superscript in Latin lookup 20 subtable" uni2079
Substitution2: "'subs' Subscript in Latin lookup 19 subtable" uni2089
AlternateSubs2: "'aalt' Access All Alternates in Latin lookup 1 subtable" uni2089 nine.dnom nine.numr uni2079
EndChar

StartChar: zero.zero
Encoding: 65541 -1 484
Width: 512
VWidth: 2441
GlyphClass: 1
Flags: HW
LayerCount: 2
Fore
SplineSet
296 676 m 0,0,1
 265 676 265 676 245 703 c 128,-1,2
 225 730 225 730 225 767 c 128,-1,3
 225 804 225 804 244.5 829.5 c 128,-1,4
 264 855 264 855 296 855 c 0,5,6
 325 855 325 855 346 829 c 128,-1,7
 367 803 367 803 367 767 c 0,8,9
 367 730 367 730 346 703 c 128,-1,10
 325 676 325 676 296 676 c 0,0,1
298 110 m 0,11,12
 355 110 355 110 386 261 c 128,-1,13
 417 412 417 412 417 752 c 0,14,15
 417 1076 417 1076 385 1235 c 128,-1,16
 353 1394 353 1394 298 1394 c 0,17,18
 248 1394 248 1394 212.5 1235 c 128,-1,19
 177 1076 177 1076 177 752 c 0,20,21
 177 412 177 412 213.5 261 c 128,-1,22
 250 110 250 110 298 110 c 0,11,12
298 -27 m 0,23,24
 188 -27 188 -27 122.5 157.5 c 128,-1,25
 57 342 57 342 57 752 c 0,26,27
 57 1150 57 1150 123 1340.5 c 128,-1,28
 189 1531 189 1531 298 1531 c 0,29,30
 410 1531 410 1531 473.5 1340.5 c 128,-1,31
 537 1150 537 1150 537 752 c 0,32,33
 537 342 537 342 473.5 157.5 c 128,-1,34
 410 -27 410 -27 298 -27 c 0,23,24
EndSplineSet
EndChar

StartChar: zero.ss02
Encoding: 65542 -1 485
Width: 512
VWidth: 2441
GlyphClass: 1
Flags: HW
LayerCount: 2
Fore
SplineSet
298 110 m 0,0,1
 355 110 355 110 386 261 c 128,-1,2
 417 412 417 412 417 752 c 0,3,4
 417 1076 417 1076 385 1235 c 128,-1,5
 353 1394 353 1394 298 1394 c 0,6,7
 248 1394 248 1394 212.5 1235 c 128,-1,8
 177 1076 177 1076 177 752 c 0,9,10
 177 412 177 412 213.5 261 c 128,-1,11
 250 110 250 110 298 110 c 0,0,1
298 -27 m 0,12,13
 188 -27 188 -27 122.5 157.5 c 128,-1,14
 57 342 57 342 57 752 c 0,15,16
 57 1150 57 1150 123 1340.5 c 128,-1,17
 189 1531 189 1531 298 1531 c 0,18,19
 410 1531 410 1531 473.5 1340.5 c 128,-1,20
 537 1150 537 1150 537 752 c 0,21,22
 537 342 537 342 473.5 157.5 c 128,-1,23
 410 -27 410 -27 298 -27 c 0,12,13
EndSplineSet
EndChar

StartChar: uni2070
Encoding: 8304 8304 516
Width: 512
VWidth: 2441
GlyphClass: 1
Flags: HW
LayerCount: 2
Fore
SplineSet
305 683 m 0,0,1
 344 683 344 683 364 773.5 c 128,-1,2
 384 864 384 864 384 1067 c 0,3,4
 384 1116 384 1116 380 1160 c 1,5,-1
 240 840 l 1,6,7
 259 683 259 683 305 683 c 0,0,1
226 1067 m 0,8,9
 226 1006 226 1006 230 955 c 1,10,-1
 373 1286 l 1,11,12
 354 1449 354 1449 305 1451 c 0,13,14
 270 1451 270 1451 248 1357 c 128,-1,15
 226 1263 226 1263 226 1067 c 0,8,9
305 583 m 0,16,17
 230 583 230 583 182.5 695.5 c 128,-1,18
 135 808 135 808 135 1067 c 0,19,20
 135 1319 135 1319 182.5 1434.5 c 128,-1,21
 230 1550 230 1550 305 1550 c 0,22,23
 384 1550 384 1550 430 1434 c 128,-1,24
 476 1318 476 1318 476 1067 c 0,25,26
 476 808 476 808 430 695.5 c 128,-1,27
 384 583 384 583 305 583 c 0,16,17
EndSplineSet
Substitution2: "'ss02' Style Set 2 in Latin lookup 36 subtable" uni2070.ss02
Substitution2: "'zero' Slashed Zero in Latin lookup 33 subtable" uni2070.zero
AlternateSubs2: "'aalt' Access All Alternates in Latin lookup 1 subtable" uni2070.ss02 uni2070.zero
EndChar

StartChar: uni00B9
Encoding: 185 185 517
Width: 512
VWidth: 2441
GlyphClass: 1
Flags: HW
LayerCount: 2
Fore
SplineSet
271 601 m 1,0,-1
 271 1384 l 1,1,-1
 175 1328 l 1,2,-1
 159 1416 l 1,3,-1
 303 1545 l 1,4,-1
 364 1545 l 1,5,-1
 364 601 l 1,6,-1
 271 601 l 1,0,-1
EndSplineSet
EndChar

StartChar: uni00B2
Encoding: 178 178 518
Width: 512
VWidth: 2441
GlyphClass: 1
Flags: HW
LayerCount: 2
Fore
SplineSet
154 685 m 1,0,1
 227 827 227 827 274.5 929.5 c 128,-1,2
 322 1032 322 1032 345 1115.5 c 128,-1,3
 368 1199 368 1199 371 1284 c 0,4,5
 371.2 1292.6 371.2 1292.6 371.2 1300.745 c 0,6,7
 371.2 1374.05 371.2 1374.05 355 1410.5 c 0,8,9
 337 1451 337 1451 310 1451 c 0,10,11
 278 1451 278 1451 259 1428 c 1,12,13
 242 1391 242 1391 239.5 1373 c 128,-1,14
 237 1355 237 1355 244 1335 c 1,15,-1
 237 1321 l 1,16,-1
 215 1330 l 1,17,-1
 139 1358 l 1,18,19
 163 1446 163 1446 203.5 1498 c 128,-1,20
 244 1550 244 1550 312 1550 c 0,21,22
 463 1550 463 1550 464 1279 c 0,23,24
 464 1135 464 1135 409 1001 c 128,-1,25
 354 867 354 867 268 701 c 1,26,-1
 359 701 l 2,27,28
 401 701 401 701 418 705.5 c 128,-1,29
 435 710 435 710 449 725 c 1,30,-1
 466 725 l 1,31,-1
 466 601 l 1,32,-1
 154 601 l 1,33,-1
 154 685 l 1,0,1
EndSplineSet
EndChar

StartChar: uni00B3
Encoding: 179 179 519
Width: 512
VWidth: 2441
GlyphClass: 1
Flags: HW
LayerCount: 2
Fore
SplineSet
296 583 m 0,0,1
 242 583 242 583 204 617.5 c 128,-1,2
 166 652 166 652 139 706 c 1,3,-1
 205 757 l 1,4,-1
 224 774 l 1,5,-1
 235 759 l 1,6,7
 233 740 233 740 242.5 724 c 128,-1,8
 252 708 252 708 278 678 c 1,9,-1
 291 678 l 2,10,11
 368.049382716 678 368.049382716 678 368.049382716 854.928212163 c 0,12,13
 368.049382716 859.407407407 368.049382716 859.407407407 368 864 c 0,14,15
 368 971 368 971 336.5 1015.5 c 0,16,17
 311.690265487 1050.54867257 311.690265487 1050.54867257 264.238468165 1050.54867257 c 0,18,19
 251.442477876 1050.54867257 251.442477876 1050.54867257 237 1048 c 1,20,-1
 237 1137 l 1,21,22
 318 1137 318 1137 335 1191 c 128,-1,23
 352 1245 352 1245 352 1318 c 0,24,25
 352 1457 352 1457 293 1458 c 0,26,27
 251 1458 251 1458 224 1384 c 1,28,-1
 154 1426 l 1,29,30
 181 1484 181 1484 217.5 1517 c 128,-1,31
 254 1550 254 1550 300 1550 c 0,32,33
 363 1550 363 1550 404 1492.5 c 128,-1,34
 445 1435 445 1435 445 1316 c 0,35,36
 445 1241 445 1241 427.5 1184.5 c 128,-1,37
 410 1128 410 1128 368 1104 c 1,38,39
 410 1077 410 1077 435.5 1017 c 128,-1,40
 461 957 461 957 461 859 c 0,41,42
 461 729 461 729 418 656 c 128,-1,43
 375 583 375 583 296 583 c 0,0,1
EndSplineSet
EndChar

StartChar: uni2074
Encoding: 8308 8308 520
Width: 512
VWidth: 2441
GlyphClass: 1
Flags: HW
LayerCount: 2
Fore
SplineSet
240 930 m 1,0,-1
 359 930 l 1,1,-1
 359 1265 l 1,2,-1
 240 930 l 1,0,-1
359 601 m 1,3,-1
 359 830 l 1,4,-1
 147 830 l 1,5,-1
 147 916 l 1,6,-1
 378 1545 l 1,7,-1
 452 1545 l 1,8,-1
 452 927 l 1,9,-1
 503 927 l 1,10,-1
 503 827 l 1,11,-1
 452 827 l 1,12,-1
 452 601 l 1,13,-1
 359 601 l 1,3,-1
EndSplineSet
EndChar

StartChar: uni2075
Encoding: 8309 8309 521
Width: 512
VWidth: 2441
GlyphClass: 1
Flags: HW
LayerCount: 2
Fore
SplineSet
305 583 m 0,0,1
 256 583 256 583 211 615 c 128,-1,2
 166 647 166 647 139 720 c 1,3,-1
 205 769 l 1,4,-1
 222 778 l 1,5,-1
 232 764 l 1,6,7
 230 747 230 747 239.5 731 c 128,-1,8
 249 715 249 715 273 683 c 1,9,10
 278 683 278 683 285.5 682 c 128,-1,11
 293 681 293 681 300 681 c 0,12,13
 378.0125 681 378.0125 681 378.0125 895.534375 c 0,14,15
 378.0125 898.25 378.0125 898.25 378 901 c 0,16,17
 378 1123 378 1123 303 1123 c 0,18,19
 254 1123 254 1123 222 1048 c 1,20,-1
 166 1062 l 1,21,-1
 181 1543 l 1,22,-1
 449 1543 l 1,23,-1
 449 1445 l 1,24,-1
 268 1445 l 1,25,-1
 261 1179 l 1,26,27
 275 1193 275 1193 293.5 1203.5 c 128,-1,28
 312 1214 312 1214 335 1214 c 0,29,30
 473.007142857 1214 473.007142857 1214 473.007142857 903.483928571 c 0,31,32
 473.007142857 583 473.007142857 583 305 583 c 0,0,1
EndSplineSet
EndChar

StartChar: uni2076
Encoding: 8310 8310 522
Width: 512
VWidth: 2441
GlyphClass: 1
Flags: HW
LayerCount: 2
Fore
SplineSet
317 685 m 0,0,1
 375 685 375 685 376 899 c 0,2,3
 376 1006 376 1006 360.5 1056 c 128,-1,4
 345 1106 345 1106 317 1106 c 0,5,6
 290 1106 290 1106 273 1080.5 c 128,-1,7
 256 1055 256 1055 242 1006 c 1,8,9
 241.056603774 982.226415094 241.056603774 982.226415094 241.056603774 959.46742613 c 0,10,11
 241.056603774 861.603773585 241.056603774 861.603773585 258.5 782.5 c 0,12,13
 280 685 280 685 317 685 c 0,0,1
315 587 m 0,14,15
 234 587 234 587 191.5 694 c 128,-1,16
 149 801 149 801 149 1030 c 0,17,18
 149 1305 149 1305 198 1430.5 c 128,-1,19
 247 1556 247 1556 340 1556 c 0,20,21
 423 1556 423 1556 464 1463 c 1,22,-1
 415 1384 l 1,23,-1
 405 1367 l 1,24,-1
 393 1374 l 1,25,26
 391 1391 391 1391 387.5 1408.5 c 128,-1,27
 384 1426 384 1426 361 1451 c 0,28,29
 359 1451 359 1451 353 1452 c 128,-1,30
 347 1453 347 1453 342 1453 c 0,31,32
 323 1453 323 1453 300.5 1432 c 128,-1,33
 278 1411 278 1411 262.5 1345 c 128,-1,34
 247 1279 247 1279 244 1148 c 1,35,36
 281 1209 281 1209 340 1209 c 0,37,38
 396 1209 396 1209 431 1127 c 128,-1,39
 466 1045 466 1045 466 901 c 0,40,41
 466 759 466 759 428 673 c 128,-1,42
 390 587 390 587 315 587 c 0,14,15
EndSplineSet
EndChar

StartChar: uni2077
Encoding: 8311 8311 523
Width: 512
VWidth: 2441
GlyphClass: 1
Flags: HW
LayerCount: 2
Fore
SplineSet
205 601 m 1,0,1
 242 818 242 818 276 1026.5 c 128,-1,2
 310 1235 310 1235 354 1442 c 1,3,-1
 159 1442 l 1,4,-1
 159 1543 l 1,5,-1
 461 1543 l 1,6,-1
 461 1479 l 1,7,8
 415 1262 415 1262 378.5 1044.5 c 128,-1,9
 342 827 342 827 308 601 c 1,10,-1
 205 601 l 1,0,1
EndSplineSet
EndChar

StartChar: uni2078
Encoding: 8312 8312 524
Width: 512
VWidth: 2441
GlyphClass: 1
Flags: HW
LayerCount: 2
Fore
SplineSet
308 683 m 0,0,1
 378 683 378 683 378 845 c 0,2,3
 378 992 378 992 303 1048 c 1,4,5
 235 994 235 994 235 850 c 0,6,7
 235 771 235 771 256.5 727 c 128,-1,8
 278 683 278 683 308 683 c 0,0,1
315 1160 m 1,9,10
 342 1187 342 1187 353 1232 c 128,-1,11
 364 1277 364 1277 364 1328 c 0,12,13
 364 1386 364 1386 349.5 1422 c 128,-1,14
 335 1458 335 1458 308 1458 c 128,-1,15
 281 1458 281 1458 267.5 1423.5 c 128,-1,16
 254 1389 254 1389 254 1333 c 0,17,18
 254 1265 254 1265 268.5 1230 c 128,-1,19
 283 1195 283 1195 315 1160 c 1,9,10
305 587 m 0,20,21
 230 587 230 587 186 654.5 c 128,-1,22
 142 722 142 722 142 837 c 0,23,24
 142 1025 142 1025 240 1111 c 1,25,26
 203 1146 203 1146 185.5 1200.5 c 128,-1,27
 168 1255 168 1255 168 1323 c 0,28,29
 168 1430 168 1430 205 1493 c 128,-1,30
 242 1556 242 1556 310 1556 c 0,31,32
 380 1556 380 1556 416 1494.5 c 128,-1,33
 452 1433 452 1433 452 1330 c 0,34,35
 452 1262 452 1262 434.5 1199.5 c 128,-1,36
 417 1137 417 1137 380 1101 c 1,37,38
 468 1028 468 1028 468 845 c 0,39,40
 468 726 468 726 426 656.5 c 128,-1,41
 384 587 384 587 305 587 c 0,20,21
EndSplineSet
EndChar

StartChar: uni2079
Encoding: 8313 8313 525
Width: 512
VWidth: 2441
GlyphClass: 1
Flags: HW
LayerCount: 2
Fore
SplineSet
237 1242 m 0,0,1
 237 1154 237 1154 257.5 1103.5 c 128,-1,2
 278 1053 278 1053 310 1053 c 0,3,4
 354 1053 354 1053 378 1086 c 1,5,6
 378 1293 378 1293 361.5 1373 c 128,-1,7
 345 1453 345 1453 305 1453 c 0,8,9
 275 1453 275 1453 256 1404.5 c 128,-1,10
 237 1356 237 1356 237 1242 c 0,0,1
286 587 m 1,11,12
 198 587 198 587 151 669 c 1,13,-1
 196 745 l 1,14,-1
 205 767 l 1,15,-1
 222 757 l 1,16,17
 227 740 227 740 237 723 c 128,-1,18
 247 706 247 706 278 678 c 1,19,20
 276 680 276 680 281 681 c 0,21,22
 332 681 332 681 352.5 772.5 c 128,-1,23
 373 864 373 864 376 988 c 1,24,25
 346.909090909 956.96969697 346.909090909 956.96969697 307.474747475 956.96969697 c 0,26,27
 306.242424242 956.96969697 306.242424242 956.96969697 305 957 c 0,28,29
 239 957 239 957 194 1033 c 128,-1,30
 149 1109 149 1109 149 1242 c 0,31,32
 149 1398 149 1398 194.5 1474 c 128,-1,33
 240 1550 240 1550 303 1550 c 0,34,35
 391 1550 391 1550 428.5 1452.5 c 128,-1,36
 466 1355 466 1355 466 1150 c 0,37,38
 466 845 466 845 423.5 718.5 c 128,-1,39
 381 592 381 592 286 587 c 1,11,12
EndSplineSet
EndChar

StartChar: fraction
Encoding: 8260 8260 526
Width: 512
VWidth: 2441
GlyphClass: 1
Flags: HW
LayerCount: 2
Fore
SplineSet
151 -103 m 1,0,-1
 81 -63 l 1,1,-1
 476 1624 l 1,2,-1
 547 1582 l 1,3,-1
 151 -103 l 1,0,-1
EndSplineSet
EndChar

StartChar: onehalf
Encoding: 189 189 527
Width: 512
VWidth: 2441
GlyphClass: 1
Flags: HW
LayerCount: 2
Fore
SplineSet
282 -170 m 1,0,-1
 282 -100 l 1,1,2
 331 12 331 12 361 91 c 128,-1,3
 391 170 391 170 406.5 235 c 128,-1,4
 422 300 422 300 422 368 c 0,5,6
 422.355555556 379.022222222 422.355555556 379.022222222 422.355555556 389.080493827 c 0,0,0
 422.355555556 492.177777778 422.355555556 492.177777778 385 494 c 0,7,8
 365 494 365 494 352.5 476.5 c 128,-1,9
 340 459 340 459 326 405 c 1,10,-1
 271 427 l 1,11,12
 287 497 287 497 313.5 537.5 c 128,-1,13
 340 578 340 578 387 578 c 0,14,15
 488 578 488 578 489 366 c 0,16,17
 489 252 489 252 454.5 150.5 c 128,-1,18
 420 49 420 49 365 -86 c 1,19,-1
 491 -86 l 1,20,-1
 491 -170 l 1,21,-1
 282 -170 l 1,0,-1
123 -103 m 1,22,-1
 65 -63 l 1,23,-1
 393 1624 l 1,24,-1
 452 1582 l 1,25,-1
 123 -103 l 1,22,-1
82 927 m 1,26,-1
 82 1538 l 1,27,-1
 24 1494 l 1,28,-1
 11 1572 l 1,29,-1
 105 1675 l 1,30,-1
 152 1675 l 1,31,-1
 152 927 l 1,32,-1
 82 927 l 1,26,-1
EndSplineSet
EndChar

StartChar: onequarter
Encoding: 188 188 528
Width: 512
VWidth: 2441
GlyphClass: 1
Flags: HW
LayerCount: 2
Fore
SplineSet
311 93 m 1,0,-1
 382 93 l 1,1,-1
 382 340 l 1,2,-1
 311 93 l 1,0,-1
382 -170 m 1,3,-1
 382 7 l 1,4,-1
 247 7 l 1,5,-1
 247 83 l 1,6,-1
 398 576 l 1,7,-1
 447 576 l 1,8,-1
 447 93 l 1,9,-1
 479 93 l 1,10,-1
 479 5 l 1,11,-1
 447 5 l 1,12,-1
 447 -170 l 1,13,-1
 382 -170 l 1,3,-1
108 -103 m 1,14,-1
 51 -63 l 1,15,-1
 372 1624 l 1,16,-1
 430 1582 l 1,17,-1
 108 -103 l 1,14,-1
69 927 m 1,18,-1
 69 1538 l 1,19,-1
 12 1494 l 1,20,-1
 -1 1572 l 1,21,-1
 91 1675 l 1,22,-1
 136 1675 l 1,23,-1
 136 927 l 1,24,-1
 69 927 l 1,18,-1
EndSplineSet
EndChar

StartChar: threequarters
Encoding: 190 190 529
Width: 512
VWidth: 2441
GlyphClass: 1
Flags: HW
LayerCount: 2
Fore
SplineSet
371 93 m 1,0,-1
 371 340 l 1,1,-1
 301 93 l 1,2,-1
 371 93 l 1,0,-1
371 7 m 1,3,-1
 239 7 l 1,4,-1
 239 83 l 1,5,-1
 386 576 l 1,6,-1
 434 576 l 1,7,-1
 434 93 l 1,8,-1
 465 93 l 1,9,-1
 465 5 l 1,10,-1
 434 5 l 1,11,-1
 434 -170 l 1,12,-1
 371 -170 l 1,13,-1
 371 7 l 1,3,-1
105 -103 m 1,14,-1
 49 -63 l 1,15,-1
 361 1624 l 1,16,-1
 417 1582 l 1,17,-1
 105 -103 l 1,14,-1
85 916 m 0,18,19
 50 916 50 916 26 942.5 c 128,-1,20
 2 969 2 969 -15 1011 c 1,21,-1
 27 1053 l 1,22,-1
 42 1069 l 1,23,-1
 47 1062 l 1,24,25
 38 1041 38 1041 53 1011 c 0,26,27
 64 994 64 994 81 994 c 0,28,29
 127 994 127 994 128 1135 c 0,30,31
 128 1221 128 1221 108.5 1253.5 c 128,-1,32
 93.2289156627 1278.95180723 93.2289156627 1278.95180723 64.1586587313 1278.95180723 c 0,0,0
 56.1084337349 1278.95180723 56.1084337349 1278.95180723 47 1277 c 1,33,-1
 47 1355 l 1,34,35
 97 1355 97 1355 107.5 1396.5 c 128,-1,36
 118 1438 118 1438 118 1494 c 0,37,38
 118 1599 118 1599 83 1599 c 0,39,40
 58 1599 58 1599 41 1543 c 1,41,-1
 -6 1580 l 1,42,43
 26.6666666667 1677.01010101 26.6666666667 1677.01010101 86.770533619 1677.01010101 c 0,0,0
 87.3838383838 1677.01010101 87.3838383838 1677.01010101 88 1677 c 0,44,45
 128 1677 128 1677 154 1632 c 128,-1,46
 180 1587 180 1587 180 1491 c 0,47,48
 180 1433 180 1433 169 1389 c 128,-1,49
 158 1345 158 1345 134 1326 c 1,50,51
 161 1305 161 1305 175 1258 c 128,-1,52
 189 1211 189 1211 189 1132 c 0,53,54
 189 1027 189 1027 161 971.5 c 128,-1,55
 133 916 133 916 85 916 c 0,18,19
EndSplineSet
EndChar

StartChar: uni2070.ss02
Encoding: 65566 -1 533
Width: 512
VWidth: 2441
GlyphClass: 1
Flags: HW
LayerCount: 2
Fore
SplineSet
305 683 m 0,0,1
 344 683 344 683 364 773.5 c 128,-1,2
 384 864 384 864 384 1067 c 0,3,4
 384 1451 384 1451 305 1451 c 0,5,6
 270 1451 270 1451 248 1356.5 c 128,-1,7
 226 1262 226 1262 226 1067 c 0,8,9
 226 864 226 864 249.5 773.5 c 128,-1,10
 273 683 273 683 305 683 c 0,0,1
305 583 m 0,11,12
 230 583 230 583 182.5 695.5 c 128,-1,13
 135 808 135 808 135 1067 c 0,14,15
 135 1319 135 1319 182.5 1434.5 c 128,-1,16
 230 1550 230 1550 305 1550 c 0,17,18
 384 1550 384 1550 430 1434 c 128,-1,19
 476 1318 476 1318 476 1067 c 0,20,21
 476 808 476 808 430 695.5 c 128,-1,22
 384 583 384 583 305 583 c 0,11,12
EndSplineSet
EndChar

StartChar: uni2070.zero
Encoding: 65570 -1 537
Width: 512
VWidth: 2441
GlyphClass: 1
Flags: HW
LayerCount: 2
Fore
SplineSet
310 1045 m 0,0,1
 291 1045 291 1045 278.5 1060.5 c 128,-1,2
 266 1076 266 1076 266 1099 c 0,3,4
 266 1120 266 1120 278.5 1136.5 c 128,-1,5
 291 1153 291 1153 310 1153 c 0,6,7
 327 1153 327 1153 340.5 1137 c 128,-1,8
 354 1121 354 1121 354 1099 c 0,9,10
 354 1078 354 1078 340.5 1061.5 c 128,-1,11
 327 1045 327 1045 310 1045 c 0,0,1
305 683 m 0,12,13
 344 683 344 683 364 773.5 c 128,-1,14
 384 864 384 864 384 1067 c 0,15,16
 384 1451 384 1451 305 1451 c 0,17,18
 270 1451 270 1451 248 1356.5 c 128,-1,19
 226 1262 226 1262 226 1067 c 0,20,21
 226 864 226 864 249.5 773.5 c 128,-1,22
 273 683 273 683 305 683 c 0,12,13
305 583 m 0,23,24
 230 583 230 583 182.5 695.5 c 128,-1,25
 135 808 135 808 135 1067 c 0,26,27
 135 1319 135 1319 182.5 1434.5 c 128,-1,28
 230 1550 230 1550 305 1550 c 0,29,30
 384 1550 384 1550 430 1434 c 128,-1,31
 476 1318 476 1318 476 1067 c 0,32,33
 476 808 476 808 430 695.5 c 128,-1,34
 384 583 384 583 305 583 c 0,23,24
EndSplineSet
EndChar

StartChar: period
Encoding: 46 46 538
Width: 512
VWidth: 2607
GlyphClass: 1
Flags: HW
LayerCount: 2
Fore
SplineSet
296 136 m 128,-1,1
 259 136 259 136 233 168.5 c 128,-1,2
 207 201 207 201 207 245 c 128,-1,3
 207 289 207 289 233 320.5 c 128,-1,4
 259 352 259 352 296 352 c 128,-1,5
 333 352 333 352 358.5 320 c 128,-1,6
 384 288 384 288 384 245 c 0,7,8
 384 201 384 201 358.5 168.5 c 128,-1,0
 333 136 333 136 296 136 c 128,-1,1
EndSplineSet
EndChar

StartChar: comma
Encoding: 44 44 539
Width: 512
VWidth: 2607
GlyphClass: 1
Flags: HW
LayerCount: 2
Fore
SplineSet
286 -244 m 1,0,-1
 232 -193 l 1,1,2
 267 -130 267 -130 289.5 -69.5 c 128,-1,3
 312 -9 312 -9 312 36 c 0,4,5
 312 71 312 71 296.5 95.5 c 128,-1,6
 281 120 281 120 266.5 149 c 128,-1,7
 252 178 252 178 252 222 c 0,8,9
 252 283 252 283 277.5 317.5 c 128,-1,10
 303 352 303 352 335 352 c 128,-1,11
 367 352 367 352 397 316 c 128,-1,12
 427 280 427 280 427 190 c 0,13,14
 427 92 427 92 389.5 -8.5 c 128,-1,15
 352 -109 352 -109 286 -244 c 1,0,-1
EndSplineSet
EndChar

StartChar: colon
Encoding: 58 58 540
Width: 512
VWidth: 2716
GlyphClass: 1
Flags: HW
LayerCount: 2
Fore
SplineSet
319 245 m 128,-1,1
 282 245 282 245 257 277.5 c 128,-1,2
 232 310 232 310 232 354 c 128,-1,3
 232 398 232 398 258 429.5 c 128,-1,4
 284 461 284 461 319 461 c 0,5,6
 356 461 356 461 382 429 c 128,-1,7
 408 397 408 397 408 354 c 0,8,9
 408 310 408 310 382 277.5 c 128,-1,0
 356 245 356 245 319 245 c 128,-1,1
319 1058 m 128,-1,11
 282 1058 282 1058 257 1090.5 c 128,-1,12
 232 1123 232 1123 232 1167 c 128,-1,13
 232 1211 232 1211 258 1242.5 c 128,-1,14
 284 1274 284 1274 319 1274 c 0,15,16
 356 1274 356 1274 382 1242 c 128,-1,17
 408 1210 408 1210 408 1167 c 0,18,19
 408 1123 408 1123 382 1090.5 c 128,-1,10
 356 1058 356 1058 319 1058 c 128,-1,11
EndSplineSet
EndChar

StartChar: semicolon
Encoding: 59 59 541
Width: 512
VWidth: 2716
GlyphClass: 1
Flags: HW
LayerCount: 2
Fore
SplineSet
273 -135 m 1,0,-1
 219 -84 l 1,1,2
 254 -21 254 -21 277 39.5 c 128,-1,3
 300 100 300 100 300 145 c 0,4,5
 300 180 300 180 285.5 204.5 c 128,-1,6
 271 229 271 229 255.5 258 c 128,-1,7
 240 287 240 287 240 331 c 0,8,9
 240 392 240 392 265.5 426.5 c 128,-1,10
 291 461 291 461 322 461 c 0,11,12
 354 461 354 461 384.5 425 c 128,-1,13
 415 389 415 389 415 299 c 0,14,15
 415 201 415 201 377 100.5 c 128,-1,16
 339 0 339 0 273 -135 c 1,0,-1
319 1058 m 128,-1,18
 282 1058 282 1058 257 1090.5 c 128,-1,19
 232 1123 232 1123 232 1167 c 128,-1,20
 232 1211 232 1211 258 1242.5 c 128,-1,21
 284 1274 284 1274 319 1274 c 0,22,23
 356 1274 356 1274 382 1242 c 128,-1,24
 408 1210 408 1210 408 1167 c 0,25,26
 408 1123 408 1123 382 1090.5 c 128,-1,17
 356 1058 356 1058 319 1058 c 128,-1,18
EndSplineSet
EndChar

StartChar: ellipsis
Encoding: 8230 8230 542
Width: 512
VWidth: 2441
GlyphClass: 1
Flags: HW
LayerCount: 2
Fore
SplineSet
79 -30 m 128,-1,1
 48 -30 48 -30 27 2.5 c 128,-1,2
 6 35 6 35 6 79 c 128,-1,3
 6 123 6 123 27 154.5 c 128,-1,4
 48 186 48 186 79 186 c 128,-1,5
 110 186 110 186 131 154 c 128,-1,6
 152 122 152 122 152 79 c 0,7,8
 152 35 152 35 131 2.5 c 128,-1,0
 110 -30 110 -30 79 -30 c 128,-1,1
245 -30 m 128,-1,10
 214 -30 214 -30 193 2.5 c 128,-1,11
 172 35 172 35 172 79 c 128,-1,12
 172 123 172 123 193 154.5 c 128,-1,13
 214 186 214 186 245 186 c 128,-1,14
 276 186 276 186 297 154 c 128,-1,15
 318 122 318 122 318 79 c 0,16,17
 318 35 318 35 297 2.5 c 128,-1,9
 276 -30 276 -30 245 -30 c 128,-1,10
413 -30 m 128,-1,19
 382 -30 382 -30 361 2.5 c 128,-1,20
 340 35 340 35 340 79 c 128,-1,21
 340 123 340 123 361 154.5 c 128,-1,22
 382 186 382 186 413 186 c 128,-1,23
 444 186 444 186 465 154 c 128,-1,24
 486 122 486 122 486 79 c 0,25,26
 486 35 486 35 465 2.5 c 128,-1,18
 444 -30 444 -30 413 -30 c 128,-1,19
EndSplineSet
EndChar

StartChar: exclam
Encoding: 33 33 543
Width: 512
VWidth: 2441
GlyphClass: 1
Flags: HW
LayerCount: 2
Fore
SplineSet
296 -30 m 128,-1,1
 259 -30 259 -30 233 2.5 c 128,-1,2
 207 35 207 35 207 79 c 128,-1,3
 207 123 207 123 233 154.5 c 128,-1,4
 259 186 259 186 296 186 c 128,-1,5
 333 186 333 186 358.5 154 c 128,-1,6
 384 122 384 122 384 79 c 0,7,8
 384 35 384 35 358.5 2.5 c 128,-1,0
 333 -30 333 -30 296 -30 c 128,-1,1
256 473 m 1,9,-1
 217 1498 l 2,10,11
 216.833333333 1503.08333333 216.833333333 1503.08333333 216.833333333 1507.99305556 c 0,12,13
 216.833333333 1562 216.833333333 1562 237 1595 c 0,14,15
 259 1631 259 1631 296 1631 c 0,16,17
 331 1631 331 1631 354.5 1595.5 c 0,18,19
 373.877192982 1566.22807018 373.877192982 1566.22807018 373.877192982 1503.3010157 c 0,20,21
 373.877192982 1489.9122807 373.877192982 1489.9122807 373 1475 c 2,22,-1
 333 473 l 1,23,-1
 256 473 l 1,9,-1
EndSplineSet
EndChar

StartChar: question
Encoding: 63 63 545
Width: 512
VWidth: 2441
GlyphClass: 1
Flags: HW
LayerCount: 2
Fore
SplineSet
324 -30 m 128,-1,1
 287 -30 287 -30 262 2.5 c 128,-1,2
 237 35 237 35 237 79 c 128,-1,3
 237 123 237 123 262.5 154.5 c 128,-1,4
 288 186 288 186 324 186 c 0,5,6
 361 186 361 186 386.5 154 c 128,-1,7
 412 122 412 122 412 79 c 0,8,9
 412 35 412 35 386.5 2.5 c 128,-1,0
 361 -30 361 -30 324 -30 c 128,-1,1
261 527 m 2,10,11
 261 637 261 637 277 709 c 128,-1,12
 293 781 293 781 317.5 833.5 c 128,-1,13
 342 886 342 886 366.5 937 c 128,-1,14
 391 988 391 988 406.5 1056.5 c 128,-1,15
 422 1125 422 1125 422 1230 c 0,16,17
 422 1340 422 1340 399 1415.5 c 128,-1,18
 376 1491 376 1491 315 1491 c 0,19,20
 245 1491 245 1491 196 1391 c 1,21,22
 184 1354 184 1354 181.5 1336 c 128,-1,23
 179 1318 179 1318 188 1299 c 1,24,-1
 181 1281 l 1,25,-1
 159 1291 l 1,26,-1
 79 1372 l 1,27,28
 121 1491 121 1491 175.5 1557.5 c 128,-1,29
 230 1624 230 1624 319 1624 c 0,30,31
 417 1624 417 1624 476 1537.5 c 128,-1,32
 535 1451 535 1451 535 1242 c 0,33,34
 535 1120 535 1120 519 1041 c 128,-1,35
 503 962 503 962 480 906 c 128,-1,36
 457 850 457 850 432.5 800 c 128,-1,37
 408 750 408 750 392 686 c 128,-1,38
 376 622 376 622 376 527 c 2,39,-1
 376 427 l 1,40,-1
 261 427 l 1,41,-1
 261 527 l 2,10,11
EndSplineSet
EndChar

StartChar: periodcentered
Encoding: 183 183 547
Width: 512
VWidth: 2441
GlyphClass: 1
Flags: HW
LayerCount: 2
Fore
SplineSet
296 703 m 128,-1,1
 259 703 259 703 233 735 c 128,-1,2
 207 767 207 767 207 811 c 128,-1,3
 207 855 207 855 233 886.5 c 128,-1,4
 259 918 259 918 296 918 c 128,-1,5
 333 918 333 918 358.5 886.5 c 128,-1,6
 384 855 384 855 384 811 c 128,-1,7
 384 767 384 767 358.5 735 c 128,-1,0
 333 703 333 703 296 703 c 128,-1,1
EndSplineSet
Substitution2: "Single Substitution lookup 11 subtable" periodcentered.loclCAT
Substitution2: "Single Substitution lookup 10 subtable" periodcentered.loclCAT
Substitution2: "'aalt' Access All Alternates in Latin lookup 0 subtable" periodcentered.loclCAT
EndChar

StartChar: bullet
Encoding: 8226 8226 548
Width: 512
VWidth: 2441
GlyphClass: 1
Flags: HW
LayerCount: 2
Fore
SplineSet
322 573 m 0,0,1
 276 573 276 573 243 616 c 128,-1,2
 210 659 210 659 210 715 c 0,3,4
 210 776 210 776 245.5 817.5 c 128,-1,5
 281 859 281 859 322 859 c 0,6,7
 368 859 368 859 402.5 816.5 c 128,-1,8
 437 774 437 774 437 715 c 0,9,10
 437 659 437 659 404 616 c 128,-1,11
 371 573 371 573 322 573 c 0,0,1
EndSplineSet
EndChar

StartChar: asterisk
Encoding: 42 42 549
Width: 512
VWidth: 2441
GlyphClass: 1
Flags: HW
LayerCount: 2
Fore
SplineSet
150 300 m 1,0,-1
 74 386 l 1,1,-1
 222 769 l 1,2,-1
 38 899 l 1,3,-1
 78 1028 l 1,4,-1
 239 876 l 1,5,-1
 226 1309 l 1,6,-1
 334 1309 l 1,7,-1
 315 876 l 1,8,-1
 488 1028 l 1,9,-1
 518 899 l 1,10,-1
 323 769 l 1,11,-1
 480 386 l 1,12,-1
 403 303 l 1,13,-1
 275 674 l 1,14,-1
 150 300 l 1,0,-1
EndSplineSet
Substitution2: "'ss01' Style Set 1 in Latin lookup 35 subtable" asterisk.ss01
Substitution2: "'salt' Stylistic Alternatives in Latin lookup 34 subtable" asterisk.ss01
Substitution2: "'aalt' Access All Alternates in Latin lookup 0 subtable" asterisk.ss01
EndChar

StartChar: uni2E12
Encoding: 11794 11794 550
Width: 512
VWidth: 2212
GlyphClass: 1
Flags: HW
LayerCount: 2
Fore
SplineSet
218 -246 m 1,0,-1
 218 -140 l 1,1,2
 255 -140 255 -140 272 -81 c 128,-1,3
 289 -22 289 -22 289 47 c 0,4,5
 289 117 289 117 272 177 c 128,-1,6
 255 237 255 237 218 237 c 1,7,-1
 218 340 l 1,8,9
 281 340 281 340 326.5 270 c 128,-1,10
 372 200 372 200 372 45 c 0,11,12
 372 -105 372 -105 326.5 -175.5 c 128,-1,13
 281 -246 281 -246 218 -246 c 1,0,-1
EndSplineSet
EndChar

StartChar: numbersign
Encoding: 35 35 551
Width: 512
VWidth: 2441
GlyphClass: 1
Flags: HW
LayerCount: 2
Fore
SplineSet
210 576 m 1,0,-1
 310 576 l 1,1,-1
 331 1001 l 1,2,-1
 231 1001 l 1,3,-1
 210 576 l 1,0,-1
280 24 m 1,4,-1
 304 476 l 1,5,-1
 203 476 l 1,6,-1
 179 35 l 1,7,-1
 100 32 l 1,8,-1
 122 471 l 1,9,-1
 28 471 l 1,10,-1
 32 571 l 1,11,-1
 128 571 l 1,12,-1
 149 999 l 1,13,-1
 43 999 l 1,14,-1
 45 1101 l 1,15,-1
 157 1101 l 1,16,-1
 177 1523 l 1,17,-1
 259 1528 l 1,18,-1
 237 1106 l 1,19,-1
 338 1106 l 1,20,-1
 359 1519 l 1,21,-1
 442 1521 l 1,22,-1
 421 1111 l 1,23,-1
 508 1111 l 1,24,-1
 502 1006 l 1,25,-1
 414 1006 l 1,26,-1
 391 583 l 1,27,-1
 489 583 l 1,28,-1
 483 484 l 1,29,-1
 387 484 l 1,30,-1
 363 35 l 1,31,-1
 280 24 l 1,4,-1
EndSplineSet
EndChar

StartChar: slash
Encoding: 47 47 552
Width: 512
VWidth: 2441
GlyphClass: 1
Flags: HW
LayerCount: 2
Fore
SplineSet
162 -103 m 1,0,-1
 51 -56 l 1,1,-1
 420 1624 l 1,2,-1
 531 1572 l 1,3,-1
 162 -103 l 1,0,-1
EndSplineSet
Substitution2: "'frac' Diagonal Fractions in Latin lookup 23 subtable" fraction
Substitution2: "'aalt' Access All Alternates in Latin lookup 0 subtable" fraction
EndChar

StartChar: backslash
Encoding: 92 92 553
Width: 512
VWidth: 2441
GlyphClass: 1
Flags: HW
LayerCount: 2
Fore
SplineSet
420 -103 m 1,0,-1
 51 1572 l 1,1,-1
 162 1624 l 1,2,-1
 531 -56 l 1,3,-1
 420 -103 l 1,0,-1
EndSplineSet
EndChar

StartChar: asterisk.ss01
Encoding: 65572 -1 555
Width: 512
VWidth: 2441
GlyphClass: 1
Flags: HW
LayerCount: 2
Fore
SplineSet
150 447 m 1,0,-1
 74 532 l 1,1,-1
 222 916 l 1,2,-1
 38 1045 l 1,3,-1
 78 1174 l 1,4,-1
 239 1023 l 1,5,-1
 226 1456 l 1,6,-1
 334 1456 l 1,7,-1
 315 1023 l 1,8,-1
 488 1174 l 1,9,-1
 518 1045 l 1,10,-1
 323 916 l 1,11,-1
 480 532 l 1,12,-1
 403 449 l 1,13,-1
 275 820 l 1,14,-1
 150 447 l 1,0,-1
EndSplineSet
EndChar

StartChar: parenleft
Encoding: 40 40 556
Width: 512
VWidth: 2449
GlyphClass: 1
Flags: HW
LayerCount: 2
Fore
SplineSet
464 -246 m 1,0,1
 364 -151 364 -151 283.5 9 c 128,-1,2
 203 169 203 169 156.5 370.5 c 128,-1,3
 110 572 110 572 110 789 c 128,-1,4
 110 1006 110 1006 155 1202.5 c 128,-1,5
 200 1399 200 1399 279.5 1554 c 128,-1,6
 359 1709 359 1709 457 1802 c 1,7,-1
 510 1690 l 1,8,9
 431 1604 431 1604 367 1460.5 c 128,-1,10
 303 1317 303 1317 264.5 1141 c 128,-1,11
 226 965 226 965 226 782 c 0,12,13
 226 598 226 598 264.5 423 c 128,-1,14
 303 248 303 248 369 102.5 c 128,-1,15
 435 -43 435 -43 515 -131 c 1,16,-1
 464 -246 l 1,0,1
EndSplineSet
EndChar

StartChar: parenright
Encoding: 41 41 557
Width: 512
VWidth: 2449
GlyphClass: 1
Flags: HW
LayerCount: 2
Fore
SplineSet
170 -246 m 1
 270 -151 270 -151 352 9 c 0
 433 169 433 169 478 370 c 0
 524 571 524 571 525 789 c 0
 525 1006 525 1006 479 1202 c 0
 434 1399 434 1399 355 1554 c 0
 275 1709 275 1709 179 1802 c 1
 124 1690 l 1
 203 1604 203 1604 267 1461 c 0
 331 1317 331 1317 370 1140 c 0
 408 965 408 965 408 782 c 0
 408 598 408 598 370 423 c 0
 332 248 332 248 266 102 c 0
 200 -43 200 -43 119 -131 c 1
 170 -246 l 1
EndSplineSet
EndChar

StartChar: braceleft
Encoding: 123 123 558
Width: 512
VWidth: 2486
GlyphClass: 1
Flags: HW
LayerCount: 2
Fore
SplineSet
471 -187 m 2,0,1
 383 -187 383 -187 319.5 -151.5 c 128,-1,2
 256 -116 256 -116 224.5 -23.5 c 128,-1,3
 195.739130435 60.9565217391 195.739130435 60.9565217391 195.739130435 211.688090737 c 0,0,0
 195.739130435 226.043478261 195.739130435 226.043478261 196 241 c 2,4,-1
 200 485 l 2,5,6
 200 646 200 646 172 702 c 128,-1,7
 144 758 144 758 91 758 c 2,8,-1
 66 758 l 1,9,-1
 66 895 l 1,10,-1
 91 895 l 2,11,12
 147 895 147 895 175 956 c 128,-1,13
 203 1017 203 1017 203 1156 c 2,14,-1
 200 1331 l 2,15,16
 200 1543 200 1543 264.5 1650 c 128,-1,17
 329 1757 329 1757 440 1757 c 2,18,-1
 517 1757 l 1,19,-1
 517 1627 l 1,20,-1
 437 1627 l 2,21,22
 383 1627 383 1627 352.5 1557 c 128,-1,23
 322 1487 322 1487 322 1359 c 2,24,-1
 324 1187 l 2,25,26
 324 1052 324 1052 295 962 c 128,-1,27
 266 872 266 872 212 826 c 1,28,29
 263 791 263 791 292.5 697.5 c 128,-1,30
 322 604 322 604 322 448 c 2,31,-1
 319 243 l 2,32,33
 319 77 319 77 352.5 8.5 c 128,-1,34
 386 -60 386 -60 454 -60 c 2,35,-1
 515 -60 l 1,36,-1
 515 -187 l 1,37,-1
 471 -187 l 2,0,1
EndSplineSet
EndChar

StartChar: braceright
Encoding: 125 125 559
Width: 512
VWidth: 2486
GlyphClass: 1
Flags: HW
LayerCount: 2
Fore
SplineSet
139 -187 m 2
 227 -187 227 -187 291 -152 c 0
 354 -116 354 -116 386 -23 c 0
 415.257142857 62.0285714286 415.257142857 62.0285714286 415.257142857 212.25877551 c 0,0,0
 415.257142857 226.342857143 415.257142857 226.342857143 415 241 c 2
 410 485 l 2
 410 646 410 646 439 702 c 0
 468 758 468 758 520 758 c 2
 545 758 l 1
 545 895 l 1
 520 895 l 2
 464 895 464 895 436 956 c 0
 407.966666667 1014.96666667 407.966666667 1014.96666667 407.966666667 1146.82 c 0,0,0
 407.966666667 1151.36666667 407.966666667 1151.36666667 408 1156 c 2
 410 1331 l 2
 410 1543 410 1543 346 1651 c 0
 282 1757 282 1757 170 1757 c 2
 93 1757 l 1
 93 1627 l 1
 173 1627 l 2
 227 1627 227 1627 257 1558 c 0
 288 1489 288 1489 288 1359 c 2
 286 1187 l 2
 286 1052 286 1052 315 963 c 0
 345 872 345 872 398 826 c 1
 347 791 347 791 317 698 c 0
 287.967741935 607.032258065 287.967741935 607.032258065 287.967741935 458 c 0,0,0
 287.967741935 453.032258065 287.967741935 453.032258065 288 448 c 2
 291 243 l 2
 291 77 291 77 257 8 c 0
 224 -60 224 -60 156 -60 c 2
 95 -60 l 1
 95 -187 l 1
 139 -187 l 2
EndSplineSet
EndChar

StartChar: bracketleft
Encoding: 91 91 560
Width: 512
VWidth: 2516
GlyphClass: 1
Flags: HW
LayerCount: 2
Fore
SplineSet
139 -142 m 1,0,-1
 139 1711 l 1,1,-1
 510 1711 l 1,2,-1
 510 1573 l 1,3,-1
 261 1573 l 1,4,-1
 261 -13 l 1,5,-1
 513 -13 l 1,6,-1
 513 -142 l 1,7,-1
 139 -142 l 1,0,-1
EndSplineSet
EndChar

StartChar: bracketright
Encoding: 93 93 561
Width: 512
VWidth: 2516
GlyphClass: 1
Flags: HW
LayerCount: 2
Fore
SplineSet
471 -142 m 1
 471 1711 l 1
 100 1711 l 1
 100 1573 l 1
 349 1573 l 1
 349 -13 l 1
 98 -13 l 1
 98 -142 l 1
 471 -142 l 1
EndSplineSet
EndChar

StartChar: hyphen
Encoding: 45 45 562
Width: 512
VWidth: 2441
GlyphClass: 1
Flags: HW
LayerCount: 2
Fore
SplineSet
137 708 m 1,0,-1
 137 850 l 1,1,-1
 478 850 l 1,2,-1
 478 708 l 1,3,-1
 137 708 l 1,0,-1
EndSplineSet
EndChar

StartChar: endash
Encoding: 8211 8211 564
Width: 512
VWidth: 2441
GlyphClass: 1
Flags: HW
LayerCount: 2
Fore
SplineSet
88 708 m 1,0,-1
 88 850 l 1,1,-1
 527 850 l 1,2,-1
 527 708 l 1,3,-1
 88 708 l 1,0,-1
EndSplineSet
EndChar

StartChar: emdash
Encoding: 8212 8212 565
Width: 512
VWidth: 2441
GlyphClass: 1
Flags: HW
LayerCount: 2
Fore
SplineSet
3 708 m 1,0,-1
 3 850 l 1,1,-1
 483 850 l 1,2,-1
 483 708 l 1,3,-1
 3 708 l 1,0,-1
EndSplineSet
EndChar

StartChar: underscore
Encoding: 95 95 569
Width: 512
VWidth: 2441
GlyphClass: 1
Flags: HW
LayerCount: 2
Fore
SplineSet
38 -191 m 1,0,-1
 38 -54 l 1,1,-1
 518 -54 l 1,2,-1
 518 -191 l 1,3,-1
 38 -191 l 1,0,-1
EndSplineSet
EndChar

StartChar: quotedblleft
Encoding: 8220 8220 572
Width: 512
VWidth: 2441
GlyphClass: 1
Flags: HW
LayerCount: 2
Fore
SplineSet
226 1558 m 1,0,-1
 281 1507 l 1,1,2
 190.989130435 1376.43478261 190.989130435 1376.43478261 190.989130435 1257.61011342 c 0,3,4
 190.989130435 1220.01335404 190.989130435 1220.01335404 208.5 1198.5 c 128,-1,5
 226 1177 226 1177 243.5 1152.5 c 128,-1,6
 261 1128 261 1128 261 1084 c 0,7,8
 261 1030 261 1030 238 996 c 128,-1,9
 215 962 215 962 181 962 c 0,10,11
 144 962 144 962 116 1005 c 128,-1,12
 88 1048 88 1048 88 1118 c 0,13,14
 88 1216 88 1216 119.5 1319.5 c 128,-1,15
 151 1423 151 1423 226 1558 c 1,0,-1
484 1558 m 1,16,-1
 538 1507 l 1,17,18
 447 1375 447 1375 447 1255 c 0,19,20
 447 1220 447 1220 465.5 1198.5 c 128,-1,21
 484 1177 484 1177 500.5 1152.5 c 128,-1,22
 517 1128 517 1128 517 1084 c 0,23,24
 517 1030 517 1030 494 996 c 128,-1,25
 471 962 471 962 437 962 c 0,26,27
 400 962 400 962 372.5 1005 c 128,-1,28
 345 1048 345 1048 345 1118 c 0,29,30
 345 1216 345 1216 377 1319.5 c 128,-1,31
 409 1423 409 1423 484 1558 c 1,16,-1
EndSplineSet
EndChar

StartChar: quoteleft
Encoding: 8216 8216 574
Width: 512
VWidth: 2441
GlyphClass: 1
Flags: HW
LayerCount: 2
Fore
SplineSet
349 1558 m 1,0,-1
 403 1507 l 1,1,2
 312 1375 312 1375 312 1255 c 0,3,4
 312 1220 312 1220 330.5 1198.5 c 128,-1,5
 349 1177 349 1177 366.5 1152.5 c 128,-1,6
 384 1128 384 1128 384 1084 c 0,7,8
 384 1030 384 1030 360.5 996 c 128,-1,9
 337 962 337 962 303 962 c 0,10,11
 266 962 266 962 238 1005 c 128,-1,12
 210 1048 210 1048 210 1118 c 0,13,14
 210 1216 210 1216 242 1319.5 c 128,-1,15
 274 1423 274 1423 349 1558 c 1,0,-1
EndSplineSet
EndChar

StartChar: quoteright
Encoding: 8217 8217 575
Width: 512
VWidth: 2441
GlyphClass: 1
Flags: HW
LayerCount: 2
Fore
SplineSet
244 962 m 1,0,-1
 191 1013 l 1,1,2
 281.010869565 1143.56521739 281.010869565 1143.56521739 281.010869565 1262.38988658 c 0,3,4
 281.010869565 1299.98657289 281.010869565 1299.98657289 264 1321 c 128,-1,5
 247 1342 247 1342 228.5 1368 c 128,-1,6
 210 1394 210 1394 210 1435 c 0,7,8
 210 1491 210 1491 233 1524.5 c 128,-1,9
 256 1558 256 1558 291 1558 c 0,10,11
 328 1558 328 1558 356 1515 c 128,-1,12
 384 1472 384 1472 384 1402 c 0,13,14
 384 1304 384 1304 351.5 1200.5 c 128,-1,15
 319 1097 319 1097 244 962 c 1,0,-1
EndSplineSet
EndChar

StartChar: guillemotleft
Encoding: 171 171 576
Width: 512
VWidth: 2441
GlyphClass: 1
Flags: HW
LayerCount: 2
Fore
SplineSet
478 149 m 1,0,-1
 289 561 l 1,1,-1
 289 617 l 1,2,-1
 469 976 l 1,3,-1
 542 876 l 1,4,-1
 395 589 l 1,5,-1
 549 247 l 1,6,-1
 478 149 l 1,0,-1
260 149 m 1,7,-1
 69 561 l 1,8,-1
 69 617 l 1,9,-1
 253 976 l 1,10,-1
 322 876 l 1,11,-1
 179 589 l 1,12,-1
 333 247 l 1,13,-1
 260 149 l 1,7,-1
EndSplineSet
EndChar

StartChar: guilsinglleft
Encoding: 8249 8249 578
Width: 512
VWidth: 2441
GlyphClass: 1
Flags: HW
LayerCount: 2
Fore
SplineSet
371 149 m 1,0,-1
 179 561 l 1,1,-1
 179 617 l 1,2,-1
 364 976 l 1,3,-1
 435 881 l 1,4,-1
 284 589 l 1,5,-1
 445 242 l 1,6,-1
 371 149 l 1,0,-1
EndSplineSet
EndChar

StartChar: guilsinglright
Encoding: 8250 8250 579
Width: 512
VWidth: 2441
GlyphClass: 1
Flags: HW
LayerCount: 2
Fore
SplineSet
226 149 m 1,0,-1
 154 242 l 1,1,-1
 315 589 l 1,2,-1
 161 881 l 1,3,-1
 235 976 l 1,4,-1
 420 617 l 1,5,-1
 420 561 l 1,6,-1
 226 149 l 1,0,-1
EndSplineSet
EndChar

StartChar: quotedbl
Encoding: 34 34 580
Width: 512
VWidth: 2441
GlyphClass: 1
Flags: HW
LayerCount: 2
Fore
SplineSet
137 1624 m 1
 259 1624 l 1
 259 1477 259 1477 257 1389 c 0
 256 1301 256 1301 253 1241 c 0
 249 1181 249 1181 244 1127 c 0
 239 1072 239 1072 235 994 c 1
 161 994 l 1
 156 1073 156 1073 151 1127 c 0
 146 1182 146 1182 143 1240 c 0
 139 1298 139 1298 138 1388 c 0
 137 1477 137 1477 137 1624 c 1
352 1624 m 1
 473 1624 l 1
 473 1477 473 1477 472 1389 c 0
 471 1301 471 1301 467 1241 c 0
 463 1181 463 1181 459 1127 c 0
 454 1072 454 1072 449 994 c 1
 376 994 l 1
 371 1073 371 1073 366 1127 c 0
 361 1182 361 1182 358 1240 c 0
 354 1298 354 1298 353 1388 c 0
 352 1477 352 1477 352 1624 c 1
EndSplineSet
Substitution2: "'ss03' Style Set 3 in Latin lookup 37 subtable" quotedbl.ss03
Substitution2: "'aalt' Access All Alternates in Latin lookup 0 subtable" quotedbl.ss03
EndChar

StartChar: quotesingle
Encoding: 39 39 581
Width: 512
VWidth: 2441
GlyphClass: 1
Flags: HW
LayerCount: 2
Fore
SplineSet
244 1624 m 1,0,-1
 366 1624 l 1,1,2
 366 1477 366 1477 365 1389.5 c 128,-1,3
 364 1302 364 1302 360 1241.5 c 128,-1,4
 356 1181 356 1181 351.5 1126.5 c 128,-1,5
 347 1072 347 1072 342 994 c 1,6,-1
 268 994 l 1,7,8
 263 1073 263 1073 258.5 1127 c 128,-1,9
 254 1181 254 1181 250.5 1240 c 128,-1,10
 247 1299 247 1299 245.5 1388 c 128,-1,11
 244 1477 244 1477 244 1624 c 1,0,-1
EndSplineSet
Substitution2: "'ss03' Style Set 3 in Latin lookup 37 subtable" quotesingle.ss03
Substitution2: "'aalt' Access All Alternates in Latin lookup 0 subtable" quotesingle.ss03
EndChar

StartChar: quotesingle.ss03
Encoding: 65574 -1 583
Width: 512
VWidth: 2441
GlyphClass: 1
Flags: HW
LayerCount: 2
Fore
SplineSet
319 999 m 1,0,-1
 249 1006 l 1,1,2
 276 1172 276 1172 280 1289.5 c 128,-1,3
 284 1407 284 1407 284 1491 c 0,4,5
 284 1623 284 1623 337 1624 c 0,6,7
 391 1624 391 1624 391 1496 c 0,8,9
 391 1438 391 1438 383.5 1373.5 c 128,-1,10
 376 1309 376 1309 359.5 1221.5 c 128,-1,11
 343 1134 343 1134 319 999 c 1,0,-1
EndSplineSet
EndChar

StartChar: hyphen_greater.dlig
Encoding: 65575 -1 584
Width: 512
VWidth: 2441
GlyphClass: 1
Flags: HW
LayerCount: 2
Fore
SplineSet
28 708 m 1,0,-1
 28 850 l 1,1,-1
 353 850 l 1,2,-1
 353 708 l 1,3,-1
 28 708 l 1,0,-1
234 114 m 1,4,-1
 234 291 l 1,5,-1
 460 778 l 1,6,-1
 235 1211 l 1,7,-1
 235 1384 l 1,8,-1
 508 832 l 1,9,-1
 508 730 l 1,10,-1
 234 114 l 1,4,-1
EndSplineSet
Ligature2: "'dlig' Discretionary Ligatures in Latin lookup 32 subtable" hyphen greater
EndChar

StartChar: exclam_equal_equal.dlig
Encoding: 65576 -1 585
Width: 512
VWidth: 2412
GlyphClass: 1
Flags: HW
LayerCount: 2
Fore
SplineSet
14 58 m 1,0,-1
 14 203 l 1,1,-1
 209 203 l 1,2,-1
 229 511 l 1,3,-1
 72 511 l 1,4,-1
 72 655 l 1,5,-1
 239 655 l 1,6,-1
 259 965 l 1,7,-1
 14 965 l 1,8,-1
 14 1110 l 1,9,-1
 269 1110 l 1,10,-1
 289 1414 l 1,11,-1
 326 1378 l 1,12,-1
 309 1110 l 1,13,-1
 494 1110 l 1,14,-1
 494 965 l 1,15,-1
 299 965 l 1,16,-1
 279 655 l 1,17,-1
 436 655 l 1,18,-1
 436 511 l 1,19,-1
 269 511 l 1,20,-1
 249 203 l 1,21,-1
 494 203 l 1,22,-1
 494 58 l 1,23,-1
 239 58 l 1,24,-1
 219 -246 l 1,25,-1
 182 -215 l 1,26,-1
 200 58 l 1,27,-1
 14 58 l 1,0,-1
EndSplineSet
Ligature2: "'dlig' Discretionary Ligatures in Latin lookup 32 subtable" exclam equal equal
EndChar

StartChar: uni20B5
Encoding: 8373 8373 594
Width: 512
VWidth: 2441
GlyphClass: 2
Flags: HW
AnchorPoint: "Anchor-2" 317 0 basechar 0
AnchorPoint: "Anchor-0" 306 1521 basechar 0
LayerCount: 2
Fore
SplineSet
161 764 m 0,0,1
 161 532 161 532 187.5 384.5 c 128,-1,2
 214 237 214 237 253 170 c 1,3,-1
 253 1353 l 1,4,5
 210 1297 210 1297 185.5 1154 c 128,-1,6
 161 1011 161 1011 161 764 c 0,0,1
253 -173 m 1,7,-1
 253 -10 l 1,8,9
 195 17 195 17 149 101.5 c 128,-1,10
 103 186 103 186 75 344.5 c 128,-1,11
 47 503 47 503 47 752 c 0,12,13
 47 1018 47 1018 76 1176.5 c 128,-1,14
 105 1335 105 1335 152 1414.5 c 128,-1,15
 199 1494 199 1494 253 1519 c 1,16,-1
 253 1647 l 1,17,-1
 362 1647 l 1,18,-1
 362 1528 l 1,19,20
 422 1516 422 1516 466 1460 c 128,-1,21
 510 1404 510 1404 527 1302 c 1,22,-1
 458 1216 l 1,23,-1
 442 1197 l 1,24,-1
 431 1209 l 1,25,26
 429 1228 429 1228 432 1252.5 c 128,-1,27
 435 1277 435 1277 422 1314 c 1,28,29
 395 1368 395 1368 362 1384 c 1,30,-1
 362 124 l 1,31,32
 411 148 411 148 449 266 c 1,33,-1
 518 159 l 1,34,35
 458 0 458 0 362 -19 c 1,36,-1
 362 -173 l 1,37,-1
 253 -173 l 1,7,-1
EndSplineSet
EndChar

StartChar: cent
Encoding: 162 162 595
Width: 512
VWidth: 2441
GlyphClass: 2
Flags: HW
AnchorPoint: "Anchor-2" 339 105 basechar 0
AnchorPoint: "Anchor-0" 339 1221 basechar 0
LayerCount: 2
Fore
SplineSet
177 662 m 0,0,1
 177 496 177 496 194.5 399.5 c 128,-1,2
 212 303 212 303 246 256 c 1,3,-1
 303 1109 l 1,4,5
 274 1097 274 1097 244 1050.5 c 128,-1,6
 214 1004 214 1004 195.5 910 c 128,-1,7
 177 816 177 816 177 662 c 0,0,1
322 -179 m 1,8,-1
 217 -179 l 1,9,-1
 237 103 l 1,10,11
 62 198 62 198 62 662 c 0,12,13
 62 874 62 874 99 997.5 c 128,-1,14
 136 1121 136 1121 193 1178 c 128,-1,15
 250 1235 250 1235 312 1242 c 1,16,-1
 332 1521 l 1,17,-1
 432 1521 l 1,18,-1
 412 1230 l 1,19,20
 503 1195 503 1195 542 1081 c 1,21,-1
 487 974 l 1,22,-1
 478 952 l 1,23,-1
 463 960 l 1,24,25
 456 979 456 979 454.5 1004.5 c 128,-1,26
 453 1030 453 1030 432 1065 c 0,27,28
 418 1082 418 1082 403 1091 c 1,29,-1
 348 210 l 1,30,31
 386 212 386 212 422 237.5 c 128,-1,32
 458 263 458 263 487 324 c 1,33,-1
 532 196 l 1,34,35
 496 135 496 135 445 107 c 128,-1,36
 394 79 394 79 339 79 c 1,37,-1
 322 -179 l 1,8,-1
EndSplineSet
EndChar

StartChar: colonmonetary
Encoding: 8353 8353 596
Width: 512
VWidth: 2441
GlyphClass: 2
Flags: HW
AnchorPoint: "Anchor-2" 317 0 basechar 0
AnchorPoint: "Anchor-0" 306 1521 basechar 0
LayerCount: 2
Fore
SplineSet
161 764 m 0,0,1
 161 676 161 676 165 600.5 c 128,-1,2
 169 525 169 525 178 461 c 1,3,-1
 276 1374 l 1,4,5
 224 1335 224 1335 192.5 1188.5 c 128,-1,6
 161 1042 161 1042 161 764 c 0,0,1
218 254 m 1,7,8
 229 215 229 215 244 186 c 1,9,-1
 375 1377 l 1,10,11
 360 1387 360 1387 341 1389 c 1,12,-1
 218 254 l 1,7,8
107 -173 m 1,13,-1
 139 119 l 1,14,15
 96 207 96 207 71.5 361 c 128,-1,16
 47 515 47 515 47 752 c 0,17,18
 47 974 47 974 68.5 1122 c 128,-1,19
 90 1270 90 1270 124.5 1356 c 128,-1,20
 159 1442 159 1442 204 1481.5 c 128,-1,21
 249 1521 249 1521 292 1531 c 1,22,-1
 306 1647 l 1,23,-1
 368 1647 l 1,24,-1
 355 1531 l 1,25,26
 373 1529 373 1529 390 1521 c 1,27,-1
 404 1647 l 1,28,-1
 469 1647 l 1,29,-1
 452 1479 l 1,30,31
 506 1418 506 1418 527 1302 c 1,32,-1
 458 1216 l 1,33,-1
 442 1197 l 1,34,-1
 431 1209 l 1,35,36
 429 1226 429 1226 432 1243 c 128,-1,37
 435 1260 435 1260 428 1284 c 1,38,-1
 302 122 l 1,39,40
 313 117 313 117 325 117 c 0,41,42
 368 117 368 117 397 155 c 128,-1,43
 426 193 426 193 449 266 c 1,44,-1
 518 159 l 1,45,46
 482 64 482 64 436 20 c 128,-1,47
 390 -24 390 -24 321 -24 c 0,48,49
 303 -24 303 -24 287 -21 c 1,50,-1
 272 -173 l 1,51,-1
 206 -173 l 1,52,-1
 227 5 l 1,53,54
 209 17 209 17 193 35 c 1,55,-1
 171 -173 l 1,56,-1
 107 -173 l 1,13,-1
EndSplineSet
EndChar

StartChar: currency
Encoding: 164 164 597
Width: 512
VWidth: 2441
GlyphClass: 1
Flags: HW
LayerCount: 2
Fore
SplineSet
304 603 m 0,0,1
 365 603 365 603 389 674 c 128,-1,2
 413 745 413 745 413 843 c 0,3,4
 413 943 413 943 389 1013.5 c 128,-1,5
 365 1084 365 1084 304 1084 c 0,6,7
 248 1084 248 1084 222.5 1013.5 c 128,-1,8
 197 943 197 943 197 843 c 0,9,10
 197 745 197 745 221.5 674 c 128,-1,11
 246 603 246 603 304 603 c 0,0,1
126 401 m 1,12,-1
 65 473 l 1,13,-1
 134 638 l 1,14,15
 102 733 102 733 102 843 c 128,-1,16
 102 953 102 953 137 1045 c 1,17,-1
 65 1209 l 1,18,-1
 126 1286 l 1,19,-1
 185 1150 l 1,20,21
 236 1220 236 1220 307 1221 c 0,22,23
 334 1221 334 1221 366.5 1203.5 c 128,-1,24
 399 1186 399 1186 423 1153 c 1,25,-1
 482 1286 l 1,26,-1
 543 1225 l 1,27,-1
 474 1067 l 1,28,29
 493 1016 493 1016 501 960 c 128,-1,30
 509 904 509 904 509 843 c 128,-1,31
 509 782 509 782 503 729 c 128,-1,32
 497 676 497 676 479 627 c 1,33,-1
 545 473 l 1,34,-1
 482 401 l 1,35,-1
 425 535 l 1,36,37
 401 498 401 498 368.5 481 c 128,-1,38
 336 464 336 464 307 464 c 0,39,40
 275 464 275 464 243 482.5 c 128,-1,41
 211 501 211 501 185 538 c 1,42,-1
 126 401 l 1,12,-1
EndSplineSet
EndChar

StartChar: dollar
Encoding: 36 36 598
Width: 512
VWidth: 2441
GlyphClass: 1
Flags: HW
LayerCount: 2
Fore
SplineSet
346 175 m 1,0,1
 381 196 381 196 399.5 271.5 c 128,-1,2
 418 347 418 347 418 432 c 0,3,4
 418 520 418 520 396 580 c 128,-1,5
 374 640 374 640 346 657 c 1,6,-1
 346 175 l 1,0,1
242 888 m 1,7,-1
 242 1307 l 1,8,9
 217 1297 217 1297 196.5 1251.5 c 128,-1,10
 176 1206 176 1206 176 1109 c 0,11,12
 176 1041 176 1041 191.5 983 c 128,-1,13
 207 925 207 925 242 888 c 1,7,-1
242 -114 m 1,14,-1
 242 35 l 1,15,16
 183 45 183 45 130 92 c 128,-1,17
 77 139 77 139 48 210 c 1,18,-1
 119 352 l 1,19,20
 123 345 123 345 123 327.5 c 128,-1,21
 123 310 123 310 126 300 c 0,22,23
 137 258 137 258 166 222 c 128,-1,24
 195 186 195 186 242 170 c 1,25,-1
 242 720 l 1,26,27
 185 764 185 764 145 809.5 c 128,-1,28
 105 855 105 855 85.5 920.5 c 128,-1,29
 66 986 66 986 66 1088 c 0,30,31
 66 1212 66 1212 89 1285 c 128,-1,32
 112 1358 112 1358 151.5 1393 c 128,-1,33
 191 1428 191 1428 242 1442 c 1,34,-1
 242 1589 l 1,35,-1
 352 1589 l 1,36,-1
 352 1582 l 2,37,38
 352 1577 352 1577 349 1566.5 c 128,-1,39
 346 1556 346 1556 346 1538 c 2,40,-1
 346 1445 l 1,41,42
 396 1433 396 1433 430 1402.5 c 128,-1,43
 464 1372 464 1372 486 1293 c 1,44,-1
 436 1158 l 1,45,46
 430 1163 430 1163 428 1180 c 128,-1,47
 426 1197 426 1197 422 1209 c 0,48,49
 413 1248 413 1248 391 1270.5 c 128,-1,50
 369 1293 369 1293 346 1304 c 1,51,-1
 346 820 l 1,52,53
 409 776 409 776 449 730.5 c 128,-1,54
 489 685 489 685 508.5 619.5 c 128,-1,55
 528 554 528 554 528 442 c 0,56,57
 528 261 528 261 479.5 162 c 128,-1,58
 431 63 431 63 346 39 c 1,59,-1
 346 -114 l 1,60,-1
 242 -114 l 1,14,-1
EndSplineSet
EndChar

StartChar: dong
Encoding: 8363 8363 599
Width: 512
VWidth: 2441
GlyphClass: 2
Flags: HW
AnchorPoint: "Anchor-4" 389 1333 basechar 0
AnchorPoint: "Anchor-2" 281 261 basechar 0
AnchorPoint: "Anchor-1" 496 1155 basechar 0
AnchorPoint: "Anchor-0" 281 1155 basechar 0
LayerCount: 2
Fore
SplineSet
79 132 m 1,0,-1
 505 132 l 1,1,-1
 505 0 l 1,2,-1
 79 0 l 1,3,-1
 79 132 l 1,0,-1
268 354 m 0,4,5
 310 354 310 354 340.5 429.5 c 128,-1,6
 371 505 371 505 371 713 c 0,7,8
 371 911 371 911 341.5 985.5 c 128,-1,9
 312 1060 312 1060 271 1060 c 0,10,11
 236 1060 236 1060 212 1034.5 c 128,-1,12
 188 1009 188 1009 177 940 c 128,-1,13
 166 871 166 871 166 737 c 0,14,15
 166 569 166 569 181 487 c 128,-1,16
 196 405 196 405 220 379.5 c 128,-1,17
 244 354 244 354 268 354 c 0,4,5
249 242 m 0,18,19
 203 242 203 242 162.5 277 c 128,-1,20
 122 312 122 312 98.5 414.5 c 128,-1,21
 75 517 75 517 75 715 c 0,22,23
 75 908 75 908 98.5 1006 c 128,-1,24
 122 1104 122 1104 163.5 1139 c 128,-1,25
 205 1174 205 1174 259 1174 c 0,26,27
 352 1174 352 1174 371 1037 c 1,28,-1
 371 1260 l 1,29,-1
 210 1260 l 1,30,-1
 210 1389 l 1,31,-1
 371 1389 l 1,32,-1
 371 1560 l 1,33,-1
 484 1560 l 1,34,-1
 484 1545 l 1,35,36
 465.95 1528.85 465.95 1528.85 465.95 1480.21 c 0,37,38
 465.95 1477.65 465.95 1477.65 466 1475 c 2,39,-1
 466 1389 l 1,40,-1
 540 1389 l 1,41,-1
 540 1260 l 1,42,-1
 466 1260 l 1,43,-1
 466 401 l 2,44,45
 466 366 466 366 467 331 c 128,-1,46
 468 296 468 296 476 261 c 1,47,-1
 386 261 l 1,48,49
 379 285 379 285 373.5 315 c 128,-1,50
 368 345 368 345 368 378 c 1,51,52
 351 322 351 322 321 282 c 128,-1,53
 291 242 291 242 249 242 c 0,18,19
EndSplineSet
EndChar

StartChar: Euro
Encoding: 8364 8364 600
Width: 512
VWidth: 2441
GlyphClass: 1
Flags: HW
LayerCount: 2
Fore
SplineSet
351 -27 m 0,0,1
 289 -27 289 -27 233.5 28 c 128,-1,2
 178 83 178 83 138.5 206 c 128,-1,3
 99 329 99 329 82 538 c 1,4,-1
 37 538 l 1,5,-1
 50 669 l 1,6,-1
 76 669 l 1,7,8
 74.6666666667 693.666666667 74.6666666667 693.666666667 74.6666666667 729.888888889 c 0,0,0
 74.6666666667 748 74.6666666667 748 75 769 c 128,-1,9
 76 832 76 832 78 874 c 1,10,-1
 37 874 l 1,11,-1
 50 1006 l 1,12,-1
 89 1006 l 1,13,14
 108 1216 108 1216 151.5 1329 c 128,-1,15
 195 1442 195 1442 250.5 1487.5 c 128,-1,16
 306 1533 306 1533 357 1533 c 0,17,18
 415 1533 415 1533 458.5 1512 c 128,-1,19
 502 1491 502 1491 517 1451 c 1,20,-1
 492 1307 l 1,21,22
 475 1309 475 1309 460.5 1330 c 128,-1,23
 446 1351 446 1351 422.5 1372.5 c 128,-1,24
 399 1394 399 1394 353 1394 c 0,25,26
 236 1394 236 1394 201 1006 c 1,27,-1
 440 1006 l 1,28,-1
 416 874 l 1,29,-1
 190 874 l 1,30,31
 188 835 188 835 187 776.5 c 128,-1,32
 186.666666667 757 186.666666667 757 186.666666667 738.555555556 c 0,0,0
 186.666666667 701.666666667 186.666666667 701.666666667 188 669 c 1,33,-1
 383 669 l 1,34,-1
 359 538 l 1,35,-1
 195 538 l 1,36,37
 212 335 212 335 250 227 c 128,-1,38
 288 119 288 119 355 119 c 0,39,40
 388 119 388 119 415 137.5 c 128,-1,41
 442 156 442 156 463 200 c 1,42,-1
 511 79 l 1,43,44
 478 18 478 18 436 -4.5 c 128,-1,45
 394 -27 394 -27 351 -27 c 0,0,1
EndSplineSet
EndChar

StartChar: florin
Encoding: 402 402 601
Width: 512
VWidth: 2370
GlyphClass: 1
Flags: HW
LayerCount: 2
Fore
SplineSet
103 -246 m 0,0,1
 78 -246 78 -246 53.5 -233 c 128,-1,2
 29 -220 29 -220 18 -191 c 1,3,-1
 52 -41 l 1,4,5
 58 -45 58 -45 67.5 -71 c 128,-1,6
 77 -97 77 -97 105 -97 c 0,7,8
 134 -97 134 -97 148 -21.5 c 128,-1,9
 162 54 162 54 166 203 c 2,10,-1
 188 872 l 1,11,-1
 83 872 l 1,12,-1
 83 996 l 1,13,-1
 192 996 l 1,14,-1
 199 1202 l 2,15,16
 205 1378 205 1378 231 1474 c 128,-1,17
 257 1570 257 1570 296.5 1606.5 c 128,-1,18
 336 1643 336 1643 382 1643 c 0,19,20
 449 1643 449 1643 498 1553 c 1,21,-1
 461 1398 l 1,22,23
 453 1398 453 1398 450 1421 c 0,24,25
 438 1519 438 1519 390 1519 c 0,26,27
 351 1519 351 1519 335 1438.5 c 128,-1,28
 319 1358 319 1358 313 1179 c 2,29,-1
 307 996 l 1,30,-1
 413 996 l 1,31,-1
 413 872 l 1,32,-1
 301 872 l 1,33,-1
 275 197 l 2,34,35
 271 12 271 12 244.5 -84 c 128,-1,36
 218 -180 218 -180 180 -213 c 128,-1,37
 142 -246 142 -246 103 -246 c 0,0,1
EndSplineSet
EndChar

StartChar: uni20B2
Encoding: 8370 8370 603
Width: 512
VWidth: 2441
GlyphClass: 1
Flags: HW
LayerCount: 2
Fore
SplineSet
154 778 m 0,0,1
 154 548 154 548 178 396 c 128,-1,2
 202 244 202 244 240 179 c 1,3,-1
 240 1365 l 1,4,5
 198 1323 198 1323 176 1187 c 128,-1,6
 154 1051 154 1051 154 778 c 0,0,1
240 -173 m 1,7,-1
 240 -12 l 1,8,9
 145 32 145 32 91.5 217.5 c 128,-1,10
 38 403 38 403 38 743 c 1,11,12
 42 1041 42 1041 68.5 1206.5 c 128,-1,13
 95 1372 95 1372 139 1444 c 128,-1,14
 183 1516 183 1516 240 1531 c 1,15,-1
 240 1647 l 1,16,-1
 337 1647 l 1,17,-1
 337 1533 l 1,18,19
 410 1516 410 1516 452 1455 c 128,-1,20
 494 1394 494 1394 509 1314 c 1,21,-1
 461 1172 l 1,22,23
 452 1182 452 1182 442 1226 c 128,-1,24
 432 1270 432 1270 408.5 1315 c 128,-1,25
 385 1360 385 1360 337 1379 c 1,26,-1
 337 135 l 1,27,28
 359 142 359 142 379 164 c 128,-1,29
 399 186 399 186 419 219 c 1,30,-1
 419 594 l 1,31,-1
 372 594 l 1,32,-1
 372 730 l 1,33,-1
 518 730 l 1,34,-1
 518 135 l 1,35,36
 476 69 476 69 429.5 29.5 c 128,-1,37
 383 -10 383 -10 337 -19 c 1,38,-1
 337 -173 l 1,39,-1
 240 -173 l 1,7,-1
EndSplineSet
EndChar

StartChar: uni20AD
Encoding: 8365 8365 604
Width: 512
VWidth: 2441
GlyphClass: 1
Flags: HW
LayerCount: 2
Fore
SplineSet
194 725 m 1,0,-1
 155 598 l 1,1,-1
 155 0 l 1,2,-1
 53 0 l 1,3,-1
 53 799 l 1,4,-1
 1 799 l 1,5,-1
 1 923 l 1,6,-1
 53 923 l 1,7,-1
 53 1521 l 1,8,-1
 172 1521 l 1,9,-1
 172 1504 l 1,10,11
 160 1490 160 1490 157.5 1473 c 128,-1,12
 155 1456 155 1456 155 1414 c 2,13,-1
 155 830 l 1,14,-1
 361 1533 l 1,15,16
 371 1528 371 1528 398.5 1524.5 c 128,-1,17
 426 1521 426 1521 439 1521 c 2,18,-1
 465 1521 l 1,19,-1
 288 923 l 1,20,-1
 435 923 l 1,21,-1
 435 799 l 1,22,-1
 276 799 l 1,23,-1
 481 0 l 1,24,-1
 369 -10 l 1,25,-1
 194 725 l 1,0,-1
EndSplineSet
EndChar

StartChar: uni20BA
Encoding: 8378 8378 606
Width: 512
VWidth: 2441
GlyphClass: 1
Flags: HW
LayerCount: 2
Fore
SplineSet
112 0 m 1,0,-1
 112 676 l 1,1,-1
 29 610 l 1,2,-1
 29 740 l 1,3,-1
 112 806 l 1,4,-1
 112 962 l 1,5,-1
 29 896 l 1,6,-1
 29 1025 l 1,7,-1
 112 1091 l 1,8,-1
 112 1521 l 1,9,-1
 237 1521 l 1,10,11
 237 1497 237 1497 231.5 1487 c 128,-1,12
 226 1477 226 1477 226 1438 c 2,13,-1
 226 1179 l 1,14,-1
 405 1318 l 1,15,-1
 405 1189 l 1,16,-1
 226 1050 l 1,17,-1
 226 894 l 1,18,-1
 405 1032 l 1,19,-1
 405 904 l 1,20,-1
 226 764 l 1,21,-1
 226 149 l 1,22,23
 285 149 285 149 324 183 c 128,-1,24
 363 217 363 217 382 307.5 c 128,-1,25
 401 398 401 398 401 561 c 1,26,-1
 509 561 l 1,27,28
 509 337 509 337 478.5 215 c 128,-1,29
 448 93 448 93 380 46.5 c 128,-1,30
 312 0 312 0 199 0 c 2,31,-1
 112 0 l 1,0,-1
EndSplineSet
EndChar

StartChar: uni20BC
Encoding: 8380 8380 607
Width: 512
VWidth: 2441
GlyphClass: 1
Flags: HW
LayerCount: 2
Fore
SplineSet
231 242 m 1,0,-1
 231 1274 l 1,1,2
 182 1237 182 1237 165 1132.5 c 128,-1,3
 148 1028 148 1028 148 876 c 2,4,-1
 148 79 l 2,5,6
 148 47 148 47 151.5 30.5 c 128,-1,7
 155 14 155 14 155 0 c 1,8,-1
 43 0 l 1,9,-1
 43 874 l 2,10,11
 43 1067 43 1067 65.5 1183 c 128,-1,12
 88 1299 88 1299 130.5 1354 c 128,-1,13
 173 1409 173 1409 231 1421 c 1,14,-1
 231 1624 l 1,15,-1
 332 1624 l 1,16,-1
 332 1421 l 1,17,18
 388 1407 388 1407 430.5 1350 c 128,-1,19
 473 1293 473 1293 498 1177.5 c 128,-1,20
 523 1062 523 1062 523 867 c 2,21,-1
 523 0 l 1,22,-1
 422 0 l 1,23,-1
 422 869 l 2,24,25
 422 1030 422 1030 404 1136 c 128,-1,26
 386 1242 386 1242 332 1274 c 1,27,-1
 332 242 l 1,28,-1
 231 242 l 1,0,-1
EndSplineSet
EndChar

StartChar: uni20A6
Encoding: 8358 8358 608
Width: 512
VWidth: 2441
GlyphClass: 2
Flags: HW
AnchorPoint: "Anchor-2" 245 0 basechar 0
AnchorPoint: "Anchor-0" 245 1521 basechar 0
LayerCount: 2
Fore
SplineSet
345 466 m 1,0,-1
 345 696 l 1,1,-1
 301 696 l 1,2,-1
 345 466 l 1,0,-1
141 1123 m 1,3,-1
 141 820 l 1,4,-1
 199 820 l 1,5,-1
 141 1123 l 1,3,-1
7 696 m 1,6,-1
 7 820 l 1,7,-1
 60 820 l 1,8,-1
 60 1521 l 1,9,-1
 145 1521 l 1,10,-1
 277 820 l 1,11,-1
 345 820 l 1,12,-1
 345 1521 l 1,13,-1
 445 1521 l 1,14,-1
 445 1504 l 1,15,16
 433 1490 433 1490 429.5 1473 c 128,-1,17
 426 1456 426 1456 426 1414 c 2,18,-1
 426 820 l 1,19,-1
 487 820 l 1,20,-1
 487 696 l 1,21,-1
 426 696 l 1,22,-1
 426 0 l 1,23,-1
 354 0 l 1,24,-1
 220 696 l 1,25,-1
 141 696 l 1,26,-1
 141 0 l 1,27,-1
 60 0 l 1,28,-1
 60 696 l 1,29,-1
 7 696 l 1,6,-1
EndSplineSet
EndChar

StartChar: peseta
Encoding: 8359 8359 609
Width: 512
VWidth: 2441
GlyphClass: 1
Flags: HW
LayerCount: 2
Fore
SplineSet
251 -30 m 0,0,1
 196 -30 196 -30 177 37.5 c 128,-1,2
 161.304347826 93.2608695652 161.304347826 93.2608695652 161.304347826 231.253308129 c 0,0,0
 161.304347826 260.304347826 161.304347826 260.304347826 162 293 c 2,3,-1
 168 522 l 1,4,-1
 119 522 l 1,5,-1
 126 632 l 1,6,-1
 170 632 l 1,7,-1
 170 745 l 1,8,-1
 242 769 l 1,9,-1
 264 774 l 1,10,-1
 268 759 l 1,11,12
 260 742 260 742 251 722.5 c 128,-1,13
 242 703 242 703 242 662 c 2,14,-1
 242 632 l 1,15,-1
 298 632 l 1,16,-1
 290 522 l 1,17,-1
 240 522 l 1,18,-1
 234 310 l 2,19,20
 232.4 257.2 232.4 257.2 232.4 218.56 c 0,0,0
 232.4 160.6 232.4 160.6 236 134.5 c 128,-1,21
 242 91 242 91 258 91 c 0,22,23
 275 91 275 91 292 114 c 1,24,-1
 315 210 l 1,25,-1
 319 230 l 1,26,-1
 329 224 l 1,27,28
 337 212 337 212 333 186.5 c 128,-1,29
 329 161 329 161 341 132 c 0,30,31
 349 108 349 108 360.5 93.5 c 128,-1,32
 372 79 372 79 394 79 c 0,33,34
 411 79 411 79 424.5 104.5 c 128,-1,35
 438 130 438 130 438 161 c 0,36,37
 438 196 438 196 433 224 c 128,-1,38
 428 252 428 252 396 275 c 0,39,40
 351 310 351 310 327.5 354 c 128,-1,41
 304 398 304 398 304 473 c 0,42,43
 304 556 304 556 330.5 601.5 c 128,-1,44
 357 647 357 647 398 647 c 0,45,46
 434 647 434 647 458.5 622.5 c 128,-1,47
 483 598 483 598 504 557 c 1,48,-1
 471 459 l 1,49,-1
 463 437 l 1,50,-1
 455 440 l 1,51,52
 455 457 455 457 456 473 c 128,-1,53
 457 489 457 489 449 505 c 0,54,55
 430 535 430 535 404 535 c 0,56,57
 372 535 372 535 372 476 c 0,58,59
 372 446 372 446 380 427 c 128,-1,60
 388 408 388 408 417 380 c 0,61,62
 466 338 466 338 486 293.5 c 128,-1,63
 506 249 506 249 506 179 c 0,64,65
 506 84 506 84 476.5 24.5 c 128,-1,66
 447 -35 447 -35 398 -35 c 0,67,68
 351 -35 351 -35 317 17 c 1,69,70
 287 -30 287 -30 251 -30 c 0,0,1
117 888 m 2,71,72
 168 888 168 888 185.5 960 c 128,-1,73
 203 1032 203 1032 203 1153 c 0,74,75
 203 1246 203 1246 185.5 1318.5 c 128,-1,76
 168 1391 168 1391 119 1391 c 2,77,-1
 110 1391 l 1,78,-1
 110 888 l 1,79,-1
 117 888 l 2,71,72
26 1521 m 1,80,-1
 122 1521 l 2,81,82
 173 1521 173 1521 210 1471 c 128,-1,83
 247 1421 247 1421 267 1338 c 128,-1,84
 287 1255 287 1255 287 1158 c 0,85,86
 287 995 287 995 244 882 c 128,-1,87
 201 769 201 769 126 769 c 2,88,-1
 110 769 l 1,89,-1
 110 0 l 1,90,-1
 26 0 l 1,91,-1
 26 1521 l 1,80,-1
EndSplineSet
EndChar

StartChar: uni20B1
Encoding: 8369 8369 610
Width: 512
VWidth: 2441
GlyphClass: 2
Flags: HW
AnchorPoint: "Anchor-2" 76 0 basechar 0
AnchorPoint: "Anchor-0" 233 1521 basechar 0
LayerCount: 2
Fore
SplineSet
138 806 m 1,0,-1
 220 806 l 2,1,2
 262 806 262 806 289 842.5 c 128,-1,3
 316 879 316 879 330 939 c 1,4,-1
 138 939 l 1,5,-1
 138 806 l 1,0,-1
346 1094 m 0,6,7
 346 1118 346 1118 346 1137 c 1,8,-1
 138 1137 l 1,9,-1
 138 1039 l 1,10,-1
 344 1039 l 1,11,12
 346 1067 346 1067 346 1094 c 0,6,7
138 1384 m 1,13,-1
 138 1237 l 1,14,-1
 336 1237 l 1,15,16
 308 1384 308 1384 220 1384 c 2,17,-1
 138 1384 l 1,13,-1
37 0 m 1,18,-1
 37 939 l 1,19,-1
 -1 939 l 1,20,-1
 -1 1039 l 1,21,-1
 37 1039 l 1,22,-1
 37 1137 l 1,23,-1
 -1 1137 l 1,24,-1
 -1 1237 l 1,25,-1
 37 1237 l 1,26,-1
 37 1521 l 1,27,-1
 222 1521 l 2,28,29
 406 1521 406 1521 437 1237 c 1,30,-1
 479 1237 l 1,31,-1
 479 1137 l 1,32,-1
 445 1137 l 1,33,34
 445 1118 445 1118 445 1099 c 0,35,36
 445 1067 445 1067 443 1039 c 1,37,-1
 479 1039 l 1,38,-1
 479 939 l 1,39,-1
 434 939 l 1,40,41
 415 804 415 804 359 736.5 c 128,-1,42
 303 669 303 669 227 669 c 2,43,-1
 138 669 l 1,44,-1
 138 0 l 1,45,-1
 37 0 l 1,18,-1
EndSplineSet
EndChar

StartChar: uni20BD
Encoding: 8381 8381 611
Width: 512
VWidth: 2441
GlyphClass: 2
Flags: HW
AnchorPoint: "Anchor-2" 107 0 basechar 0
AnchorPoint: "Anchor-0" 275 1521 basechar 0
LayerCount: 2
Fore
SplineSet
173 806 m 1,0,-1
 260 806 l 2,1,2
 328 806 328 806 361.5 886.5 c 128,-1,3
 395 967 395 967 395 1094 c 0,4,5
 395 1245 395 1245 360 1314.5 c 128,-1,6
 325 1384 325 1384 260 1384 c 2,7,-1
 173 1384 l 1,8,-1
 173 806 l 1,0,-1
65 0 m 1,9,-1
 65 384 l 1,10,-1
 21 384 l 1,11,-1
 21 517 l 1,12,-1
 65 517 l 1,13,-1
 65 671 l 1,14,-1
 21 671 l 1,15,-1
 21 806 l 1,16,-1
 65 806 l 1,17,-1
 65 1521 l 1,18,-1
 262 1521 l 2,19,20
 500 1521 500 1521 501 1099 c 0,21,22
 501 884 501 884 435.5 776.5 c 128,-1,23
 370 669 370 669 268 669 c 2,24,-1
 173 669 l 1,25,-1
 173 517 l 1,26,-1
 317 517 l 1,27,-1
 317 384 l 1,28,-1
 173 384 l 1,29,-1
 173 0 l 1,30,-1
 65 0 l 1,9,-1
EndSplineSet
EndChar

StartChar: uni20B9
Encoding: 8377 8377 612
Width: 512
VWidth: 2441
GlyphClass: 1
Flags: HW
LayerCount: 2
Fore
SplineSet
61 815 m 1,0,-1
 221 815 l 2,1,2
 286 815 286 815 315 869 c 128,-1,3
 344 923 344 923 351 1011 c 1,4,-1
 61 1011 l 1,5,-1
 61 1146 l 1,6,-1
 351 1146 l 1,7,8
 346 1239 346 1239 317 1303 c 128,-1,9
 288 1367 288 1367 221 1367 c 2,10,-1
 61 1367 l 1,11,-1
 61 1514 l 1,12,-1
 541 1514 l 1,13,-1
 541 1379 l 1,14,-1
 391 1379 l 1,15,16
 452 1293 452 1293 466 1146 c 1,17,-1
 541 1146 l 1,18,-1
 541 1011 l 1,19,-1
 469 1011 l 1,20,21
 460 904 460 904 418.5 815.5 c 128,-1,22
 377 727 377 727 315 699 c 1,23,-1
 485 0 l 1,24,-1
 370 0 l 1,25,-1
 208 678 l 1,26,-1
 61 678 l 1,27,-1
 61 815 l 1,0,-1
EndSplineSet
EndChar

StartChar: sterling
Encoding: 163 163 613
Width: 512
VWidth: 2441
GlyphClass: 1
Flags: HW
LayerCount: 2
Fore
SplineSet
89 -19 m 1,0,-1
 43 119 l 1,1,2
 90 168 90 168 111 221.5 c 128,-1,3
 132 275 132 275 138.5 351 c 128,-1,4
 145 427 145 427 145 542 c 0,5,6
 145 588 145 588 140.5 649 c 128,-1,7
 136 710 136 710 128 786 c 1,8,-1
 64 786 l 1,9,-1
 64 923 l 1,10,-1
 111 923 l 1,11,12
 104.875 998.25 104.875 998.25 104.875 1061.25 c 0,13,14
 104.875 1070.25 104.875 1070.25 105 1079 c 0,15,16
 105 1323 105 1323 167.5 1422 c 128,-1,17
 230 1521 230 1521 322 1521 c 0,18,19
 362 1521 362 1521 405.5 1487 c 128,-1,20
 449 1453 449 1453 480 1389 c 1,21,-1
 411 1274 l 1,22,23
 391 1323 391 1323 373.5 1354.5 c 128,-1,24
 356 1386 356 1386 315 1386 c 0,25,26
 272 1386 272 1386 245.5 1303.5 c 128,-1,27
 219 1221 219 1221 219 1081 c 0,28,29
 219 1049 219 1049 222.5 1010.5 c 128,-1,30
 226 972 226 972 228 923 c 1,31,-1
 353 923 l 1,32,-1
 353 786 l 1,33,-1
 243 786 l 1,34,35
 252 718 252 718 256 657 c 128,-1,36
 260 596 260 596 260 547 c 0,37,38
 260 454 260 454 255 362.5 c 128,-1,39
 250 271 250 271 230 200 c 1,40,41
 239.163636364 201.781818182 239.163636364 201.781818182 247.744132231 201.781818182 c 0,42,43
 272.872727273 201.781818182 272.872727273 201.781818182 293 186.5 c 0,44,45
 320 166 320 166 345.5 142.5 c 128,-1,46
 371 119 371 119 400 119 c 0,47,48
 422 119 422 119 451 131.5 c 128,-1,49
 480 144 480 144 496 170 c 1,50,-1
 523 27 l 1,51,52
 494 -10 494 -10 465.5 -23.5 c 128,-1,53
 437 -37 437 -37 409 -37 c 0,54,55
 373 -37 373 -37 336 -9 c 128,-1,56
 299 19 299 19 265.5 46 c 128,-1,57
 232 73 232 73 201 73 c 0,58,59
 176 73 176 73 152.5 50 c 128,-1,60
 129 27 129 27 89 -19 c 1,0,-1
EndSplineSet
EndChar

StartChar: uni20A9
Encoding: 8361 8361 614
Width: 512
VWidth: 2441
GlyphClass: 2
Flags: HW
AnchorPoint: "Anchor-2" 247 0 basechar 0
AnchorPoint: "Anchor-0" 251 1521 basechar 0
LayerCount: 2
Fore
SplineSet
343 615 m 1,0,-1
 347 720 l 1,1,-1
 334 720 l 1,2,-1
 343 615 l 1,0,-1
155 615 m 1,3,-1
 164 720 l 1,4,-1
 149 720 l 1,5,-1
 155 615 l 1,3,-1
247 920 m 1,6,-1
 237 818 l 1,7,-1
 255 818 l 1,8,-1
 247 920 l 1,6,-1
120 0 m 1,9,-1
 78 720 l 1,10,-1
 7 720 l 1,11,-1
 7 818 l 1,12,-1
 72 818 l 1,13,-1
 32 1521 l 1,14,-1
 112 1521 l 1,15,-1
 145 818 l 1,16,-1
 174 818 l 1,17,-1
 233 1409 l 1,18,-1
 270 1409 l 1,19,-1
 326 818 l 1,20,-1
 354 818 l 1,21,-1
 382 1521 l 1,22,-1
 458 1521 l 1,23,-1
 418 818 l 1,24,-1
 487 818 l 1,25,-1
 487 720 l 1,26,-1
 412 720 l 1,27,-1
 370 0 l 1,28,-1
 328 0 l 1,29,-1
 265 720 l 1,30,-1
 229 720 l 1,31,-1
 164 0 l 1,32,-1
 120 0 l 1,9,-1
EndSplineSet
EndChar

StartChar: yen
Encoding: 165 165 615
Width: 512
VWidth: 2441
GlyphClass: 1
Flags: HW
LayerCount: 2
Fore
SplineSet
346 0 m 1,0,-1
 232 0 l 1,1,-1
 232 240 l 1,2,-1
 94 240 l 1,3,-1
 94 376 l 1,4,-1
 232 376 l 1,5,-1
 232 529 l 1,6,-1
 94 529 l 1,7,-1
 94 669 l 1,8,-1
 232 669 l 1,9,-1
 232 720 l 1,10,-1
 40 1523 l 1,11,-1
 149 1523 l 1,12,-1
 288 916 l 1,13,-1
 416 1521 l 1,14,-1
 520 1521 l 1,15,-1
 346 720 l 1,16,-1
 346 669 l 1,17,-1
 476 669 l 1,18,-1
 476 529 l 1,19,-1
 346 529 l 1,20,-1
 346 376 l 1,21,-1
 476 376 l 1,22,-1
 476 240 l 1,23,-1
 346 240 l 1,24,-1
 346 0 l 1,0,-1
EndSplineSet
EndChar

StartChar: asteriskmath
Encoding: 8727 8727 616
Width: 512
VWidth: 2441
GlyphClass: 1
Flags: HW
LayerCount: 2
Fore
SplineSet
150 333 m 1,0,-1
 74 417 l 1,1,-1
 222 801 l 1,2,-1
 38 930 l 1,3,-1
 78 1060 l 1,4,-1
 239 908 l 1,5,-1
 226 1340 l 1,6,-1
 334 1340 l 1,7,-1
 315 908 l 1,8,-1
 488 1060 l 1,9,-1
 518 930 l 1,10,-1
 323 801 l 1,11,-1
 480 417 l 1,12,-1
 403 335 l 1,13,-1
 275 706 l 1,14,-1
 150 333 l 1,0,-1
EndSplineSet
EndChar

StartChar: uni2215
Encoding: 8725 8725 618
Width: 512
VWidth: 2408
GlyphClass: 1
Flags: HW
LayerCount: 2
Fore
SplineSet
134 -246 m 1,0,-1
 35 -224 l 1,1,-1
 417 1897 l 1,2,-1
 515 1872 l 1,3,-1
 134 -246 l 1,0,-1
EndSplineSet
EndChar

StartChar: element
Encoding: 8712 8712 619
Width: 512
VWidth: 2441
GlyphClass: 1
Flags: HW
LayerCount: 2
Fore
SplineSet
363 10 m 2,0,1
 210 10 210 10 123 145.5 c 128,-1,2
 36 281 36 281 36 550 c 0,3,4
 36 818 36 818 124 962 c 128,-1,5
 212 1106 212 1106 361 1106 c 2,6,-1
 516 1106 l 1,7,-1
 516 1009 l 1,8,-1
 379 1009 l 2,9,10
 259 1009 259 1009 197 904 c 128,-1,11
 135 799 135 799 129 601 c 1,12,-1
 516 601 l 1,13,-1
 516 503 l 1,14,-1
 129 503 l 1,15,16
 136 305 136 305 195 206 c 128,-1,17
 254 107 254 107 379 107 c 2,18,-1
 516 107 l 1,19,-1
 516 10 l 1,20,-1
 363 10 l 2,0,1
EndSplineSet
EndChar

StartChar: plus
Encoding: 43 43 621
Width: 512
VWidth: 2441
GlyphClass: 1
Flags: HW
LayerCount: 2
Fore
SplineSet
236 254 m 1,0,-1
 236 718 l 1,1,-1
 43 718 l 1,2,-1
 43 852 l 1,3,-1
 236 852 l 1,4,-1
 236 1277 l 1,5,-1
 336 1277 l 1,6,-1
 336 852 l 1,7,-1
 523 852 l 1,8,-1
 523 718 l 1,9,-1
 336 718 l 1,10,-1
 336 254 l 1,11,-1
 236 254 l 1,0,-1
EndSplineSet
EndChar

StartChar: minus
Encoding: 8722 8722 622
Width: 512
VWidth: 2441
GlyphClass: 1
Flags: HW
LayerCount: 2
Fore
SplineSet
43 718 m 1,0,-1
 43 852 l 1,1,-1
 523 852 l 1,2,-1
 523 718 l 1,3,-1
 43 718 l 1,0,-1
EndSplineSet
Substitution2: "'sups' Superscript in Latin lookup 20 subtable" uni207B
Substitution2: "'aalt' Access All Alternates in Latin lookup 0 subtable" uni207B
EndChar

StartChar: multiply
Encoding: 215 215 623
Width: 512
VWidth: 2441
GlyphClass: 1
Flags: HW
LayerCount: 2
Fore
SplineSet
459 329 m 1,0,-1
 310 664 l 1,1,-1
 166 340 l 1,2,-1
 93 447 l 1,3,-1
 249 792 l 1,4,-1
 93 1140 l 1,5,-1
 168 1253 l 1,6,-1
 312 920 l 1,7,-1
 461 1253 l 1,8,-1
 538 1146 l 1,9,-1
 376 794 l 1,10,-1
 535 442 l 1,11,-1
 459 329 l 1,0,-1
EndSplineSet
EndChar

StartChar: divide
Encoding: 247 247 624
Width: 512
VWidth: 2441
GlyphClass: 1
Flags: HW
LayerCount: 2
Fore
SplineSet
310 275 m 0,0,1
 283 275 283 275 263.5 301 c 128,-1,2
 244 327 244 327 244 359 c 0,3,4
 244 394 244 394 265 420.5 c 128,-1,5
 286 447 286 447 310 447 c 0,6,7
 340 447 340 447 359 420 c 128,-1,8
 378 393 378 393 378 359 c 0,9,10
 378 327 378 327 359 301 c 128,-1,11
 340 275 340 275 310 275 c 0,0,1
88 685 m 1,12,-1
 88 850 l 1,13,-1
 527 850 l 1,14,-1
 527 685 l 1,15,-1
 88 685 l 1,12,-1
310 1076 m 0,16,17
 283 1076 283 1076 263.5 1102 c 128,-1,18
 244 1128 244 1128 244 1160 c 0,19,20
 244 1195 244 1195 265 1221.5 c 128,-1,21
 286 1248 286 1248 310 1248 c 0,22,23
 340 1248 340 1248 359 1220.5 c 128,-1,24
 378 1193 378 1193 378 1160 c 0,25,26
 378 1128 378 1128 359 1102 c 128,-1,27
 340 1076 340 1076 310 1076 c 0,16,17
EndSplineSet
EndChar

StartChar: equal
Encoding: 61 61 625
Width: 512
VWidth: 2441
GlyphClass: 1
Flags: HW
LayerCount: 2
Fore
SplineSet
53 449 m 1,0,-1
 53 591 l 1,1,-1
 533 591 l 1,2,-1
 533 449 l 1,3,-1
 53 449 l 1,0,-1
53 955 m 1,4,-1
 53 1097 l 1,5,-1
 533 1097 l 1,6,-1
 533 955 l 1,7,-1
 53 955 l 1,4,-1
EndSplineSet
EndChar

StartChar: notequal
Encoding: 8800 8800 626
Width: 512
VWidth: 2441
GlyphClass: 1
Flags: HW
LayerCount: 2
Fore
SplineSet
53 449 m 1,0,-1
 53 591 l 1,1,-1
 189 591 l 1,2,-1
 282 955 l 1,3,-1
 53 955 l 1,4,-1
 53 1097 l 1,5,-1
 320 1097 l 1,6,-1
 412 1458 l 1,7,-1
 507 1396 l 1,8,-1
 431 1097 l 1,9,-1
 533 1097 l 1,10,-1
 533 955 l 1,11,-1
 394 955 l 1,12,-1
 300 591 l 1,13,-1
 533 591 l 1,14,-1
 533 449 l 1,15,-1
 265 449 l 1,16,-1
 173 88 l 1,17,-1
 75 147 l 1,18,-1
 151 449 l 1,19,-1
 53 449 l 1,0,-1
EndSplineSet
EndChar

StartChar: greater
Encoding: 62 62 627
Width: 512
VWidth: 2441
GlyphClass: 1
Flags: HW
LayerCount: 2
Fore
SplineSet
45 114 m 1,0,-1
 45 300 l 1,1,-1
 426 778 l 1,2,-1
 47 1211 l 1,3,-1
 47 1384 l 1,4,-1
 525 832 l 1,5,-1
 525 730 l 1,6,-1
 45 114 l 1,0,-1
EndSplineSet
EndChar

StartChar: less
Encoding: 60 60 628
Width: 512
VWidth: 2441
GlyphClass: 1
Flags: HW
LayerCount: 2
Fore
SplineSet
519 114 m 1,0,-1
 39 730 l 1,1,-1
 39 832 l 1,2,-1
 516 1384 l 1,3,-1
 516 1211 l 1,4,-1
 138 778 l 1,5,-1
 519 300 l 1,6,-1
 519 114 l 1,0,-1
EndSplineSet
EndChar

StartChar: lessequal
Encoding: 8804 8804 630
Width: 512
VWidth: 2441
GlyphClass: 1
Flags: HW
LayerCount: 2
Fore
SplineSet
48 51 m 1,0,-1
 48 186 l 1,1,-1
 517 186 l 1,2,-1
 517 51 l 1,3,-1
 48 51 l 1,0,-1
517 261 m 1,4,-1
 37 747 l 1,5,-1
 37 864 l 1,6,-1
 517 1286 l 1,7,-1
 517 1113 l 1,8,-1
 130 806 l 1,9,-1
 517 435 l 1,10,-1
 517 261 l 1,4,-1
EndSplineSet
EndChar

StartChar: plusminus
Encoding: 177 177 631
Width: 512
VWidth: 2441
GlyphClass: 1
Flags: HW
LayerCount: 2
Fore
SplineSet
53 42 m 1,0,-1
 53 196 l 1,1,-1
 533 196 l 1,2,-1
 533 42 l 1,3,-1
 53 42 l 1,0,-1
235 378 m 1,4,-1
 235 837 l 1,5,-1
 53 837 l 1,6,-1
 53 986 l 1,7,-1
 235 986 l 1,8,-1
 235 1404 l 1,9,-1
 354 1404 l 1,10,-1
 354 986 l 1,11,-1
 531 986 l 1,12,-1
 531 837 l 1,13,-1
 354 837 l 1,14,-1
 354 378 l 1,15,-1
 235 378 l 1,4,-1
EndSplineSet
EndChar

StartChar: asciitilde
Encoding: 126 126 633
Width: 512
VWidth: 2441
GlyphClass: 1
Flags: HW
LayerCount: 2
Fore
SplineSet
422 650 m 128,-1,1
 378 650 378 650 346 682.5 c 128,-1,2
 314 715 314 715 289.5 746.5 c 128,-1,3
 265 778 265 778 246 778 c 128,-1,4
 227 778 227 778 208 755 c 128,-1,5
 189 732 189 732 169 666 c 1,6,-1
 83 720 l 1,7,8
 102 803 102 803 142 859.5 c 128,-1,9
 182 916 182 916 237 916 c 0,10,11
 285 916 285 916 314 880.5 c 128,-1,12
 343 845 343 845 366 808 c 128,-1,13
 389 771 389 771 413 771 c 0,14,15
 432 771 432 771 445.5 801.5 c 128,-1,16
 459 832 459 832 481 901 c 1,17,-1
 563 832 l 1,18,19
 531 729 531 729 498.5 689.5 c 128,-1,0
 466 650 466 650 422 650 c 128,-1,1
EndSplineSet
Substitution2: "'ss01' Style Set 1 in Latin lookup 35 subtable" asciitilde.ss01
Substitution2: "'salt' Stylistic Alternatives in Latin lookup 34 subtable" asciitilde.ss01
Substitution2: "'aalt' Access All Alternates in Latin lookup 0 subtable" asciitilde.ss01
EndChar

StartChar: logicalnot
Encoding: 172 172 634
Width: 512
VWidth: 2441
GlyphClass: 1
Flags: HW
LayerCount: 2
Fore
SplineSet
378 384 m 1,0,-1
 378 694 l 1,1,-1
 112 694 l 1,2,-1
 112 848 l 1,3,-1
 505 848 l 1,4,-1
 505 384 l 1,5,-1
 378 384 l 1,0,-1
EndSplineSet
EndChar

StartChar: asciicircum
Encoding: 94 94 635
Width: 512
VWidth: 2441
GlyphClass: 1
Flags: HW
LayerCount: 2
Fore
SplineSet
186 837 m 1,0,-1
 103 876 l 1,1,-1
 293 1521 l 1,2,-1
 340 1521 l 1,3,-1
 505 879 l 1,4,-1
 420 837 l 1,5,-1
 310 1240 l 1,6,-1
 186 837 l 1,0,-1
EndSplineSet
Substitution2: "'ss01' Style Set 1 in Latin lookup 35 subtable" asciicircum.ss01
Substitution2: "'salt' Stylistic Alternatives in Latin lookup 34 subtable" asciicircum.ss01
Substitution2: "'aalt' Access All Alternates in Latin lookup 0 subtable" asciicircum.ss01
EndChar

StartChar: infinity
Encoding: 8734 8734 636
Width: 512
VWidth: 2441
GlyphClass: 1
Flags: HW
LayerCount: 2
Fore
SplineSet
401 737 m 0,0,1
 401 816 401 816 389 862 c 128,-1,2
 377 908 377 908 350 908 c 0,3,4
 314 908 314 908 284 737 c 1,5,6
 314 567 314 567 348 566 c 0,7,8
 378 566 378 566 389.5 615 c 128,-1,9
 401 664 401 664 401 737 c 0,0,1
198 740 m 1,10,11
 184 835 184 835 169.5 873 c 128,-1,12
 155 911 155 911 134 911 c 0,13,14
 106 911 106 911 93.5 863 c 128,-1,15
 81 815 81 815 81 740 c 128,-1,16
 81 665 81 665 94 617 c 128,-1,17
 107 569 107 569 134 569 c 0,18,19
 158 569 158 569 172 614 c 128,-1,20
 186 659 186 659 198 740 c 1,10,11
481 737 m 0,21,22
 481 605 481 605 447 514.5 c 128,-1,23
 413 424 413 424 360 424 c 0,24,25
 324 424 324 424 294 470.5 c 128,-1,26
 264 517 264 517 240 617 c 1,27,28
 189 424 189 424 122 424 c 0,29,30
 71 424 71 424 36 513.5 c 128,-1,31
 1 603 1 603 1 737 c 0,32,33
 1 874 1 874 36 963.5 c 128,-1,34
 71 1053 71 1053 122 1053 c 0,35,36
 158 1053 158 1053 187 1010 c 128,-1,37
 216 967 216 967 242 859 c 1,38,39
 288 1052 288 1052 361 1053 c 0,40,41
 412 1053 412 1053 446.5 967 c 128,-1,42
 481 881 481 881 481 737 c 0,21,22
EndSplineSet
EndChar

StartChar: emptyset
Encoding: 8709 8709 637
Width: 512
VWidth: 2441
GlyphClass: 1
Flags: HW
LayerCount: 2
Fore
SplineSet
245 380 m 0,0,1
 291 380 291 380 322.5 438 c 128,-1,2
 354 496 354 496 369 590.5 c 128,-1,3
 384 685 384 685 384 796 c 0,4,5
 384 908 384 908 368 999 c 1,6,-1
 153 473 l 1,7,8
 189 380 189 380 245 380 c 0,0,1
108 796 m 0,9,10
 108 684 108 684 122 594 c 1,11,-1
 337 1116 l 1,12,13
 301.391304348 1206.01086957 301.391304348 1206.01086957 246.215028355 1206.01086957 c 0,0,0
 245.608695652 1206.01086957 245.608695652 1206.01086957 245 1206 c 0,14,15
 201 1206 201 1206 169.5 1150 c 128,-1,16
 138 1094 138 1094 123 1000 c 128,-1,17
 108 906 108 906 108 796 c 0,9,10
62 254 m 1,18,-1
 7 312 l 1,19,-1
 68 459 l 1,20,21
 26 598 26 598 26 796 c 0,22,23
 26 945 26 945 51 1065.5 c 128,-1,24
 76 1186 76 1186 125 1258 c 128,-1,25
 174 1330 174 1330 245 1330 c 0,26,27
 328 1330 328 1330 384 1228 c 1,28,-1
 432 1342 l 1,29,-1
 487 1284 l 1,30,-1
 424 1132 l 1,31,32
 468 993 468 993 468 796 c 0,33,34
 468 649 468 649 442 527 c 128,-1,35
 416 405 416 405 367 332 c 128,-1,36
 318 259 318 259 245 259 c 0,37,38
 203 259 203 259 168.5 285.5 c 128,-1,39
 134 312 134 312 106 364 c 1,40,-1
 62 254 l 1,18,-1
EndSplineSet
EndChar

StartChar: integral
Encoding: 8747 8747 638
Width: 512
VWidth: 2358
GlyphClass: 1
Flags: HW
LayerCount: 2
Fore
SplineSet
151 -246 m 0,0,1
 111 -246 111 -246 78 -218 c 1,2,-1
 78 -92 l 1,3,4
 110 -120 110 -120 143 -120 c 0,5,6
 183 -120 183 -120 199.5 -58 c 128,-1,7
 216 4 216 4 216 143 c 2,8,-1
 216 1465 l 2,9,10
 216 1667 216 1667 264.5 1761 c 128,-1,11
 313 1855 313 1855 391 1855 c 0,12,13
 412 1855 412 1855 427.5 1848 c 128,-1,14
 443 1841 443 1841 458 1830 c 1,15,-1
 458 1706 l 1,16,17
 428 1730 428 1730 397 1730 c 0,18,19
 353 1730 353 1730 337 1671 c 128,-1,20
 321 1612 321 1612 321 1448 c 2,21,-1
 321 128 l 2,22,23
 321 -63 321 -63 271 -154.5 c 128,-1,24
 221 -246 221 -246 151 -246 c 0,0,1
EndSplineSet
EndChar

StartChar: uni2126
Encoding: 8486 8486 639
Width: 512
VWidth: 2441
GlyphClass: 1
Flags: HW
LayerCount: 2
Fore
SplineSet
257 1494 m 128,-1,1
 183 1494 183 1494 154.5 1326 c 128,-1,2
 126 1158 126 1158 126 840 c 0,3,4
 126 603 126 603 145.5 425 c 128,-1,5
 165 247 165 247 222 168 c 1,6,-1
 222 0 l 1,7,-1
 38 0 l 1,8,-1
 38 149 l 1,9,-1
 114 149 l 1,10,11
 67 242 67 242 41 426 c 128,-1,12
 15 610 15 610 15 862 c 0,13,14
 15 1148 15 1148 45 1321 c 128,-1,15
 75 1494 75 1494 129 1570.5 c 128,-1,16
 183 1647 183 1647 257 1647 c 0,17,18
 329 1647 329 1647 382 1571.5 c 128,-1,19
 435 1496 435 1496 465 1323 c 128,-1,20
 495 1150 495 1150 495 859 c 0,21,22
 495 615 495 615 469.5 427.5 c 128,-1,23
 444 240 444 240 396 149 c 1,24,-1
 474 149 l 1,25,-1
 474 0 l 1,26,-1
 288 0 l 1,27,-1
 288 168 l 1,28,29
 358 254 358 254 372 430 c 128,-1,30
 386 606 386 606 386 837 c 0,31,32
 386 1161 386 1161 358.5 1327.5 c 128,-1,0
 331 1494 331 1494 257 1494 c 128,-1,1
EndSplineSet
EndChar

StartChar: uni2206
Encoding: 8710 8710 640
Width: 512
VWidth: 2441
GlyphClass: 1
Flags: HW
LayerCount: 2
Fore
SplineSet
401 137 m 1,0,-1
 278 1358 l 1,1,-1
 150 137 l 1,2,-1
 401 137 l 1,0,-1
337 1624 m 1,3,-1
 516 103 l 1,4,-1
 516 2 l 1,5,-1
 36 2 l 1,6,-1
 36 105 l 1,7,-1
 216 1624 l 1,8,-1
 337 1624 l 1,3,-1
EndSplineSet
EndChar

StartChar: product
Encoding: 8719 8719 641
Width: 512
VWidth: 2339
GlyphClass: 1
Flags: HW
LayerCount: 2
Fore
SplineSet
58 -246 m 1,0,-1
 58 1521 l 1,1,-1
 487 1521 l 1,2,3
 487 1506 487 1506 484 1495 c 128,-1,4
 481 1484 481 1484 481 1473 c 2,5,-1
 481 -246 l 1,6,-1
 371 -246 l 1,7,-1
 371 1401 l 1,8,-1
 170 1401 l 1,9,-1
 170 -246 l 1,10,-1
 58 -246 l 1,0,-1
EndSplineSet
EndChar

StartChar: summation
Encoding: 8721 8721 642
Width: 512
VWidth: 2372
GlyphClass: 1
Flags: HW
LayerCount: 2
Fore
SplineSet
45 -246 m 1,0,-1
 45 -132 l 1,1,-1
 262 693 l 1,2,-1
 45 1503 l 1,3,-1
 45 1631 l 1,4,-1
 517 1631 l 1,5,-1
 517 1505 l 1,6,-1
 170 1505 l 1,7,-1
 382 698 l 1,8,-1
 164 -121 l 1,9,-1
 517 -121 l 1,10,-1
 517 -246 l 1,11,-1
 45 -246 l 1,0,-1
EndSplineSet
EndChar

StartChar: radical
Encoding: 8730 8730 643
Width: 512
VWidth: 2441
GlyphClass: 1
Flags: HW
LayerCount: 2
Fore
SplineSet
155 -17 m 1,0,-1
 53 703 l 1,1,-1
 -15 703 l 1,2,-1
 -15 827 l 1,3,-1
 132 827 l 1,4,-1
 200 266 l 1,5,-1
 371 1647 l 1,6,-1
 465 1647 l 1,7,-1
 244 -17 l 1,8,-1
 155 -17 l 1,0,-1
EndSplineSet
EndChar

StartChar: uni00B5
Encoding: 181 181 644
Width: 512
VWidth: 2299
GlyphClass: 1
Flags: HW
LayerCount: 2
Fore
SplineSet
14 -246 m 1,0,1
 14 -209 14 -209 16 -130.5 c 128,-1,2
 18 -52 18 -52 21 46.5 c 128,-1,3
 24 145 24 145 27 245 c 128,-1,4
 30 345 30 345 32 428.5 c 128,-1,5
 34 512 34 512 34 560 c 2,6,-1
 34 1116 l 1,7,-1
 134 1116 l 1,8,-1
 134 524 l 2,9,10
 134 343 134 343 147.5 277.5 c 128,-1,11
 161 212 161 212 200 212 c 0,12,13
 251 212 251 212 269 300.5 c 128,-1,14
 287 389 287 389 287 537 c 2,15,-1
 287 1116 l 1,16,-1
 385 1116 l 1,17,-1
 385 372 l 2,18,19
 385 297 385 297 387 259 c 128,-1,20
 389 221 389 221 410 221 c 0,21,22
 424 221 424 221 438.5 247 c 128,-1,23
 453 273 453 273 459 302 c 2,24,-1
 465 328 l 1,25,-1
 494 216 l 1,26,27
 455.32231405 96.9917355372 455.32231405 96.9917355372 404.84215559 96.9917355372 c 0,0,0
 404.421487603 96.9917355372 404.421487603 96.9917355372 404 97 c 0,28,29
 371 97 371 97 348.5 131.5 c 128,-1,30
 326 166 326 166 322 237 c 1,31,32
 306 167 306 167 271.5 132 c 128,-1,33
 237 97 237 97 198 97 c 0,34,35
 161 97 161 97 139.5 127.5 c 128,-1,36
 118 158 118 158 108 206 c 1,37,-1
 108 -246 l 1,38,-1
 14 -246 l 1,0,1
EndSplineSet
EndChar

StartChar: partialdiff
Encoding: 8706 8706 645
Width: 512
VWidth: 2441
GlyphClass: 1
Flags: HW
LayerCount: 2
Fore
SplineSet
249 107 m 0,0,1
 295 107 295 107 328 159.5 c 128,-1,2
 361 212 361 212 380 299 c 128,-1,3
 399 386 399 386 408.5 491 c 128,-1,4
 418 596 418 596 420 701 c 1,5,6
 393 827 393 827 356 897 c 128,-1,7
 319 967 319 967 272 967 c 0,8,9
 228 967 228 967 200.5 914.5 c 128,-1,10
 173 862 173 862 158.5 778 c 128,-1,11
 144 694 144 694 140.5 596 c 128,-1,12
 138.866666667 550.266666667 138.866666667 550.266666667 138.866666667 506.275555556 c 0,0,0
 138.866666667 456 138.866666667 456 141 408 c 0,13,14
 150 259 150 259 174 183 c 128,-1,15
 198 107 198 107 249 107 c 0,0,1
247 -27 m 0,16,17
 152 -27 152 -27 101.5 96 c 128,-1,18
 51 219 51 219 42 412 c 0,19,20
 39.5172413793 461.24137931 39.5172413793 461.24137931 39.5172413793 510.910820452 c 0,0,0
 39.5172413793 581.275862069 39.5172413793 581.275862069 44.5 652.5 c 128,-1,21
 53 774 53 774 79.5 875 c 128,-1,22
 106 976 106 976 149 1037.5 c 128,-1,23
 192 1099 192 1099 255 1099 c 0,24,25
 310 1099 310 1099 352 1055 c 128,-1,26
 394 1011 394 1011 416 937 c 1,27,28
 418 972 418 972 417 983 c 128,-1,29
 416 994 416 994 414 1025 c 0,30,31
 408 1157 408 1157 392 1260 c 128,-1,32
 376 1363 376 1363 345 1421 c 128,-1,33
 314 1479 314 1479 259 1479 c 0,34,35
 228 1479 228 1479 192.5 1462 c 128,-1,36
 157 1445 157 1445 131 1411 c 1,37,-1
 124 1556 l 1,38,39
 157 1588 157 1588 191.5 1601 c 128,-1,40
 226 1614 226 1614 259 1614 c 0,41,42
 339 1614 339 1614 390 1555 c 128,-1,43
 441 1496 441 1496 469.5 1365.5 c 128,-1,44
 498 1235 498 1235 513 1016 c 0,45,46
 519.540540541 889.945945946 519.540540541 889.945945946 519.540540541 772.200146092 c 0,0,0
 519.540540541 691.918918919 519.540540541 691.918918919 516.5 615.5 c 128,-1,47
 509 427 509 427 478 283 c 128,-1,48
 447 139 447 139 390 56 c 128,-1,49
 333 -27 333 -27 247 -27 c 0,16,17
EndSplineSet
EndChar

StartChar: percent
Encoding: 37 37 646
Width: 512
VWidth: 2441
GlyphClass: 1
Flags: HW
LayerCount: 2
Fore
SplineSet
378 88 m 0,0,1
 425 88 425 88 426 288 c 0,2,3
 426 374 426 374 415.5 434 c 128,-1,4
 405 494 405 494 376 494 c 0,5,6
 329 494 329 494 329 293 c 0,7,8
 329 88 329 88 378 88 c 0,0,1
378 -24 m 128,-1,10
 325 -24 325 -24 290.5 57.5 c 128,-1,11
 256 139 256 139 256 291 c 0,12,13
 256 442 256 442 290.5 525 c 128,-1,14
 325 608 325 608 378 608 c 128,-1,15
 431 608 431 608 464.5 525 c 128,-1,16
 498 442 498 442 498 291 c 128,-1,17
 498 140 498 140 464.5 58 c 128,-1,9
 431 -24 431 -24 378 -24 c 128,-1,10
139 1030 m 0,18,19
 162 1030 162 1030 173 1077.5 c 128,-1,20
 184 1125 184 1125 184 1230 c 128,-1,21
 184 1335 184 1335 172 1383 c 128,-1,22
 160 1431 160 1431 137 1431 c 0,23,24
 117 1431 117 1431 105 1383 c 128,-1,25
 93 1335 93 1335 93 1230 c 0,26,27
 94 1030 94 1030 139 1030 c 0,18,19
36 0 m 1,28,-1
 392 1521 l 1,29,-1
 475 1521 l 1,30,-1
 117 0 l 1,31,-1
 36 0 l 1,28,-1
139 911 m 0,32,33
 88 911 88 911 53 992.5 c 128,-1,34
 18 1074 18 1074 18 1230 c 0,35,36
 18 1381 18 1381 52.5 1464 c 128,-1,37
 87 1547 87 1547 139 1547 c 0,38,39
 192 1547 192 1547 226.5 1463 c 128,-1,40
 261 1379 261 1379 261 1228 c 0,41,42
 261 1072 261 1072 227.5 991.5 c 128,-1,43
 194 911 194 911 139 911 c 0,32,33
EndSplineSet
EndChar

StartChar: perthousand
Encoding: 8240 8240 647
Width: 512
VWidth: 2441
GlyphClass: 1
Flags: HW
LayerCount: 2
Fore
SplineSet
392 91 m 128,-1,1
 408 91 408 91 420.5 135 c 128,-1,2
 433 179 433 179 433 271 c 0,3,4
 433 364 433 364 419.5 408 c 128,-1,5
 406 452 406 452 389 452 c 0,6,7
 373 452 373 452 360.5 408 c 128,-1,8
 348 364 348 364 348 271 c 128,-1,9
 348 178 348 178 362 134.5 c 128,-1,0
 376 91 376 91 392 91 c 128,-1,1
135 91 m 128,-1,11
 151 91 151 91 164 135 c 128,-1,12
 177 179 177 179 177 271 c 0,13,14
 177 452 177 452 133 452 c 0,15,16
 117 452 117 452 104.5 408 c 128,-1,17
 92 364 92 364 92 271 c 128,-1,18
 92 178 92 178 105.5 134.5 c 128,-1,10
 119 91 119 91 135 91 c 128,-1,11
392 -27 m 128,-1,20
 346 -27 346 -27 315 48.5 c 128,-1,21
 284 124 284 124 284 271 c 0,22,23
 283.882352941 278.294117647 283.882352941 278.294117647 283.882352941 285.455017301 c 0,0,0
 283.882352941 400.029411765 283.882352941 400.029411765 314 480.5 c 128,-1,24
 346 566 346 566 392 566 c 0,25,26
 436 566 436 566 468 489 c 128,-1,27
 500 412 500 412 500 268 c 0,28,29
 498 121 498 121 468 47 c 128,-1,19
 438 -27 438 -27 392 -27 c 128,-1,20
135 -27 m 0,30,31
 91 -27 91 -27 59 48.5 c 128,-1,32
 27 124 27 124 27 271 c 0,33,34
 27 415 27 415 59.5 490.5 c 128,-1,35
 92 566 92 566 135 566 c 0,36,37
 179 566 179 566 211.5 479.5 c 128,-1,38
 244 393 244 393 244 268 c 0,39,40
 244 119 244 119 212.5 46 c 128,-1,41
 181 -27 181 -27 135 -27 c 0,30,31
20 552 m 1,42,-1
 20 689 l 1,43,-1
 500 1323 l 1,44,-1
 500 1186 l 1,45,-1
 20 552 l 1,42,-1
135 1067 m 128,-1,47
 151 1067 151 1067 164 1111 c 128,-1,48
 177 1155 177 1155 177 1248 c 0,49,50
 177 1428.00549451 177 1428.00549451 133.482188142 1428.00549451 c 0,0,0
 117.001560939 1428.00549451 117.001560939 1428.00549451 104.5 1384 c 128,-1,53
 92 1340 92 1340 92 1248 c 0,54,55
 92 1155 92 1155 105.5 1111 c 128,-1,46
 119 1067 119 1067 135 1067 c 128,-1,47
135 950 m 0,56,57
 91 950 91 950 59 1025.5 c 128,-1,58
 27 1101 27 1101 27 1248 c 0,59,60
 27 1392 27 1392 59.5 1467.5 c 128,-1,61
 92 1543 92 1543 135 1543 c 0,62,63
 179 1543 179 1543 211.5 1466 c 128,-1,64
 244 1389 244 1389 244 1245 c 0,65,66
 244 1096 244 1096 212.5 1023 c 128,-1,67
 181 950 181 950 135 950 c 0,56,57
EndSplineSet
EndChar

StartChar: circleplus
Encoding: 8853 8853 648
Width: 512
VWidth: 2441
GlyphClass: 1
Flags: HW
LayerCount: 2
Fore
SplineSet
232 415 m 1,0,-1
 232 715 l 1,1,-1
 123 715 l 1,2,-1
 123 803 l 1,3,-1
 232 803 l 1,4,-1
 232 1079 l 1,5,-1
 300 1079 l 1,6,-1
 300 803 l 1,7,-1
 405 803 l 1,8,-1
 405 715 l 1,9,-1
 300 715 l 1,10,-1
 300 415 l 1,11,-1
 232 415 l 1,0,-1
264 359 m 0,12,13
 338 359 338 359 385.5 471 c 128,-1,14
 433 583 433 583 433 752 c 0,15,16
 433 920 433 920 385.5 1031 c 128,-1,17
 338 1142 338 1142 264 1142 c 0,18,19
 192 1142 192 1142 143.5 1031 c 128,-1,20
 95 920 95 920 95 752 c 128,-1,21
 95 584 95 584 143.5 471.5 c 128,-1,22
 192 359 192 359 264 359 c 0,12,13
264 266 m 128,-1,24
 192 266 192 266 138 329.5 c 128,-1,25
 84 393 84 393 54 503 c 128,-1,26
 24 613 24 613 24 752 c 0,27,28
 24 894 24 894 54 1002.5 c 128,-1,29
 84 1111 84 1111 138 1174 c 128,-1,30
 192 1237 192 1237 264 1237 c 128,-1,31
 336 1237 336 1237 389.5 1174 c 128,-1,32
 443 1111 443 1111 473.5 1002.5 c 128,-1,33
 504 894 504 894 504 752 c 0,34,35
 504 613 504 613 473.5 503 c 128,-1,36
 443 393 443 393 389.5 329.5 c 128,-1,23
 336 266 336 266 264 266 c 128,-1,24
EndSplineSet
EndChar

StartChar: arrowup
Encoding: 8593 8593 651
Width: 512
VWidth: 2441
GlyphClass: 1
Flags: HW
LayerCount: 2
Fore
SplineSet
252 17 m 1,0,-1
 252 1035 l 1,1,-1
 149 778 l 1,2,-1
 73 843 l 1,3,-1
 300 1419 l 1,4,-1
 327 1419 l 1,5,-1
 540 837 l 1,6,-1
 466 778 l 1,7,-1
 364 1032 l 1,8,-1
 364 17 l 1,9,-1
 252 17 l 1,0,-1
EndSplineSet
EndChar

StartChar: uni2197
Encoding: 8599 8599 652
Width: 512
VWidth: 2441
GlyphClass: 1
Flags: HW
LayerCount: 2
Fore
SplineSet
16 345 m 1,0,-1
 340 1197 l 1,1,-1
 148 1140 l 1,2,-1
 142 1274 l 1,3,-1
 480 1367 l 1,4,-1
 496 1328 l 1,5,-1
 449 669 l 1,6,-1
 360 683 l 1,7,-1
 389 1072 l 1,8,-1
 74 288 l 1,9,-1
 16 345 l 1,0,-1
EndSplineSet
EndChar

StartChar: arrowright
Encoding: 8594 8594 653
Width: 512
VWidth: 2441
GlyphClass: 1
Flags: HW
LayerCount: 2
Fore
SplineSet
16 792 m 1,0,-1
 348 792 l 1,1,-1
 172 1113 l 1,2,-1
 250 1189 l 1,3,-1
 496 732 l 1,4,-1
 496 678 l 1,5,-1
 248 256 l 1,6,-1
 182 342 l 1,7,-1
 348 647 l 1,8,-1
 16 647 l 1,9,-1
 16 792 l 1,0,-1
EndSplineSet
EndChar

StartChar: arrowboth
Encoding: 8596 8596 659
Width: 512
VWidth: 2441
GlyphClass: 1
Flags: HW
LayerCount: 2
Fore
SplineSet
346 1191 m 1,0,-1
 483 734 l 1,1,-1
 483 681 l 1,2,-1
 344 259 l 1,3,-1
 273 356 l 1,4,-1
 361 650 l 1,5,-1
 125 650 l 1,6,-1
 215 356 l 1,7,-1
 142 259 l 1,8,-1
 3 681 l 1,9,-1
 3 734 l 1,10,-1
 140 1191 l 1,11,-1
 215 1111 l 1,12,-1
 125 794 l 1,13,-1
 363 794 l 1,14,-1
 273 1111 l 1,15,-1
 346 1191 l 1,0,-1
EndSplineSet
EndChar

StartChar: arrowupdn
Encoding: 8597 8597 660
Width: 512
VWidth: 2441
GlyphClass: 1
Flags: HW
LayerCount: 2
Fore
SplineSet
522 476 m 1,0,-1
 296 88 l 1,1,-1
 271 88 l 1,2,-1
 42 486 l 1,3,-1
 129 569 l 1,4,-1
 226 386 l 1,5,-1
 226 1060 l 1,6,-1
 129 859 l 1,7,-1
 56 976 l 1,8,-1
 271 1358 l 1,9,-1
 296 1358 l 1,10,-1
 522 976 l 1,11,-1
 452 859 l 1,12,-1
 351 1060 l 1,13,-1
 351 380 l 1,14,-1
 452 569 l 1,15,-1
 522 476 l 1,0,-1
EndSplineSet
EndChar

StartChar: uni21E7
Encoding: 8679 8679 661
Width: 512
VWidth: 2441
GlyphClass: 1
Flags: HW
LayerCount: 2
Fore
SplineSet
243 98 m 1,0,-1
 315 98 l 1,1,-1
 315 991 l 1,2,-1
 431 991 l 1,3,-1
 279 1370 l 1,4,-1
 137 991 l 1,5,-1
 243 991 l 1,6,-1
 243 98 l 1,0,-1
155 0 m 1,7,-1
 155 892 l 1,8,-1
 38 892 l 1,9,-1
 38 999 l 1,10,-1
 264 1553 l 1,11,-1
 294 1553 l 1,12,-1
 518 999 l 1,13,-1
 518 892 l 1,14,-1
 403 892 l 1,15,-1
 403 0 l 1,16,-1
 155 0 l 1,7,-1
EndSplineSet
EndChar

StartChar: uni21E8
Encoding: 8680 8680 662
Width: 512
VWidth: 2441
GlyphClass: 1
Flags: HW
LayerCount: 2
Fore
SplineSet
83 867 m 1,0,-1
 83 517 l 1,1,-1
 293 517 l 1,2,-1
 293 452 l 1,3,-1
 399 694 l 1,4,-1
 293 943 l 1,5,-1
 293 867 l 1,6,-1
 83 867 l 1,0,-1
3 964 m 1,7,-1
 213 964 l 1,8,-1
 213 1223 l 1,9,-1
 257 1223 l 1,10,-1
 483 725 l 1,11,-1
 483 659 l 1,12,-1
 257 163 l 1,13,-1
 213 163 l 1,14,-1
 213 420 l 1,15,-1
 3 420 l 1,16,-1
 3 964 l 1,7,-1
EndSplineSet
EndChar

StartChar: uni2B06
Encoding: 11014 11014 665
Width: 512
VWidth: 2441
GlyphClass: 1
Flags: HW
LayerCount: 2
Fore
SplineSet
518 999 m 1,0,-1
 518 892 l 1,1,-1
 403 892 l 1,2,-1
 403 0 l 1,3,-1
 155 0 l 1,4,-1
 155 892 l 1,5,-1
 38 892 l 1,6,-1
 38 999 l 1,7,-1
 264 1553 l 1,8,-1
 294 1553 l 1,9,-1
 518 999 l 1,0,-1
EndSplineSet
EndChar

StartChar: uni2B05
Encoding: 11013 11013 668
Width: 512
VWidth: 2441
GlyphClass: 1
Flags: HW
LayerCount: 2
Fore
SplineSet
483 420 m 1,0,-1
 275 420 l 1,1,-1
 275 163 l 1,2,-1
 231 163 l 1,3,-1
 3 659 l 1,4,-1
 3 725 l 1,5,-1
 231 1223 l 1,6,-1
 275 1223 l 1,7,-1
 275 964 l 1,8,-1
 483 964 l 1,9,-1
 483 420 l 1,0,-1
EndSplineSet
EndChar

StartChar: dneighthblock
Encoding: 9601 9601 669
Width: 512
VWidth: 2440
GlyphClass: 1
Flags: HW
LayerCount: 2
Fore
SplineSet
450 -246 m 1,0,-1
 450 -550 l 1,1,-1
 16 -550 l 1,2,-1
 16 -246 l 1,3,-1
 450 -246 l 1,0,-1
EndSplineSet
EndChar

StartChar: dnquarterblock
Encoding: 9602 9602 670
Width: 512
VWidth: 250
GlyphClass: 1
Flags: HW
LayerCount: 2
Fore
SplineSet
-17 -246 m 1,0,-1
 -17 -122 l 1,1,-1
 72 -122 l 1,2,-1
 72 -246 l 1,3,-1
 -17 -246 l 1,0,-1
EndSplineSet
EndChar

StartChar: dnthreeeighthsblock
Encoding: 9603 9603 671
Width: 512
VWidth: 1223
GlyphClass: 1
Flags: HW
LayerCount: 2
Fore
SplineSet
-17 -246 m 1,0,-1
 -17 305 l 1,1,-1
 246 305 l 1,2,-1
 246 -246 l 1,3,-1
 -17 -246 l 1,0,-1
EndSplineSet
EndChar

StartChar: dnhalfblock
Encoding: 9604 9604 672
Width: 512
VWidth: 1709
GlyphClass: 1
Flags: HW
LayerCount: 2
Fore
SplineSet
-16 -246 m 1,0,-1
 -16 732 l 1,1,-1
 333 732 l 1,2,-1
 333 -246 l 1,3,-1
 -16 -246 l 1,0,-1
EndSplineSet
EndChar

StartChar: dnfiveeighthsblock
Encoding: 9605 9605 673
Width: 512
VWidth: 2002
GlyphClass: 1
Flags: HW
LayerCount: 2
Fore
SplineSet
-17 -246 m 1,0,-1
 -17 1160 l 1,1,-1
 385 1160 l 1,2,-1
 385 -246 l 1,3,-1
 -17 -246 l 1,0,-1
EndSplineSet
EndChar

StartChar: dnthreequartersblock
Encoding: 9606 9606 674
Width: 512
VWidth: 2196
GlyphClass: 1
Flags: HW
LayerCount: 2
Fore
SplineSet
-16 -246 m 1,0,-1
 -16 1587 l 1,1,-1
 420 1587 l 1,2,-1
 420 -246 l 1,3,-1
 -16 -246 l 1,0,-1
EndSplineSet
EndChar

StartChar: dnseveneighthsblock
Encoding: 9607 9607 675
Width: 512
VWidth: 2335
GlyphClass: 1
Flags: HW
LayerCount: 2
Fore
SplineSet
-16 -246 m 1,0,-1
 -16 2015 l 1,1,-1
 445 2015 l 1,2,-1
 445 -246 l 1,3,-1
 -16 -246 l 1,0,-1
EndSplineSet
EndChar

StartChar: fullblock
Encoding: 9608 9608 676
Width: 512
VWidth: 2441
GlyphClass: 1
Flags: HW
LayerCount: 2
Fore
SplineSet
-17 -246 m 1,0,-1
 -17 2441 l 1,1,-1
 463 2441 l 1,2,-1
 463 -246 l 1,3,-1
 -17 -246 l 1,0,-1
EndSplineSet
EndChar

StartChar: uphalfblock
Encoding: 9600 9600 677
Width: 512
VWidth: 2441
GlyphClass: 1
Flags: HW
LayerCount: 2
Fore
SplineSet
-17 732 m 1,0,-1
 -17 2441 l 1,1,-1
 463 2441 l 1,2,-1
 463 732 l 1,3,-1
 -17 732 l 1,0,-1
EndSplineSet
EndChar

StartChar: upeighthblock
Encoding: 9620 9620 678
Width: 512
VWidth: 2441
GlyphClass: 1
Flags: HW
LayerCount: 2
Fore
SplineSet
-17 2015 m 1,0,-1
 -17 2441 l 1,1,-1
 463 2441 l 1,2,-1
 463 2015 l 1,3,-1
 -17 2015 l 1,0,-1
EndSplineSet
EndChar

StartChar: lefteighthblock
Encoding: 9615 9615 679
Width: 512
VWidth: 2441
GlyphClass: 1
Flags: HW
LayerCount: 2
Fore
SplineSet
16 -246 m 1,0,-1
 16 2441 l 1,1,-1
 75 2441 l 1,2,-1
 75 -246 l 1,3,-1
 16 -246 l 1,0,-1
EndSplineSet
EndChar

StartChar: leftquarterblock
Encoding: 9614 9614 680
Width: 512
VWidth: 2441
GlyphClass: 1
Flags: HW
LayerCount: 2
Fore
SplineSet
16 -246 m 1,0,-1
 16 2441 l 1,1,-1
 137 2441 l 1,2,-1
 137 -246 l 1,3,-1
 16 -246 l 1,0,-1
EndSplineSet
EndChar

StartChar: leftthreeeighthsblock
Encoding: 9613 9613 681
Width: 512
VWidth: 2441
GlyphClass: 1
Flags: HW
LayerCount: 2
Fore
SplineSet
16 -246 m 1,0,-1
 16 2441 l 1,1,-1
 197 2441 l 1,2,-1
 197 -246 l 1,3,-1
 16 -246 l 1,0,-1
EndSplineSet
EndChar

StartChar: lefthalfblock
Encoding: 9612 9612 682
Width: 512
VWidth: 2441
GlyphClass: 1
Flags: HW
LayerCount: 2
Fore
SplineSet
16 -246 m 1,0,-1
 16 2441 l 1,1,-1
 256 2441 l 1,2,-1
 256 -246 l 1,3,-1
 16 -246 l 1,0,-1
EndSplineSet
EndChar

StartChar: leftfiveeighthsblock
Encoding: 9611 9611 683
Width: 512
VWidth: 2441
GlyphClass: 1
Flags: HW
LayerCount: 2
Fore
SplineSet
16 -246 m 1,0,-1
 16 2441 l 1,1,-1
 315 2441 l 1,2,-1
 315 -246 l 1,3,-1
 16 -246 l 1,0,-1
EndSplineSet
EndChar

StartChar: leftthreequartersblock
Encoding: 9610 9610 684
Width: 512
VWidth: 2441
GlyphClass: 1
Flags: HW
LayerCount: 2
Fore
SplineSet
16 -246 m 1,0,-1
 16 2441 l 1,1,-1
 377 2441 l 1,2,-1
 377 -246 l 1,3,-1
 16 -246 l 1,0,-1
EndSplineSet
EndChar

StartChar: leftseveneighthsblock
Encoding: 9609 9609 685
Width: 512
VWidth: 2441
GlyphClass: 1
Flags: HW
LayerCount: 2
Fore
SplineSet
16 -246 m 1,0,-1
 16 2441 l 1,1,-1
 437 2441 l 1,2,-1
 437 -246 l 1,3,-1
 16 -246 l 1,0,-1
EndSplineSet
EndChar

StartChar: righthalfblock
Encoding: 9616 9616 686
Width: 512
VWidth: 2441
GlyphClass: 1
Flags: HW
LayerCount: 2
Fore
SplineSet
223 -246 m 1,0,-1
 223 2441 l 1,1,-1
 463 2441 l 1,2,-1
 463 -246 l 1,3,-1
 223 -246 l 1,0,-1
EndSplineSet
EndChar

StartChar: righteighthblock
Encoding: 9621 9621 687
Width: 512
VWidth: 2441
GlyphClass: 1
Flags: HW
LayerCount: 2
Fore
SplineSet
404 -246 m 1,0,-1
 404 2441 l 1,1,-1
 463 2441 l 1,2,-1
 463 -246 l 1,3,-1
 404 -246 l 1,0,-1
EndSplineSet
EndChar

StartChar: dnleftquadrant
Encoding: 9622 9622 688
Width: 512
VWidth: 1709
GlyphClass: 1
Flags: HW
LayerCount: 2
Fore
SplineSet
16 -246 m 1,0,-1
 16 732 l 1,1,-1
 191 732 l 1,2,-1
 191 -246 l 1,3,-1
 16 -246 l 1,0,-1
EndSplineSet
EndChar

StartChar: dnrightquadrant
Encoding: 9623 9623 689
Width: 512
VWidth: 1709
GlyphClass: 1
Flags: HW
LayerCount: 2
Fore
SplineSet
158 -246 m 1,0,-1
 158 732 l 1,1,-1
 333 732 l 1,2,-1
 333 -246 l 1,3,-1
 158 -246 l 1,0,-1
EndSplineSet
EndChar

StartChar: upleftquadrant
Encoding: 9624 9624 690
Width: 512
VWidth: 2441
GlyphClass: 1
Flags: HW
LayerCount: 2
Fore
SplineSet
16 732 m 1,0,-1
 16 2441 l 1,1,-1
 321 2441 l 1,2,-1
 321 732 l 1,3,-1
 16 732 l 1,0,-1
EndSplineSet
EndChar

StartChar: upleftdnleftdnrightquadrant
Encoding: 9625 9625 691
Width: 512
VWidth: 2441
GlyphClass: 1
Flags: HW
LayerCount: 2
Fore
SplineSet
-17 -246 m 1,0,-1
 -17 2441 l 1,1,-1
 223 2441 l 1,2,-1
 223 1097 l 1,3,-1
 463 1097 l 1,4,-1
 463 -246 l 1,5,-1
 -17 -246 l 1,0,-1
EndSplineSet
EndChar

StartChar: upleftdnrightquadrant
Encoding: 9626 9626 692
Width: 512
VWidth: 2441
GlyphClass: 1
Flags: HW
LayerCount: 2
Fore
SplineSet
223 1097 m 1,0,-1
 463 1097 l 1,1,-1
 463 -246 l 1,2,-1
 223 -246 l 1,3,-1
 223 1097 l 1,0,-1
223 1097 m 1,4,-1
 -17 1097 l 1,5,-1
 -17 2441 l 1,6,-1
 223 2441 l 1,7,-1
 223 1097 l 1,4,-1
EndSplineSet
EndChar

StartChar: upleftuprightdnleftquadrant
Encoding: 9627 9627 693
Width: 512
VWidth: 2441
GlyphClass: 1
Flags: HW
LayerCount: 2
Fore
SplineSet
-17 -246 m 1,0,-1
 -17 2441 l 1,1,-1
 463 2441 l 1,2,-1
 463 1097 l 1,3,-1
 223 1097 l 1,4,-1
 223 -246 l 1,5,-1
 -17 -246 l 1,0,-1
EndSplineSet
EndChar

StartChar: upleftuprightdnrightquadrant
Encoding: 9628 9628 694
Width: 512
VWidth: 2441
GlyphClass: 1
Flags: HW
LayerCount: 2
Fore
SplineSet
223 -246 m 1,0,-1
 223 1097 l 1,1,-1
 -17 1097 l 1,2,-1
 -17 2441 l 1,3,-1
 463 2441 l 1,4,-1
 463 -246 l 1,5,-1
 223 -246 l 1,0,-1
EndSplineSet
EndChar

StartChar: uprightquadrant
Encoding: 9629 9629 695
Width: 512
VWidth: 2441
GlyphClass: 1
Flags: HW
LayerCount: 2
Fore
SplineSet
289 732 m 1,0,-1
 289 2441 l 1,1,-1
 594 2441 l 1,2,-1
 594 732 l 1,3,-1
 289 732 l 1,0,-1
EndSplineSet
EndChar

StartChar: uprightdnleftquadrant
Encoding: 9630 9630 696
Width: 512
VWidth: 2441
GlyphClass: 1
Flags: HW
LayerCount: 2
Fore
SplineSet
-17 -246 m 1,0,-1
 -17 1097 l 1,1,-1
 223 1097 l 1,2,-1
 223 -246 l 1,3,-1
 -17 -246 l 1,0,-1
223 1097 m 1,4,-1
 223 2441 l 1,5,-1
 463 2441 l 1,6,-1
 463 1097 l 1,7,-1
 223 1097 l 1,4,-1
EndSplineSet
EndChar

StartChar: uprightdnleftdnrightquadrant
Encoding: 9631 9631 697
Width: 512
VWidth: 2441
GlyphClass: 1
Flags: HW
LayerCount: 2
Fore
SplineSet
-17 -246 m 1,0,-1
 -17 1097 l 1,1,-1
 223 1097 l 1,2,-1
 223 2441 l 1,3,-1
 463 2441 l 1,4,-1
 463 -246 l 1,5,-1
 -17 -246 l 1,0,-1
EndSplineSet
EndChar

StartChar: lightshade
Encoding: 9617 9617 698
Width: 512
VWidth: 2427
GlyphClass: 1
Flags: HW
LayerCount: 2
Fore
SplineSet
14 -246 m 1
 14 -149 l 1
 63 -149 l 1
 63 -246 l 1
 14 -246 l 1
177 -246 m 1
 177 -149 l 1
 227 -149 l 1
 227 -246 l 1
 177 -246 l 1
339 -246 m 1
 339 -149 l 1
 388 -149 l 1
 388 -246 l 1
 339 -246 l 1
96 -51 m 1
 96 46 l 1
 145 46 l 1
 145 -51 l 1
 96 -51 l 1
257 -51 m 1
 257 46 l 1
 307 46 l 1
 307 -51 l 1
 257 -51 l 1
421 -51 m 1
 421 46 l 1
 470 46 l 1
 470 -51 l 1
 421 -51 l 1
14 143 m 1
 14 240 l 1
 63 240 l 1
 63 143 l 1
 14 143 l 1
177 143 m 1
 177 240 l 1
 227 240 l 1
 227 143 l 1
 177 143 l 1
339 143 m 1
 339 240 l 1
 388 240 l 1
 388 143 l 1
 339 143 l 1
421 337 m 1
 421 435 l 1
 470 435 l 1
 470 337 l 1
 421 337 l 1
257 337 m 1
 257 435 l 1
 307 435 l 1
 307 337 l 1
 257 337 l 1
96 337 m 1
 96 435 l 1
 145 435 l 1
 145 337 l 1
 96 337 l 1
14 532 m 1
 14 630 l 1
 63 630 l 1
 63 532 l 1
 14 532 l 1
177 532 m 1
 177 630 l 1
 227 630 l 1
 227 532 l 1
 177 532 l 1
339 532 m 1
 339 630 l 1
 388 630 l 1
 388 532 l 1
 339 532 l 1
96 727 m 1
 96 824 l 1
 145 824 l 1
 145 727 l 1
 96 727 l 1
257 727 m 1
 257 824 l 1
 307 824 l 1
 307 727 l 1
 257 727 l 1
421 727 m 1
 421 824 l 1
 470 824 l 1
 470 727 l 1
 421 727 l 1
14 921 m 1
 14 1018 l 1
 63 1018 l 1
 63 921 l 1
 14 921 l 1
177 921 m 1
 177 1018 l 1
 227 1018 l 1
 227 921 l 1
 177 921 l 1
339 921 m 1
 339 1018 l 1
 388 1018 l 1
 388 921 l 1
 339 921 l 1
96 1116 m 1
 96 1213 l 1
 145 1213 l 1
 145 1116 l 1
 96 1116 l 1
257 1116 m 1
 257 1213 l 1
 307 1213 l 1
 307 1116 l 1
 257 1116 l 1
421 1116 m 1
 421 1213 l 1
 470 1213 l 1
 470 1116 l 1
 421 1116 l 1
14 1310 m 1
 14 1408 l 1
 63 1408 l 1
 63 1310 l 1
 14 1310 l 1
177 1310 m 1
 177 1408 l 1
 227 1408 l 1
 227 1310 l 1
 177 1310 l 1
339 1310 m 1
 339 1408 l 1
 388 1408 l 1
 388 1310 l 1
 339 1310 l 1
96 1505 m 1
 96 1603 l 1
 145 1603 l 1
 145 1505 l 1
 96 1505 l 1
257 1505 m 1
 257 1603 l 1
 307 1603 l 1
 307 1505 l 1
 257 1505 l 1
421 1505 m 1
 421 1603 l 1
 470 1603 l 1
 470 1505 l 1
 421 1505 l 1
339 1699 m 1
 339 1796 l 1
 388 1796 l 1
 388 1699 l 1
 339 1699 l 1
177 1699 m 1
 177 1796 l 1
 227 1796 l 1
 227 1699 l 1
 177 1699 l 1
14 1699 m 1
 14 1796 l 1
 63 1796 l 1
 63 1699 l 1
 14 1699 l 1
96 1894 m 1
 96 1991 l 1
 145 1991 l 1
 145 1894 l 1
 96 1894 l 1
257 1894 m 1
 257 1991 l 1
 307 1991 l 1
 307 1894 l 1
 257 1894 l 1
421 1894 m 1
 421 1991 l 1
 470 1991 l 1
 470 1894 l 1
 421 1894 l 1
14 2089 m 1
 14 2186 l 1
 63 2186 l 1
 63 2089 l 1
 14 2089 l 1
177 2089 m 1
 177 2186 l 1
 227 2186 l 1
 227 2089 l 1
 177 2089 l 1
339 2089 m 1
 339 2186 l 1
 388 2186 l 1
 388 2089 l 1
 339 2089 l 1
96 2283 m 1
 96 2381 l 1
 145 2381 l 1
 145 2283 l 1
 96 2283 l 1
257 2283 m 1
 257 2381 l 1
 307 2381 l 1
 307 2283 l 1
 257 2283 l 1
421 2283 m 1
 421 2381 l 1
 470 2381 l 1
 470 2283 l 1
 421 2283 l 1
EndSplineSet
EndChar

